<?xml version="1.0" standalone="no"?>
<!DOCTYPE svg PUBLIC "-//W3C//DTD SVG 20010904//EN"
 "http://www.w3.org/TR/2001/REC-SVG-20010904/DTD/svg10.dtd">
<svg version="1.0" xmlns="http://www.w3.org/2000/svg"
 width="116.000000pt" height="87.000000pt" viewBox="0 0 116.000000 87.000000"
 preserveAspectRatio="xMidYMid meet">

<g transform="translate(0.000000,87.000000) scale(0.100000,-0.100000)"
fill="#000000" stroke="none">
<path d="M385 630 c-153 -129 -200 -174 -200 -192 0 -17 6 -24 25 -26 19 -2
62 30 195 142 94 80 178 145 189 146 10 0 97 -66 192 -146 130 -109 179 -145
196 -142 14 2 24 11 26 24 2 17 -39 57 -200 193 -112 94 -207 171 -213 171 -5
-1 -100 -77 -210 -170z"/>
<path d="M744 736 c-7 -19 3 -36 49 -75 l37 -33 0 61 0 61 -40 0 c-26 0 -43
-5 -46 -14z"/>
<path d="M447 558 c-52 -40 -38 -142 25 -174 51 -26 98 10 98 76 0 75 -75 134
-123 98z"/>
<path d="M660 543 c-53 -48 -51 -142 3 -162 66 -25 132 62 106 138 -20 56 -62
66 -109 24z"/>
<path d="M328 389 c-28 -16 -24 -81 8 -118 32 -38 67 -41 90 -6 22 33 10 78
-28 110 -32 27 -44 30 -70 14z"/>
<path d="M792 375 c-38 -32 -50 -77 -28 -110 20 -31 54 -32 85 -4 44 41 50
108 11 129 -27 15 -35 13 -68 -15z"/>
<path d="M560 359 c-38 -16 -60 -39 -91 -101 -16 -32 -33 -58 -38 -58 -21 0
-61 -51 -61 -78 0 -54 76 -95 144 -78 23 6 25 11 28 69 l3 62 50 0 c47 0 50
-2 53 -27 2 -21 -1 -28 -13 -28 -9 0 -13 -5 -10 -10 4 -6 11 -8 16 -5 5 4 9
-7 9 -23 0 -33 14 -42 61 -42 49 0 95 25 106 56 14 39 2 65 -40 94 -23 16 -45
45 -62 81 -36 79 -95 112 -155 88z m30 -64 c0 -8 -9 -15 -20 -15 -11 0 -20 7
-20 15 0 8 9 15 20 15 11 0 20 -7 20 -15z m50 0 c0 -8 -9 -15 -20 -15 -11 0
-20 7 -20 15 0 8 9 15 20 15 11 0 20 -7 20 -15z m-50 -50 c0 -8 -9 -15 -20
-15 -11 0 -20 7 -20 15 0 8 9 15 20 15 11 0 20 -7 20 -15z m50 0 c0 -8 -9 -15
-20 -15 -11 0 -20 7 -20 15 0 8 9 15 20 15 11 0 20 -7 20 -15z"/>
</g>
</svg>
