<svg width="150" height="150" viewBox="0 0 150 150" fill="none" xmlns="http://www.w3.org/2000/svg">
<mask id="mask0_187_2071" style="mask-type:luminance" maskUnits="userSpaceOnUse" x="0" y="0" width="150" height="150">
<path d="M0 0H150V150H0V0Z" fill="white"/>
</mask>
<g mask="url(#mask0_187_2071)">
<path d="M119.046 25C115.774 25 113.094 27.7414 113.094 31.0954C113.094 34.4478 115.774 37.1892 119.046 37.1892C122.319 37.1892 125 34.4478 125 31.0954C125 27.7414 122.319 25 119.046 25ZM119.046 27.4402C121.033 27.4402 122.617 29.0625 122.617 31.0954C122.617 33.1267 121.033 34.749 119.046 34.749C117.059 34.749 115.475 33.1267 115.475 31.0954C115.475 29.0625 117.059 27.4402 119.046 27.4402ZM90.791 31.0971C89.9332 31.0668 88.9864 31.1644 87.8848 31.4539C85.8036 31.9318 83.7585 32.9769 83.0341 33.3337C82.9665 33.2529 82.8875 33.1839 82.8019 33.125C78.8748 30.4458 73.9697 30.4307 70.6206 33.8032C70.5762 33.8453 70.5366 33.8907 70.4988 33.9412C70.4988 33.9412 69.5026 35.2993 68.732 36.9704C68.3467 37.8068 68.0042 38.7257 67.8906 39.6967C67.777 40.6677 67.9318 41.8088 68.7238 42.6334C69.2227 43.1551 70.0015 43.3402 70.6107 43.256C71.22 43.1719 71.7436 42.9195 72.2738 42.5997C72.9818 42.1739 73.7409 41.4638 74.49 40.8074C75.4994 42.2614 76.5235 43.8047 77.3057 45.3361C77.0455 47.8234 76.2568 51.1724 73.2057 53.4544C73.2057 53.4561 73.2041 53.4561 73.2041 53.4577C67.8099 57.5219 44.7926 73.9874 44.7482 74.0194C44.7482 74.0194 43.589 74.7968 42.3491 76.1987C39.5072 74.5377 34.3567 70.5761 34.3567 62.7743C34.3567 61.7813 34.0472 60.8322 33.4067 60.1506C32.7645 59.469 31.8342 59.119 30.8693 59.119C29.9028 59.119 28.9741 59.469 28.332 60.1506C27.6898 60.8322 27.3786 61.7813 27.3786 62.7743C27.3786 75.539 35.921 81.9744 39.2915 83.9366C39.3491 83.972 39.41 84.0023 39.4726 84.0275C39.5632 85.2274 39.876 86.4963 40.5017 87.8023L27.7112 100.867C26.1338 102.344 25.2298 103.936 25.0372 105.548C24.8445 107.161 25.4142 108.7 26.4285 109.885C29.2721 113.275 32.3644 117.162 32.3644 117.162C32.4517 117.271 32.5537 117.362 32.6706 117.435C32.7892 117.507 32.9143 117.558 33.0494 117.586C33.1827 117.613 33.3194 117.618 33.4544 117.598C33.5911 117.578 33.7195 117.534 33.8414 117.47C33.8414 117.47 35.124 116.797 35.9967 115.361C36.7508 114.121 36.8941 112.137 36.0198 109.942L43.6647 101.854L39.5088 115.868C39.5055 115.88 39.5039 115.893 39.5006 115.905C38.9193 118.126 39.5895 120.243 40.747 121.782C41.9046 123.32 43.5198 124.38 45.1895 124.69C46.7109 124.971 49.0292 125.006 51.066 124.999C53.1028 124.993 54.807 124.922 54.807 124.922C54.947 124.917 55.0837 124.887 55.2137 124.831C55.3438 124.777 55.4607 124.7 55.5661 124.602C55.6698 124.505 55.7538 124.392 55.818 124.262C55.8822 124.134 55.9234 123.998 55.9415 123.855C55.9415 123.855 56.1457 122.357 55.5068 120.775C54.9997 119.52 53.5985 118.428 51.6522 117.889C51.9338 117.011 52.6204 114.878 53.605 111.844C54.1896 110.042 54.779 108.231 55.2302 106.863C55.4558 106.178 55.6451 105.602 55.7834 105.197C55.8444 105.017 55.8905 104.885 55.9283 104.781C62.0684 99.5724 65.3154 92.6221 65.6776 91.8261C72.7299 90.1499 77.1163 88.2432 81.59 85.1265C84.6312 83.2147 88.359 79.827 90.2361 77.5349L106.157 81.7842C106.366 81.8717 107.128 82.1747 108.225 82.2992C109.486 82.4422 111.22 82.311 112.522 80.9832C112.55 80.9546 112.577 80.9243 112.601 80.8923C114.697 78.2821 119.937 72.2069 119.937 72.2069C120.042 72.084 120.121 71.946 120.172 71.7912C120.225 71.6364 120.245 71.4782 120.233 71.3149C120.223 71.1517 120.182 70.9969 120.11 70.8505C120.039 70.704 119.942 70.5778 119.822 70.4718C119.822 70.4718 118.733 69.5075 117.085 69.07C115.588 68.6745 113.509 68.9353 111.511 70.4028C111.399 70.3809 111.264 70.3506 111.055 70.3002C110.546 70.1756 109.806 69.9754 108.925 69.7229C107.466 69.3056 105.521 68.7132 103.608 68.1292L107.209 67.6597C107.729 67.6799 110.993 67.6967 112.885 64.6776C114.691 61.7948 117.742 55.0767 117.742 55.0767C117.78 54.9959 117.808 54.9118 117.826 54.8259C117.846 54.7401 117.856 54.6526 117.856 54.5634C117.857 54.4742 117.847 54.3867 117.829 54.3009C117.811 54.2134 117.785 54.1309 117.749 54.0501C117.712 53.9693 117.67 53.8936 117.617 53.8229C117.566 53.7523 117.506 53.6866 117.441 53.6294C117.375 53.5722 117.304 53.5217 117.228 53.4796C117.152 53.4392 117.072 53.4056 116.989 53.382C116.989 53.382 115.575 52.9647 113.841 53.0337C112.107 53.1027 109.843 53.7034 108.495 55.8323C108.366 56.0343 108.302 56.2547 108.302 56.4971V55.6438L91.8135 57.4614C91.7625 57.219 91.7279 57.0137 91.7279 56.8639C91.7279 55.3577 92.8245 53.6008 94.5633 52.0256C96.3021 50.4487 98.5924 49.099 100.493 48.3014C100.501 48.298 100.509 48.2963 100.517 48.2929C103.856 46.7952 106.763 43.5657 108.162 40.4759C108.862 38.931 109.244 37.3693 108.743 35.9119C108.493 35.1832 107.97 34.5201 107.268 34.1129C106.565 33.7056 105.722 33.5289 104.759 33.5289C99.2988 33.5289 96.7499 32.6942 94.7 31.9907C93.6741 31.639 92.706 31.3109 91.6242 31.1661C91.3541 31.1308 91.0775 31.1072 90.791 31.0971ZM90.7449 33.4919C90.9557 33.4986 91.1598 33.5154 91.3591 33.5457C92.156 33.6602 92.9019 33.948 93.9458 34.3047C95.7109 34.9106 98.1561 35.6729 102.304 35.8984C102.892 37.0377 104.016 38.7442 105.86 39.7253C104.678 42.1268 102.07 44.9305 99.5639 46.0547L99.5902 46.0446C97.4514 46.9433 94.9897 48.3805 92.9859 50.1963C90.9837 52.0121 89.347 54.2521 89.347 56.8639C89.347 58.2422 89.8969 59.5279 90.4255 61.056C90.9557 62.5858 91.5122 64.3057 91.7328 66.2124C91.7608 66.4514 91.8498 66.6634 91.9996 66.8485C92.1494 67.0337 92.3371 67.1632 92.5611 67.2356C92.5611 67.2356 97.1698 68.7048 101.826 70.1386C104.155 70.8538 106.496 71.5606 108.286 72.0739C109.181 72.3297 109.937 72.535 110.502 72.6747C110.784 72.7437 111.016 72.7959 111.22 72.8312C111.324 72.8497 111.414 72.8632 111.543 72.8699C111.609 72.8733 111.679 72.875 111.801 72.8598C111.923 72.8447 112.117 72.8683 112.461 72.562C112.463 72.562 112.463 72.5603 112.465 72.5603C114.083 71.1164 115.404 71.145 116.489 71.4327C116.897 71.5404 116.879 71.6195 117.161 71.7676C116.087 73.0147 112.75 76.8786 110.835 79.2582C110.237 79.8607 109.363 79.9734 108.488 79.8758C107.611 79.7749 106.924 79.4787 106.924 79.4787C106.868 79.4568 106.814 79.4366 106.756 79.4214L90.1801 74.9988C89.9463 74.9365 89.7158 74.9449 89.4886 75.0274C89.2597 75.1082 89.0736 75.2479 88.9287 75.4464C87.7366 77.0688 83.2201 81.2457 80.3304 83.0599C80.3139 83.07 80.2975 83.0801 80.281 83.0902C75.9785 86.0924 72.068 87.8494 65.1244 89.4885C65.3121 85.9157 63.733 82.5802 61.0706 80.5237C60.9569 80.4329 60.8269 80.3908 60.682 80.3975C60.5568 80.4026 60.4432 80.4446 60.3428 80.5237C60.244 80.6028 60.1748 80.7055 60.1386 80.8283C60.1007 80.9529 60.1024 81.0757 60.1419 81.1986C60.1814 81.3214 60.2522 81.4207 60.3543 81.4981C62.8834 83.452 64.3209 86.7084 63.8796 90.1415C63.8483 90.1903 63.8203 90.2425 63.7956 90.2963C63.7956 90.2963 60.2703 98.1235 54.1583 103.159C54.0644 103.234 53.9854 103.324 53.9179 103.425C53.6972 103.759 53.7928 103.669 53.7713 103.721C53.7516 103.773 53.7318 103.825 53.7088 103.889C53.6643 104.019 53.6067 104.185 53.5342 104.396C53.3926 104.815 53.1983 105.395 52.9728 106.084C52.5183 107.458 51.9305 109.269 51.3443 111.073C50.1736 114.681 49.021 118.261 49.021 118.261C48.993 118.35 48.9749 118.443 48.9667 118.537C48.9584 118.631 48.9617 118.725 48.9749 118.82C48.9881 118.914 49.0111 119.005 49.0457 119.092C49.0803 119.18 49.1231 119.264 49.1758 119.341C49.2285 119.419 49.2894 119.489 49.3586 119.552C49.4277 119.616 49.5035 119.67 49.5841 119.715C49.6648 119.76 49.7504 119.796 49.8394 119.819C49.9283 119.845 50.0205 119.86 50.1127 119.863C52.3504 119.942 52.9431 120.807 53.307 121.709C53.4651 122.101 53.3943 122.184 53.4256 122.51C52.7735 122.53 52.3454 122.554 51.0562 122.557C49.0671 122.564 46.7059 122.49 45.6126 122.288C44.6708 122.115 43.4342 121.357 42.6323 120.291C41.8305 119.225 41.4304 117.95 41.7992 116.538L47.9639 95.7422C48.0561 95.4308 48.0314 95.1296 47.8898 94.8384C47.1291 93.2885 45.8958 91.2859 43.9529 88.8086C40.8788 84.8892 41.4946 82.0013 42.7525 79.7294C44.0105 77.4575 46.0523 76.059 46.0523 76.059C46.0621 76.0523 46.072 76.0456 46.0835 76.0405C46.0835 76.0405 69.0778 59.5953 74.6102 55.4267L74.6119 55.4234C78.5587 52.4699 79.5022 48.0355 79.7541 45.2183C79.7755 44.9861 79.7343 44.7656 79.6323 44.5569C78.5554 42.3624 77.0834 40.1444 75.7398 38.2915C75.7217 38.2646 75.7019 38.241 75.6822 38.2175C76.0987 37.7849 76.4857 37.3339 76.7211 36.8509C76.8282 36.6423 76.8183 36.4386 76.6948 36.2401C76.5697 36.0415 76.3935 35.9472 76.163 35.959C76.0543 35.9657 75.9538 35.9994 75.8633 36.0617C75.7727 36.1222 75.7036 36.2047 75.6575 36.3057C75.4681 36.6928 74.8572 37.3558 74.2612 37.9196C74.1591 37.9701 74.0669 38.0357 73.9829 38.1148C72.8665 39.1531 71.8177 40.0451 71.0668 40.4978C70.7408 40.6947 70.5268 40.7603 70.3967 40.794C70.2864 40.6375 70.2007 40.454 70.2551 39.9862C70.3193 39.4409 70.5646 38.7072 70.8857 38.0121C71.5032 36.6692 72.2935 35.5787 72.3528 35.4979C74.8704 33.0156 78.2195 32.9954 81.3809 35.1058C81.4501 35.1798 81.5209 35.2522 81.595 35.3262C81.7613 35.4895 81.9276 35.6443 81.9276 35.6443C82.107 35.8143 82.3178 35.9186 82.5598 35.9556C82.8019 35.9927 83.0324 35.9573 83.253 35.8479C83.253 35.8479 86.5791 34.2475 88.42 33.8318C88.4331 33.8268 88.448 33.8234 88.4611 33.8184C89.3997 33.5693 90.111 33.4751 90.7449 33.4919ZM91.9634 35.9843C91.8267 35.9843 91.69 35.9977 91.5567 36.0246C91.4233 36.0516 91.2916 36.092 91.1664 36.1458C91.0396 36.1997 90.9194 36.2653 90.8058 36.3427C90.6922 36.4218 90.5868 36.5093 90.4897 36.6086C90.3925 36.7079 90.3069 36.8156 90.2312 36.9334C90.1554 37.0495 90.0912 37.1724 90.0385 37.302C89.9858 37.4315 89.9463 37.5645 89.92 37.7025C89.8936 37.8405 89.8805 37.9785 89.8805 38.1198C89.8805 38.2595 89.8936 38.3975 89.92 38.5355C89.9463 38.6735 89.9858 38.8065 90.0385 38.936C90.0912 39.0656 90.1554 39.1885 90.2312 39.3063C90.3069 39.4224 90.3925 39.5301 90.4897 39.6294C90.5868 39.7287 90.6922 39.8162 90.8058 39.8953C90.9194 39.9727 91.0396 40.0383 91.1664 40.0922C91.2916 40.1461 91.4233 40.1864 91.5567 40.2134C91.69 40.242 91.8267 40.2554 91.9634 40.2554C92.1 40.2554 92.235 40.242 92.3701 40.2134C92.5034 40.1864 92.6335 40.1461 92.7603 40.0922C92.8871 40.0383 93.0073 39.9727 93.1209 39.8953C93.2345 39.8162 93.3399 39.7287 93.437 39.6294C93.5325 39.5301 93.6198 39.4224 93.6955 39.3063C93.7713 39.1885 93.8355 39.0656 93.8882 38.936C93.9409 38.8065 93.9804 38.6735 94.0067 38.5355C94.0331 38.3975 94.0463 38.2595 94.0463 38.1198C94.0463 37.9785 94.0331 37.8405 94.0067 37.7025C93.9804 37.5645 93.9409 37.4315 93.8882 37.302C93.8355 37.1724 93.7713 37.0495 93.6955 36.9334C93.6198 36.8156 93.5325 36.7079 93.437 36.6086C93.3399 36.5093 93.2345 36.4218 93.1209 36.3427C93.0073 36.2653 92.8871 36.1997 92.7603 36.1458C92.6335 36.092 92.5034 36.0516 92.3701 36.0246C92.235 35.9977 92.1 35.9843 91.9634 35.9843ZM113.933 55.4722C114.416 55.452 114.437 55.5227 114.818 55.5664C114.057 57.1955 112.17 61.3034 110.882 63.3565C109.591 65.4181 107.192 65.2262 107.192 65.2262C107.113 65.2195 107.033 65.2212 106.954 65.233L98.6599 66.3117C98.5052 66.3302 98.3586 66.379 98.2219 66.4547C96.6659 65.965 94.1714 65.1892 93.8915 65.0983C93.5869 63.2842 93.1308 61.5743 92.6697 60.2415C92.617 60.0884 92.5874 59.984 92.538 59.8393L109.621 57.9528C109.87 57.9258 110.089 57.8265 110.276 57.6566C110.466 57.4883 110.589 57.2779 110.649 57.0288C111.46 55.9114 112.687 55.521 113.933 55.4722ZM30.8693 61.5592C31.3188 61.5592 31.5395 61.6821 31.6926 61.8453C31.8457 62.0085 31.9758 62.2744 31.9758 62.7743C31.9758 71.4664 37.6383 76.1617 40.9117 78.1559C40.8359 78.2804 40.7553 78.3949 40.6845 78.5228C40.2333 79.3373 39.8842 80.2814 39.6669 81.3046C36.3326 79.1488 29.7595 73.533 29.7595 62.7743C29.7595 62.2744 29.8896 62.0085 30.0444 61.8453C30.1975 61.6821 30.4198 61.5592 30.8693 61.5592ZM110.942 70.699C110.928 70.7091 110.915 70.7074 110.902 70.7192V70.7175C110.924 70.6973 110.92 70.7141 110.942 70.699ZM56.3383 78.5228C56.2642 78.5245 56.1918 78.5413 56.1226 78.5716C56.0535 78.6002 55.9909 78.6423 55.9382 78.6961C55.8839 78.75 55.8411 78.8122 55.8098 78.8812C55.7785 78.9519 55.762 79.026 55.7587 79.1034C55.7538 79.1791 55.7637 79.2548 55.7884 79.3272C55.8114 79.4012 55.8477 79.4669 55.8971 79.5258C55.9448 79.5847 56.0024 79.6335 56.0683 79.6688C56.1342 79.7059 56.2033 79.7294 56.2791 79.7395C56.9212 79.8405 57.5354 80.0088 58.1199 80.2343C58.194 80.2629 58.2698 80.2764 58.3488 80.2747C58.4278 80.2713 58.5036 80.2545 58.576 80.2208C58.6485 80.1872 58.711 80.1417 58.7654 80.0828C58.8197 80.0239 58.8609 79.9566 58.8889 79.8809C58.9169 79.8051 58.93 79.7277 58.9267 79.6453C58.9251 79.5645 58.907 79.4871 58.8757 79.413C58.8428 79.3407 58.7983 79.275 58.7407 79.2195C58.683 79.164 58.6172 79.1219 58.5431 79.0933C57.8828 78.8375 57.1847 78.6473 56.4569 78.5329C56.419 78.5261 56.3795 78.5228 56.3383 78.5228ZM41.7959 89.9244C41.8963 90.0624 41.9885 90.2004 42.0972 90.3384C43.836 92.5548 44.8453 94.2444 45.527 95.5755L45.1812 96.7435C45.173 96.7502 45.1664 96.7586 45.1598 96.7654L33.8611 108.719C33.7722 108.815 33.6981 108.923 33.6421 109.042C33.5861 109.162 33.5516 109.288 33.5351 109.419C33.5203 109.552 33.5252 109.683 33.5516 109.813C33.5763 109.942 33.6224 110.065 33.6866 110.18C34.8243 112.187 34.4736 113.251 33.9764 114.071C33.7475 114.444 33.6438 114.431 33.4083 114.638C32.7398 113.8 30.7195 111.253 28.2249 108.283C28.2216 108.28 28.22 108.276 28.2167 108.273C27.5597 107.506 27.2946 106.733 27.4 105.846C27.5054 104.961 28.0323 103.874 29.3182 102.669C29.3314 102.657 29.3429 102.645 29.3561 102.634L41.7959 89.9244Z" fill="#6095BF"/>
</g>
</svg>
