<svg width="150" height="150" viewBox="0 0 150 150" fill="none" xmlns="http://www.w3.org/2000/svg">
<mask id="mask0_187_2076" style="mask-type:luminance" maskUnits="userSpaceOnUse" x="0" y="0" width="150" height="150">
<path d="M0 0H150V150H0V0Z" fill="white"/>
</mask>
<g mask="url(#mask0_187_2076)">
<path d="M75.0474 25.0012C56.4233 24.8646 38.3396 36.2949 29.8594 53.4868C29.222 54.7913 28.6536 56.1268 28.1545 57.4899C26.8746 60.9481 25.9851 64.504 25.4859 68.1541C25.4299 68.2973 25.3921 68.4437 25.3706 68.5949C25.3492 68.7511 25.3492 68.9089 25.3706 69.065C25.1235 71.0381 25 73.0177 25 75.0055C25 102.559 47.4342 124.99 75.0045 125C76.3767 124.995 77.7472 124.933 79.1128 124.816C80.4801 124.699 81.8407 124.527 83.1931 124.301C84.5455 124.073 85.8864 123.791 87.2157 123.455C88.5451 123.118 89.858 122.729 91.156 122.287C92.4524 121.844 93.729 121.35 94.9843 120.803C96.2411 120.257 97.4716 119.661 98.6791 119.014C99.8849 118.368 101.064 117.675 102.212 116.934C103.362 116.192 104.479 115.405 105.563 114.572C106.647 113.739 107.695 112.865 108.706 111.948C109.717 111.03 110.689 110.074 111.622 109.077C112.552 108.081 113.442 107.048 114.289 105.98C115.135 104.913 115.936 103.812 116.692 102.678C117.448 101.544 118.155 100.383 118.814 99.1919C119.473 98.0012 120.082 96.7861 120.64 95.545C121.199 94.3055 121.705 93.0448 122.158 91.763C122.612 90.4829 123.013 89.1848 123.358 87.8705V87.7973C123.352 87.7811 123.352 87.7632 123.358 87.7453C124.309 84.1065 124.846 80.4075 124.968 76.6516C125.011 76.4207 125.011 76.1897 124.968 75.9587C124.968 75.6448 124.968 75.3211 124.968 75.0055C125.054 45.3471 99.198 25.211 75.0474 25.0012ZM73.0031 120.758C70.9193 120.663 68.852 120.429 66.7995 120.055C66.9296 119.78 66.9972 119.491 67.0004 119.186C67.0004 117.028 67.6248 97.7295 84.6509 85.4517C99.0497 75.0787 114.91 76.8192 120.711 77.9399C120.563 80.2432 120.245 82.5238 119.759 84.7799C114.19 83.7324 100.765 82.623 88.5253 91.8102C75.8512 101.323 73.4479 115.016 73.0031 120.758ZM31.6056 60.4227C32.612 60.4959 33.7239 60.5594 35.0796 60.5594C37.4039 60.5773 39.7134 60.4048 42.0097 60.0454C44.306 59.6859 46.5578 59.1409 48.7635 58.4138C50.9692 57.6851 53.0991 56.7823 55.1533 55.7071C57.2074 54.6303 59.1594 53.3941 61.0077 52C62.795 50.6174 64.462 49.1046 66.0071 47.4634C67.5539 45.8205 68.959 44.0686 70.2258 42.2077C71.4925 40.3452 72.6045 38.3981 73.5599 36.3616C74.5153 34.3267 75.3043 32.23 75.9254 30.0714C75.9995 29.7965 76.0209 29.5167 75.9896 29.2337C77.9515 29.3069 79.9002 29.5119 81.8341 29.8518C81.0846 32.4187 80.149 34.9172 79.0305 37.3473C77.912 39.7792 76.6205 42.1166 75.1561 44.3614C73.6917 46.6061 72.0707 48.7321 70.2933 50.7427C68.5143 52.7532 66.5985 54.6254 64.5444 56.3578C63.3484 57.3338 62.1097 58.2496 60.8248 59.1068C59.54 59.964 58.2156 60.7562 56.8533 61.4866C55.491 62.2169 54.0957 62.8789 52.6675 63.4743C51.241 64.0713 49.7865 64.5967 48.3072 65.0538C46.828 65.5108 45.3306 65.8947 43.8135 66.207C42.298 66.521 40.7693 66.7601 39.2291 66.926C37.6889 67.0919 36.1438 67.1846 34.5937 67.2025C33.0453 67.2204 31.4985 67.1635 29.955 67.0334C30.3454 64.7902 30.8956 62.5878 31.6056 60.4227ZM71.7331 29.3069C71.1647 31.2149 70.4498 33.0693 69.5916 34.8684C68.7317 36.6674 67.7368 38.3884 66.6084 40.0362C65.4784 41.6823 64.2281 43.2325 62.8559 44.6867C61.4837 46.1409 60.0061 47.4813 58.4248 48.7094C56.6309 50.0546 54.7332 51.2355 52.7285 52.2489C50.7254 53.2623 48.6482 54.0951 46.4952 54.7474C44.3439 55.3981 42.1497 55.8584 39.916 56.1268C37.6823 56.3968 35.442 56.47 33.1935 56.3464C33.3632 55.9706 33.523 55.6242 33.6597 55.2988C40.9439 40.5697 55.9473 30.4277 71.7331 29.3069ZM29.2351 75.0055C29.2351 73.6863 29.2977 72.4078 29.4032 71.1813C30.7061 71.2968 32.1887 71.3814 33.8821 71.3814C36.9048 71.396 39.9061 71.152 42.8861 70.6494C45.866 70.1451 48.78 69.3887 51.6265 68.3818C54.473 67.3733 57.2091 66.1306 59.8348 64.6487C62.4622 63.1685 64.9381 61.4735 67.2657 59.5639C78.785 50.1343 83.8668 37.9606 85.9951 30.753C103.995 35.6345 120.161 51.7056 120.776 73.7074C113.872 72.5021 97.2822 71.1813 82.1619 82.0878C63.8344 95.2473 62.7768 115.183 62.7768 119.123C61.576 118.783 60.3916 118.396 59.2237 117.962C58.0558 117.526 56.906 117.046 55.7776 116.519C54.6476 115.992 53.5422 115.421 52.46 114.806C51.3777 114.191 50.3218 113.532 49.2939 112.833C48.2644 112.133 47.2661 111.393 46.2992 110.614C45.3306 109.833 44.3966 109.017 43.4939 108.163C42.5928 107.307 41.728 106.419 40.8995 105.495C40.0709 104.571 39.2818 103.615 38.5307 102.629C37.7812 101.642 37.0712 100.627 36.4041 99.5823C35.7369 98.538 35.1126 97.4693 34.5328 96.3762C33.9529 95.2814 33.4192 94.1672 32.93 93.0302C32.4407 91.8932 31.9993 90.7399 31.6056 89.5671C31.2102 88.3959 30.8643 87.2101 30.5678 86.0113C30.2696 84.8108 30.0225 83.6006 29.8232 82.3823C29.6255 81.1623 29.4773 79.9374 29.3784 78.7061C29.2796 77.4747 29.2318 76.2417 29.2351 75.0055ZM77.2596 120.746C77.7374 115.686 80.0122 103.46 91.0885 95.1529C101.812 87.0962 113.575 87.9453 118.679 88.866C118.333 89.9656 117.944 91.0506 117.514 92.1209C117.084 93.1912 116.615 94.2453 116.104 95.2798C115.593 96.3144 115.043 97.3294 114.455 98.3232C113.867 99.3171 113.241 100.287 112.577 101.233C111.915 102.18 111.216 103.101 110.483 103.995C109.749 104.888 108.983 105.754 108.182 106.591C107.382 107.428 106.551 108.233 105.69 109.007C104.827 109.781 103.937 110.521 103.018 111.229C102.099 111.937 101.155 112.608 100.185 113.244C99.2145 113.88 98.2212 114.479 97.2048 115.04C96.1884 115.601 95.1523 116.125 94.0947 116.608C93.0388 117.091 91.9648 117.535 90.8743 117.937C89.7838 118.341 88.6802 118.702 87.5617 119.022C86.4432 119.343 85.3148 119.619 84.1749 119.855C83.0366 120.089 81.8885 120.281 80.7354 120.431C79.5806 120.58 78.4226 120.685 77.2596 120.746Z" fill="#6095BF"/>
</g>
</svg>
