<?xml version="1.0" standalone="no"?>
<!DOCTYPE svg PUBLIC "-//W3C//DTD SVG 20010904//EN"
 "http://www.w3.org/TR/2001/REC-SVG-20010904/DTD/svg10.dtd">
<svg version="1.0" xmlns="http://www.w3.org/2000/svg"
 width="360.000000pt" height="359.000000pt" viewBox="0 0 360.000000 359.000000"
 preserveAspectRatio="xMidYMid meet">

<g transform="translate(0.000000,359.000000) scale(0.100000,-0.100000)"
fill="#000000" stroke="none">
<path d="M880 3274 c-265 -56 -491 -237 -602 -481 -135 -299 -87 -694 125
-1010 117 -176 239 -300 632 -643 282 -247 522 -501 667 -707 l65 -92 59 87
c159 234 347 436 699 750 499 445 655 635 746 906 43 126 59 226 59 359 -1
294 -151 564 -401 720 -363 226 -847 143 -1108 -191 l-54 -69 -44 58 c-86 113
-232 223 -364 273 -146 55 -337 71 -479 40z m360 -189 c30 -8 93 -33 140 -57
l85 -42 -100 -17 c-126 -21 -197 -48 -290 -110 -188 -126 -305 -343 -305 -565
0 -333 204 -715 714 -1338 146 -178 211 -264 204 -271 -2 -2 -43 48 -91 110
-116 149 -302 338 -567 572 -489 432 -613 614 -650 954 -36 328 136 622 435
741 119 48 298 58 425 23z"/>
</g>
</svg>
