<svg width="150" height="150" viewBox="0 0 150 150" fill="none" xmlns="http://www.w3.org/2000/svg">
<mask id="mask0_187_2109" style="mask-type:luminance" maskUnits="userSpaceOnUse" x="0" y="0" width="150" height="150">
<path d="M0 0H150V150H0V0Z" fill="white"/>
</mask>
<g mask="url(#mask0_187_2109)">
<path d="M141.908 13.2179C136.358 6.30735 128.231 2.90947 118.398 3.37359C115.273 -1.88078 108.751 0.987018 105.558 2.42825C105.183 2.59435 104.823 2.76046 104.481 2.89237C104.071 3.07558 103.646 3.23924 103.201 3.40535C100.556 4.46795 97.2424 5.79192 96.0145 8.84293C95.2446 10.7654 95.4509 13.0029 96.6461 15.5068L96.7996 15.839C98.0123 18.3917 99.6679 19.9477 101.681 20.4631C102.194 20.595 102.69 20.6439 103.201 20.6439C105.865 20.6439 108.323 18.9388 110.371 17.5294C110.764 17.2631 111.141 16.9993 111.516 16.7501C111.823 16.5498 112.165 16.3349 112.508 16.1028C114.913 14.5614 118.876 12.0429 119.558 8.413C127.31 8.27865 133.421 10.9315 137.759 16.3349C146.279 26.9438 145.901 45.1106 141.941 57.4758C138.645 67.8038 133.132 76.0237 129.187 80.9971C126.95 80.4182 124.459 81.0631 122.819 82.8707C115.698 90.7437 98.0803 100.705 89.0651 105.364C80.1178 100.705 62.7038 90.7437 55.5833 82.8707C53.978 81.0973 51.555 80.4328 49.3509 80.9654C45.4081 75.9748 39.9105 67.7696 36.632 57.4758C32.6364 44.9957 32.2942 26.7606 40.9521 16.1688C45.1691 11.0145 51.0417 8.413 58.4013 8.3959C59.0656 12.0258 63.0435 14.5614 65.4514 16.0857C65.7936 16.3031 66.1358 16.5181 66.4428 16.733C66.8177 16.9822 67.2102 17.246 67.5851 17.5123C69.6181 18.9217 72.0939 20.6292 74.756 20.6292C75.2516 20.6292 75.7649 20.5608 76.2757 20.446C78.3087 19.9331 79.9467 18.3746 81.1595 15.839L81.3306 15.4897C82.5257 12.9858 82.7295 10.7483 81.9621 8.82583C80.7317 5.76017 77.4205 4.45085 74.7736 3.39069C74.3484 3.20749 73.9206 3.04138 73.4929 2.87527C73.1532 2.72626 72.7934 2.57725 72.4185 2.41115C69.2256 0.987019 62.7038 -1.89788 59.5788 3.33939C50.1032 3.05848 42.2655 6.3904 36.8358 13.02C29.7177 21.7382 25.3296 39.3432 31.63 59.0025C35.1978 70.1391 41.0201 78.8426 45.2371 84.1629C44.1098 86.3174 44.3841 89.0191 46.1252 90.9587C57.342 103.375 85.0343 117.165 86.1967 117.746L86.5892 117.944C87.4774 128.702 84.5235 137.273 78.1728 141.88C73.0324 145.611 66.4252 146.106 60.467 143.207C51.7261 138.947 46.5177 128.372 46.5001 114.878C46.5001 114.844 46.5001 114.829 46.5001 114.812V114.795C46.4825 105.298 42.6757 97.8546 36.0331 94.3566C31.1695 91.8039 25.6366 91.9382 21.2309 94.723C16.5535 97.6885 13.9921 103.175 13.9745 109.988C6.17203 111.248 0.196289 117.846 0.196289 125.768C0.196289 134.603 7.60621 141.78 16.6893 141.78C25.7725 141.78 33.1824 134.586 33.1824 125.768C33.1824 117.78 27.106 111.148 19.218 109.956C19.2331 104.917 20.9592 100.972 24.0993 98.9831C26.8494 97.2415 30.382 97.1755 33.5246 98.8341C38.4083 101.401 41.2239 107.22 41.2239 114.812C41.2239 130.544 47.3707 142.542 58.0767 147.765C61.3376 149.355 64.8375 150.134 68.2871 150.134C72.9142 150.134 77.4558 148.725 81.2802 145.957C89.0651 140.305 92.7688 130.211 91.8126 117.78L91.8655 117.746C93.043 117.165 121.06 103.375 132.277 90.9587C133.985 89.0704 134.274 86.4347 133.233 84.2948C137.467 78.9916 143.358 70.2221 146.943 59.0025C153.193 39.5093 148.908 21.9532 141.908 13.2179ZM114.042 6.27315L114.163 6.50521C114.863 7.94888 113.788 9.2069 109.622 11.8597C109.247 12.0918 108.887 12.3239 108.562 12.5388C108.152 12.8051 107.742 13.1031 107.317 13.384C105.951 14.3294 103.918 15.7559 103.032 15.5239C102.707 15.4408 102.159 14.9107 101.563 13.6674L101.409 13.3523C101.017 12.5388 100.624 11.4127 100.913 10.6994C101.324 9.67102 103.389 8.84293 105.216 8.11254C105.694 7.93178 106.154 7.73147 106.6 7.55071C106.957 7.4017 107.35 7.21849 107.742 7.05239C112.455 4.94673 113.479 5.08108 114.01 6.15834M63.7782 6.48811L63.9166 6.19009C64.1556 5.71131 64.4777 5.41085 65.1797 5.41085C66.0679 5.41085 67.5524 5.89208 70.1817 7.06949C70.5742 7.25269 70.9667 7.41636 71.3265 7.56781C71.7694 7.76567 72.2474 7.94888 72.7079 8.12964C74.5169 8.86003 76.5827 9.68812 77.0104 10.7165C77.2998 11.4298 76.8921 12.5559 76.4996 13.3694L76.3436 13.6991C75.7649 14.9254 75.2013 15.4579 74.8767 15.5385C73.9886 15.7706 71.9581 14.3294 70.5918 13.4011C70.1641 13.1031 69.754 12.8222 69.3438 12.5559C69.0042 12.341 68.6444 12.1089 68.2871 11.8768C64.138 9.2069 63.0787 7.96354 63.7782 6.48811ZM27.9414 125.768C27.9414 131.784 22.889 136.692 16.6893 136.692C10.4922 136.692 5.43985 131.784 5.43985 125.768C5.43985 119.751 10.4922 114.844 16.6893 114.844C22.889 114.844 27.9414 119.751 27.9414 125.768Z" fill="#6095BF"/>
</g>
<path d="M94.1878 47.9611C96.5428 48.8063 98.6086 48.1273 100.367 46.5517C102.861 44.3141 103.832 41.4634 103.424 38.1974C103.168 36.2261 102.315 34.5016 100.503 33.4243C99.8037 33.0115 98.9331 32.86 98.1305 32.5791C97.8235 32.5791 97.5166 32.5791 97.192 32.5791C97.1064 32.6133 97.0209 32.6451 96.9353 32.6622C95.7905 32.8112 94.7841 33.2582 93.8959 33.9397C90.8917 36.209 89.5078 40.3862 90.6023 43.933C91.181 45.7749 92.2579 47.265 94.1878 47.9611Z" fill="#6095BF"/>
<path d="M79.7077 32.5791C79.4007 32.5791 79.0938 32.5791 78.7692 32.5791C78.7189 32.5962 78.6509 32.6451 78.5981 32.6451C77.0104 32.8283 75.765 33.5904 74.8416 34.8338C73.5458 36.5901 73.1683 38.581 73.4602 40.6695C73.8527 43.486 75.1334 45.8237 77.6772 47.3822C80.3241 49.0066 83.4466 48.4595 85.223 46.0216C86.7075 43.999 86.9465 41.7297 86.4181 39.3749C85.8042 36.6903 84.4027 34.5187 81.8086 33.2435C81.1595 32.9284 80.4072 32.7941 79.7077 32.5791Z" fill="#6095BF"/>
<path d="M76.3285 57.957C77.7954 54.0608 75.8655 49.1215 72.1266 47.0671C68.8506 45.2595 65.2803 46.3881 63.8813 49.7029C63.607 50.3649 63.4888 51.0782 63.2825 51.7743C63.2825 52.3533 63.2825 52.9176 63.2825 53.4989C63.3177 53.6137 63.3529 53.731 63.368 53.8458C63.7278 56.2983 64.8022 58.3869 66.7497 59.9967C68.0807 61.1057 69.618 61.7872 71.3944 61.6871C73.8853 61.538 75.4906 60.1628 76.3285 57.957Z" fill="#6095BF"/>
<path d="M82.0123 53.8628C81.1594 55.0891 80.7165 56.4985 80.392 57.9227C79.9642 59.9135 79.2824 61.8018 77.9337 63.3774C76.9072 64.5548 75.7648 65.632 74.62 66.7093C72.8789 68.3337 71.6334 70.2073 71.3768 72.5939C71.2057 74.2672 71.6485 75.7426 73.0147 76.8198C74.8767 78.3124 77.0959 78.7594 79.4006 78.3295C83.2251 77.6162 87.0496 77.2009 90.9244 77.4501C93.1964 77.5991 95.4659 77.8654 97.7027 78.2464C99.4615 78.5444 101.12 78.4931 102.775 77.9142C105.166 77.0861 106.479 75.2785 106.343 72.909C106.257 71.3823 105.815 69.941 104.841 68.7319C104.003 67.6864 103.082 66.7093 102.076 65.8299C99.5823 63.6265 97.8915 61.0225 97.2775 57.759C97.124 56.9798 96.8674 56.2176 96.578 55.4701C95.3477 52.2726 92.3938 50.2988 88.8939 50.2988C85.9752 50.3159 83.6528 51.508 82.0123 53.8628Z" fill="#6095BF"/>
<path d="M102.041 60.2433C103.817 61.9679 106.632 62.1682 109.008 60.7758C112.233 58.9022 114.145 54.8399 113.464 51.2613C113.154 49.5856 112.437 48.1101 110.935 47.133C108.852 45.7578 106.685 45.9239 104.62 47.1501C101.545 48.9895 100.214 51.8085 100.043 54.8741C100.093 57.1288 100.624 58.8509 102.041 60.2433Z" fill="#6095BF"/>
<path d="M21.4875 125.768C21.4875 126.073 21.4573 126.376 21.3944 126.676C21.334 126.977 21.2434 127.268 21.1226 127.551C21.0018 127.834 20.8534 128.103 20.6798 128.357C20.5037 128.611 20.3049 128.846 20.0835 129.063C19.8595 129.278 19.618 129.471 19.3563 129.642C19.0946 129.81 18.8179 129.955 18.526 130.072C18.2341 130.189 17.9347 130.277 17.6252 130.336C17.3158 130.397 17.0063 130.426 16.6892 130.426C16.3747 130.426 16.0627 130.397 15.7533 130.336C15.4463 130.277 15.1444 130.189 14.855 130.072C14.5631 129.955 14.2864 129.81 14.0247 129.642C13.763 129.471 13.5215 129.278 13.2975 129.063C13.0736 128.846 12.8748 128.611 12.7012 128.357C12.5251 128.103 12.3792 127.834 12.2584 127.551C12.1376 127.268 12.047 126.977 11.9841 126.676C11.9237 126.376 11.8936 126.073 11.8936 125.768C11.8936 125.462 11.9237 125.159 11.9841 124.859C12.047 124.559 12.1376 124.268 12.2584 123.987C12.3792 123.704 12.5251 123.435 12.7012 123.181C12.8748 122.927 13.0736 122.69 13.2975 122.475C13.5215 122.257 13.763 122.064 14.0247 121.896C14.2864 121.725 14.5631 121.583 14.855 121.466C15.1444 121.349 15.4463 121.261 15.7533 121.2C16.0627 121.141 16.3747 121.109 16.6892 121.109C17.0063 121.109 17.3158 121.141 17.6252 121.2C17.9347 121.261 18.2341 121.349 18.526 121.466C18.8179 121.583 19.0946 121.725 19.3563 121.896C19.618 122.064 19.8595 122.257 20.0835 122.475C20.3049 122.69 20.5037 122.927 20.6798 123.181C20.8534 123.435 21.0018 123.704 21.1226 123.987C21.2434 124.268 21.334 124.559 21.3944 124.859C21.4573 125.159 21.4875 125.462 21.4875 125.768Z" fill="#6095BF"/>
</svg>
