<svg width="64" height="64" viewBox="0 0 64 64" fill="none" xmlns="http://www.w3.org/2000/svg">
<mask id="mask0_187_2041" style="mask-type:luminance" maskUnits="userSpaceOnUse" x="0" y="0" width="51" height="53">
<path d="M0 0H50.0876V52.9402H0V0Z" fill="white"/>
</mask>
<g mask="url(#mask0_187_2041)">
<path d="M50.0487 18.7698C50.0487 8.42729 42.6495 0.0131836 33.5552 0.0131836H16.4935C7.39918 0.0131836 0 8.42729 0 18.7698V23.8914C0 31.96 4.5119 39.1021 11.2271 41.6641L11.8869 41.9151L11.5386 42.6002C10.6432 44.3564 9.42575 47.1169 7.81902 51.037C7.62646 51.5068 7.71275 52.0699 8.03472 52.4381C8.3546 52.8016 8.86282 52.9032 9.26371 52.6928L28.5887 42.6492H33.5552C42.6495 42.6492 50.0487 34.2351 50.0487 23.8926V18.7698ZM47.8601 23.8914C47.8601 32.8626 41.4426 40.1625 33.5552 40.1625H28.3499C28.1941 40.1625 28.0374 40.2019 27.8953 40.2749L11.0872 49.0118L11.8143 47.3679C12.4793 45.8675 13.6809 43.2218 14.2586 42.3646L14.3238 42.2678L14.4154 42.2056C14.7026 42.0072 14.891 41.6784 14.9341 41.2994C15.0088 40.6395 14.6142 40.0322 14.0376 39.9162C7.17191 38.5509 2.18861 31.8117 2.18861 23.8926V18.7698C2.18861 9.79855 8.60608 2.49868 16.4935 2.49868H33.5541C41.4426 2.49868 47.859 9.79855 47.859 18.7698V23.8914H47.8601Z" fill="#6095BF"/>
</g>
<path d="M12.1321 18.2305C10.418 18.2305 9.0238 19.8145 9.0238 21.762C9.0238 23.7096 10.418 25.2948 12.1321 25.2948C13.8461 25.2948 15.2413 23.7096 15.2413 21.762C15.2413 19.8145 13.8461 18.2305 12.1321 18.2305Z" fill="#6095BF"/>
<path d="M37.9166 18.2305C36.2026 18.2305 34.8073 19.8145 34.8073 21.762C34.8073 23.7096 36.2026 25.2948 37.9166 25.2948C39.6307 25.2948 41.0249 23.7096 41.0249 21.762C41.0249 19.8145 39.6307 18.2305 37.9166 18.2305Z" fill="#6095BF"/>
<path d="M25.0238 18.2305C23.3097 18.2305 21.9155 19.8145 21.9155 21.762C21.9155 23.7096 23.3097 25.2948 25.0238 25.2948C26.7389 25.2948 28.1331 23.7096 28.1331 21.762C28.1331 19.8145 26.7389 18.2305 25.0238 18.2305Z" fill="#6095BF"/>
<mask id="mask1_187_2041" style="mask-type:luminance" maskUnits="userSpaceOnUse" x="19" y="11" width="45" height="53">
<path d="M19.649 11.3169H64V64.0001H19.649V11.3169Z" fill="white"/>
</mask>
<g mask="url(#mask1_187_2041)">
<path d="M22.167 48.2106L19.9142 49.3811C22.7878 52.1451 26.4916 53.8248 30.5405 53.8248H35.5059L54.8309 63.8684C55.2318 64.0788 55.7411 63.9772 56.0599 63.6138C56.3819 63.2456 56.4682 62.6825 56.2756 62.2126C54.6689 58.2925 53.4525 55.5332 52.5571 53.7758L52.2078 53.0908L52.8675 52.8397C59.5827 50.2777 64.0946 43.1356 64.0946 35.0682V29.9454C64.0946 20.8044 58.3085 13.1913 50.6862 11.5415C50.9788 12.4334 51.2155 13.3551 51.3986 14.2984C51.4018 14.2996 51.406 14.302 51.4102 14.3032C51.406 14.302 51.4007 14.2996 51.3965 14.2984C51.6743 15.739 51.8311 17.2358 51.8311 18.7732V23.8949C51.8311 35.3528 43.6343 44.6743 33.5572 44.6743H28.978M49.1605 52.4751V52.4739Z" fill="#6095BF"/>
</g>
</svg>
