<svg width="150" height="150" viewBox="0 0 150 150" fill="none" xmlns="http://www.w3.org/2000/svg">
<path d="M116.2 138.01C109.695 138.01 103.295 135.182 99.3277 129.916C92.9198 121.406 95.2585 109.704 104.544 103.833C113.829 97.9567 126.6 100.104 133.01 108.612C139.421 117.122 137.08 128.824 127.794 134.695C124.256 136.934 120.207 138.01 116.2 138.01ZM116.15 106.465C113.415 106.465 110.65 107.198 108.231 108.729C101.891 112.738 100.293 120.727 104.668 126.537C109.044 132.347 117.761 133.811 124.109 129.802C130.447 125.792 132.045 117.801 127.672 111.991C124.964 108.395 120.591 106.465 116.15 106.465Z" fill="#6095BF"/>
<mask id="mask0_187_2145" style="mask-type:luminance" maskUnits="userSpaceOnUse" x="82" y="55" width="68" height="95">
<path d="M82.3405 55.4976H150V150H82.3405V55.4976Z" fill="white"/>
</mask>
<g mask="url(#mask0_187_2145)">
<path d="M116.248 150.062C106.74 150.062 97.3379 146.395 90.8452 139.53C84.542 132.868 81.6173 124.072 82.8166 115.397C83.9985 106.869 89.0326 99.1654 96.6548 94.1849L85.7414 73.354C84.2827 70.5713 85.2352 67.2792 88.0078 65.5246L101.724 56.8477C103.22 55.9042 105.012 55.5409 106.818 55.8471C108.605 56.1463 110.161 57.067 111.193 58.4378L143.836 101.765C149.259 108.964 151.087 117.972 148.851 126.482C146.617 134.983 140.48 142.258 132.01 146.441C127.064 148.883 121.636 150.059 116.248 150.062ZM105.571 61.7025C105.514 61.7025 105.454 61.7139 105.411 61.7413L91.6955 70.4182C91.5733 70.4959 91.5259 70.6513 91.5932 70.7792L103.753 93.993C104.484 95.3889 103.925 97.0613 102.469 97.8449C101.823 98.1921 101.282 98.48 100.756 98.8113C94.4207 102.821 90.2294 109.14 89.257 116.147C88.2746 123.25 90.5785 130.17 95.7497 135.634C103.953 144.305 117.908 146.646 128.931 141.204C135.878 137.773 140.712 132.052 142.54 125.091C144.345 118.224 142.869 110.954 138.496 105.144L105.85 61.8167C105.795 61.7436 105.681 61.7025 105.571 61.7025Z" fill="#6095BF"/>
</g>
<path d="M34.2137 138.01C30.2044 138.01 26.1577 136.936 22.6171 134.695C13.3344 128.822 10.9931 117.12 17.406 108.612C20.5077 104.488 25.1803 101.722 30.5559 100.819C35.9391 99.9168 41.3746 100.986 45.8701 103.833C50.3681 106.677 53.3901 110.958 54.3724 115.884C55.3598 120.812 54.1904 125.794 51.0837 129.916C47.1193 135.182 40.7163 138.01 34.2137 138.01ZM34.2735 106.458C33.4283 106.458 32.5756 106.528 31.7253 106.67C28.0551 107.287 24.8636 109.176 22.7443 111.991C18.3684 117.801 19.9667 125.79 26.3048 129.802C32.6553 133.816 41.3671 132.347 45.7454 126.537C47.8648 123.725 48.6627 120.321 47.9895 116.958C47.3162 113.592 45.2567 110.67 42.1824 108.729C39.8212 107.234 37.081 106.458 34.2735 106.458Z" fill="#6095BF"/>
<mask id="mask1_187_2145" style="mask-type:luminance" maskUnits="userSpaceOnUse" x="0" y="55" width="69" height="95">
<path d="M0 55.4976H68.2979V150H0V55.4976Z" fill="white"/>
</mask>
<g mask="url(#mask1_187_2145)">
<path d="M34.1689 150.062C28.7808 150.062 23.3552 148.883 18.4059 146.441C9.93603 142.26 3.7974 134.983 1.56335 126.482C-0.673185 117.972 1.15694 108.964 6.57998 101.765L39.2229 58.4378C41.3573 55.6072 45.6059 54.899 48.6877 56.8477L62.4036 65.5224C65.1762 67.2747 66.1312 70.5713 64.6726 73.354L53.7617 94.185C61.3839 99.1677 66.4154 106.871 67.5973 115.397C68.7941 124.072 65.8719 132.868 59.5687 139.53C53.076 146.395 43.6761 150.062 34.1689 150.062ZM44.8255 61.6911C44.7233 61.6911 44.6235 61.7368 44.5637 61.819L11.9207 105.144C7.5449 110.954 6.06884 118.224 7.87403 125.091C9.70165 132.052 14.5363 137.773 21.4852 141.204C32.5133 146.646 46.4636 144.305 54.6643 135.634C59.8355 130.17 62.1393 123.25 61.157 116.147C60.1846 109.14 55.9932 102.821 49.6551 98.8113C49.144 98.4869 48.6129 98.2036 48.0843 97.918C46.6307 97.1367 45.9326 95.3867 46.6631 93.9931L58.8207 70.7792C58.888 70.649 58.8431 70.4982 58.716 70.4183L45.0025 61.7413C44.9477 61.7071 44.8853 61.6911 44.8255 61.6911Z" fill="#6095BF"/>
</g>
<path d="M60.5609 70.9437C59.9177 70.9437 59.2719 70.7678 58.7159 70.4183L45.0024 61.7414C44.2918 61.2936 43.8081 60.6059 43.6535 59.8314C43.4989 59.0547 43.6859 58.2551 44.1746 57.6062L61.8924 34.0931H61.8899C64.0766 31.1894 67.6072 29.2932 71.5741 28.8865C77.3811 28.2925 82.1284 24.5343 83.6643 19.3095C84.2278 17.3973 84.1755 15.1949 83.4948 12.1655C82.4501 7.51179 85.0831 2.84892 89.7606 1.07835C94.6127 -0.75618 100.078 -0.223868 104.394 2.50395L106.464 3.81074C109.85 5.95141 112.121 9.1727 112.861 12.8783C113.602 16.5839 112.724 20.3307 110.388 23.4332L91.1594 48.9544C88.9054 51.9473 86.1377 54.5494 82.9363 56.6924L62.4733 70.3726C61.9049 70.7541 61.2317 70.9437 60.5609 70.9437ZM51.3605 58.5383L60.5061 64.323L79.1115 51.8879C81.722 50.1402 83.9785 48.0155 85.8186 45.5755L105.047 20.0565C107.832 16.3509 106.818 11.2608 102.778 8.70664L100.709 7.39756C98.2155 5.82347 95.0465 5.51276 92.239 6.5751C90.4363 7.25591 89.434 9.10416 89.8553 10.9684C90.4089 13.4403 91.0222 17.1574 89.9326 20.8607C87.6936 28.4593 80.7721 33.9309 72.2947 34.7968C70.1953 35.0115 68.3527 35.9871 67.2332 37.472C67.2307 37.472 67.2307 37.472 67.2307 37.472L51.3605 58.5383Z" fill="#6095BF"/>
<path d="M58.9179 46.2471C57.8507 46.2471 56.8534 45.7674 56.2475 44.9609L40.0282 23.4331C35.2036 17.0316 36.9639 8.23137 43.9503 3.81066L46.0198 2.50387C50.3308 -0.226226 55.8062 -0.758538 60.6532 1.07828C65.3333 2.84885 67.9662 7.514 66.9215 12.1654C66.2408 15.1948 66.1885 17.3972 66.752 19.3094C68.0211 23.6227 71.5467 26.9948 76.1843 28.3336C77.5357 28.7242 78.4533 29.8734 78.4533 31.171C78.4533 32.4687 77.5357 33.6178 76.1843 34.0085C74.7482 34.422 73.514 34.671 72.2947 34.7967C70.1953 35.0115 68.3527 35.987 67.2332 37.472C67.2307 37.472 67.2307 37.472 67.2307 37.472L61.5883 44.9632C60.9824 45.7674 59.985 46.2471 58.9179 46.2471ZM54.759 5.95133C52.9812 5.95133 51.2184 6.44024 49.7049 7.39749L47.6379 8.70656C43.5987 11.2607 42.5814 16.3531 45.369 20.0542L58.9179 38.0386L61.8924 34.093C63.1441 32.4299 64.8371 31.0956 66.8019 30.1841C63.7874 27.7624 61.5708 24.5457 60.4837 20.8606C59.3941 17.1573 60.0075 13.4403 60.5635 10.9683C60.9824 9.10408 59.98 7.25584 58.1773 6.57503C57.0753 6.15695 55.9134 5.95133 54.759 5.95133Z" fill="#6095BF"/>
<path d="M89.8529 70.9436C89.1822 70.9436 88.509 70.754 87.938 70.3725L73.2946 60.5807C72.4568 60.0209 71.9631 59.1277 71.9631 58.1773C71.9631 57.2292 72.4568 56.3359 73.2946 55.7761L79.1066 51.8878C81.7246 50.1377 83.9811 48.0154 85.8187 45.5754L88.8257 41.5842C90.0325 39.9736 92.9547 39.9736 94.1664 41.5842L106.239 57.6061C106.728 58.2549 106.915 59.0545 106.76 59.8313C106.606 60.6058 106.122 61.2935 105.411 61.7435L91.6955 70.4182C91.142 70.7677 90.4962 70.9436 89.8529 70.9436ZM80.7123 58.1773L89.9078 64.3228L99.0534 58.5382L91.4961 48.5088L91.1595 48.9543C88.908 51.9426 86.1428 54.547 82.9364 56.69L80.7123 58.1773Z" fill="#6095BF"/>
<path d="M131.671 36.2541C129.879 36.2541 128.428 34.9222 128.428 33.2796V31.1503C128.428 29.5077 129.879 28.1758 131.671 28.1758C133.464 28.1758 134.918 29.5077 134.918 31.1503V33.2796C134.918 34.9222 133.464 36.2541 131.671 36.2541Z" fill="#6095BF"/>
<path d="M141.445 43.0761H139.119C137.326 43.0761 135.873 41.7441 135.873 40.1015C135.873 38.4589 137.326 37.127 139.119 37.127H141.445C143.236 37.127 144.689 38.4589 144.689 40.1015C144.689 41.7441 143.238 43.0761 141.445 43.0761Z" fill="#6095BF"/>
<path d="M131.671 52.0271C129.879 52.0271 128.428 50.6974 128.428 49.0548V46.9233C128.428 45.2807 129.879 43.9487 131.671 43.9487C133.464 43.9487 134.918 45.2807 134.918 46.9233V49.0548C134.918 50.6974 133.464 52.0271 131.671 52.0271Z" fill="#6095BF"/>
<path d="M124.229 43.0761H121.902C120.11 43.0761 118.656 41.7441 118.656 40.1015C118.656 38.4589 120.11 37.127 121.902 37.127H124.229C126.019 37.127 127.473 38.4589 127.473 40.1015C127.473 41.7441 126.021 43.0761 124.229 43.0761Z" fill="#6095BF"/>
<path d="M15.0972 44.1406C13.3045 44.1406 11.8534 42.8087 11.8534 41.1661V39.0368C11.8534 37.3942 13.3045 36.0623 15.0972 36.0623C16.89 36.0623 18.3436 37.3942 18.3436 39.0368V41.1661C18.3436 42.8087 16.89 44.1406 15.0972 44.1406Z" fill="#6095BF"/>
<path d="M24.8662 50.9624H22.5424C20.7496 50.9624 19.296 49.6305 19.296 47.9879C19.296 46.3453 20.7496 45.0156 22.5424 45.0156H24.8662C26.6589 45.0156 28.1125 46.3453 28.1125 47.9879C28.1125 49.6305 26.6614 50.9624 24.8662 50.9624Z" fill="#6095BF"/>
<path d="M15.0972 59.9136C13.3045 59.9136 11.8534 58.5839 11.8534 56.9413V54.8098C11.8534 53.1671 13.3045 51.8352 15.0972 51.8352C16.89 51.8352 18.3436 53.1671 18.3436 54.8098V56.9413C18.3436 58.5839 16.89 59.9136 15.0972 59.9136Z" fill="#6095BF"/>
<path d="M7.65211 50.9624H5.32581C3.53309 50.9624 2.07947 49.6305 2.07947 47.9879C2.07947 46.3453 3.53309 45.0156 5.32581 45.0156H7.65211C9.44483 45.0156 10.896 46.3453 10.896 47.9879C10.896 49.6305 9.44483 50.9624 7.65211 50.9624Z" fill="#6095BF"/>
</svg>
