<svg width="150" height="120" viewBox="0 0 150 120" fill="none" xmlns="http://www.w3.org/2000/svg">
<mask id="mask0_187_2088" style="mask-type:luminance" maskUnits="userSpaceOnUse" x="0" y="0" width="150" height="120">
<path d="M0 0H150V120H0V0Z" fill="white"/>
</mask>
<g mask="url(#mask0_187_2088)">
<path d="M149.795 96.5813C149.588 95.655 149.47 95.3382 149.331 94.8165L148.91 93.3498L145.521 81.5899L138.747 58.0648L137.055 52.1795L136.207 49.2355C135.775 47.7263 135.065 46.2916 134.13 45.0592C132.643 43.0628 130.566 41.6281 128.301 40.9493C128.331 39.653 128.232 38.3354 127.976 37.0285C127.416 34.1803 126.086 31.4067 124.128 29.2506C123.625 28.7289 123.141 28.1673 122.572 27.7414C122.019 27.2835 121.459 26.8177 120.847 26.477L119.932 25.9367C119.626 25.7557 119.303 25.6385 118.988 25.4895L118.033 25.0742C117.707 24.9465 117.382 24.8613 117.059 24.7548C115.404 24.2358 113.712 24.0122 112.057 24.0122C110.816 21.7496 109.111 19.8997 107.242 18.4649C105.656 17.2751 103.924 16.3621 102.092 15.7579C101.384 14.4083 100.587 13.0907 99.6891 11.8477C98.2634 9.91253 96.6379 8.09718 94.788 6.54534C92.9455 4.9722 90.8982 3.6546 88.703 2.67772C86.5176 1.67954 84.2039 0.998111 81.8409 0.678693C77.1248 -7.01134e-05 72.2608 0.638766 67.7814 2.65642C65.5467 3.6759 63.4181 5.08932 61.5188 6.92864C60.4557 7.94811 59.4715 9.14859 58.6428 10.5088C57.0494 10.1148 55.3943 9.93383 53.7614 10.0297C50.9249 10.1787 48.1278 11.0278 45.6883 12.5477C43.2464 14.057 41.1177 16.2024 39.6526 18.8483C38.8337 20.2936 38.2343 21.9093 37.889 23.565C36.0884 23.7034 34.3248 24.1506 32.682 24.84C30.8296 25.5853 29.1178 26.7219 27.6108 28.1034C26.0839 29.4636 24.7939 31.1618 23.8394 33.065C22.5395 35.4873 21.9598 38.2609 21.9401 40.9493C19.6758 41.6281 17.5965 43.0734 16.0918 45.0698C15.157 46.3022 14.4466 47.7582 14.0224 49.2568L13.1763 52.2008L11.4843 58.0754L4.70858 81.6006L1.32197 93.3605L0.900187 94.8271C0.762058 95.3489 0.643662 95.6763 0.43647 96.6026C0.0812826 98.1837 0.0122185 99.8633 0.24901 101.49C0.70286 104.74 2.33574 107.769 4.78751 109.776C6.00847 110.787 7.42675 111.519 8.89437 111.945C9.06209 111.988 9.30875 112.073 9.39508 112.084L9.75027 112.166L10.4606 112.337L11.8765 112.667L17.5373 113.984C21.3383 114.727 25.1195 115.589 28.9501 116.183C44.2108 118.85 59.6689 120.072 75.1245 120.168C90.5825 120.072 106.041 118.85 121.301 116.183C125.122 115.589 128.913 114.727 132.712 113.984L138.375 112.667L139.791 112.337L140.501 112.166L140.854 112.084C140.952 112.062 141.199 111.988 141.367 111.935C142.834 111.509 144.25 110.766 145.471 109.765C147.923 107.758 149.549 104.729 150.002 101.479C150.207 99.842 150.138 98.1651 149.795 96.5813ZM35.23 32.3011C36.3622 31.9178 37.5338 31.6622 38.6758 31.6516C39.2481 31.6729 39.8203 31.6835 40.3605 31.7794C40.9031 31.8858 41.4137 32.0455 41.907 32.2372C43.8754 33.0118 45.3529 34.6488 46.3272 36.9752L46.4258 37.2095C46.5639 37.5369 46.7514 37.8456 46.9759 38.1331C48.2856 39.7701 50.5795 39.9485 52.0965 38.5377C52.8241 37.8563 53.6332 37.3798 54.4891 37.1349C55.345 36.89 56.2601 36.9113 57.148 37.1775C58.9289 37.7179 60.4952 39.3442 61.3313 41.7133L61.3905 41.873C61.8444 43.148 63.0752 43.9545 64.3652 43.7336C65.8501 43.478 66.854 41.9688 66.6197 40.3637C66.3138 38.3461 65.5961 36.3044 64.385 34.521C63.1739 32.7456 61.4793 31.2576 59.511 30.3766C57.5402 29.4742 55.3055 29.1867 53.1694 29.5913C52.5207 29.7085 51.8794 29.8762 51.2603 30.1104C50.8558 29.4955 50.4019 28.8993 49.9012 28.3483C48.4336 26.6793 46.5837 25.3724 44.603 24.5445C44.3588 24.4487 44.1023 24.3529 43.8556 24.2677C44.1319 23.6395 44.4674 23.0459 44.8595 22.4816C45.893 20.9937 47.3015 19.7825 48.8875 18.9654C50.471 18.1588 52.2149 17.7117 53.9365 17.733C55.6607 17.7542 57.3651 18.1588 58.9486 18.9654C58.9782 18.9867 59.0276 19.008 59.067 19.0186C60.9293 19.889 63.0851 18.9654 63.8818 16.9584L63.9903 16.6815C64.5108 15.3639 65.3494 14.0463 66.5506 12.931C67.7321 11.8051 69.1775 10.8788 70.7438 10.1361C73.8838 8.66947 77.4874 8.15041 80.9628 8.49911C82.7067 8.69076 84.4284 9.106 86.0835 9.74218C87.7385 10.381 89.3221 11.2621 90.8094 12.3241C91.9514 13.1653 93.0441 14.1102 94.0678 15.1616C93.831 15.2042 93.6065 15.2575 93.3697 15.3213C91.7443 15.7366 90.1607 16.4686 88.7819 17.4987C87.3932 18.5288 86.2216 19.8251 85.2769 21.2279C84.6553 22.1755 84.1743 23.1631 83.7698 24.1719C83.4541 24.1932 83.1408 24.2145 82.8251 24.2571C81.5943 24.4594 80.3832 24.8187 79.2905 25.4043C77.0854 26.5515 75.3514 28.3376 74.0811 30.302C73.6396 30.9835 73.6396 31.9284 74.1304 32.6285C74.7421 33.4909 75.8842 33.6479 76.6809 32.9905L76.7894 32.8947C78.2274 31.6942 79.6556 30.696 81.1306 30.1317C82.6081 29.5807 84.125 29.4316 85.6197 29.751C87.117 30.0359 88.5944 30.7705 89.9141 31.7794C91.2337 32.8095 92.3757 34.1271 93.2316 35.647L93.3105 35.796C93.7151 36.4961 94.5019 36.8794 95.2887 36.6771C96.263 36.4216 96.8649 35.3595 96.6281 34.3081C96.0583 31.7794 94.6992 29.5594 92.9356 27.8479C92.0106 26.9348 90.9574 26.1682 89.8154 25.564C89.8845 25.4788 89.9535 25.4043 90.0226 25.3191C90.7009 24.5765 91.431 23.9696 92.2178 23.5224C92.9948 23.0566 93.8606 22.801 94.7485 22.6626C95.634 22.5136 96.5689 22.5242 97.5136 22.6733C99.3956 22.9395 101.265 23.8205 102.822 25.0316C104.376 26.2534 105.52 27.8798 106.07 29.5062L106.09 29.5807C106.692 31.3535 108.354 32.5007 110.157 32.2478C111.879 32.0029 113.554 32.0668 115.098 32.4368C116.634 32.8308 118.023 33.5761 119.165 34.6488C120.287 35.7322 121.203 37.1136 121.726 38.7586C121.943 39.4294 122.098 40.1295 122.197 40.8535L119.666 41.4471C105.037 44.8169 90.0818 46.5258 75.0751 46.8559C60.0808 46.5258 45.1161 44.8169 30.4843 41.4471L27.9857 40.8641C28.2595 39.3549 28.7824 37.9734 29.5791 36.7729C30.9184 34.702 32.9854 33.1395 35.23 32.3011ZM142.43 100.84C142.312 101.671 141.87 102.456 141.268 102.935C140.962 103.18 140.629 103.337 140.254 103.443C140.185 103.465 140.205 103.465 140.067 103.497L139.712 103.571L139.014 103.731L137.615 104.05L132.014 105.304C128.252 106.004 124.51 106.824 120.731 107.375C113.189 108.671 105.597 109.555 97.997 110.212C90.3852 110.87 82.756 111.093 75.1245 111.157C67.4953 111.093 59.8637 110.87 52.2543 110.212C44.6523 109.555 37.0528 108.671 29.5199 107.375C25.7411 106.824 21.9993 106.004 18.2378 105.304L12.6362 104.05L11.2376 103.731L10.5371 103.571L10.1844 103.497C10.0364 103.465 10.066 103.454 9.99693 103.443C9.62201 103.348 9.28902 103.18 8.98316 102.935C8.38132 102.456 7.9398 101.671 7.8214 100.851C7.76221 100.438 7.77207 100.023 7.86087 99.6078C7.86087 99.5226 8.04833 98.8651 8.17412 98.3966L8.58851 96.89L11.8666 84.84L18.4154 60.7532L20.0482 54.7295L20.8671 51.7217C20.9954 51.2452 21.1903 50.8513 21.4566 50.468C21.9796 49.736 22.8157 49.193 23.7111 49.0652C23.938 49.0226 24.165 49.012 24.3919 49.0226C24.5004 49.0332 24.6163 49.0332 24.7249 49.0545L24.8926 49.0865L25.228 49.161L28.1411 49.7786C43.6583 52.8476 59.4321 54.5805 75.1541 54.2611C90.8785 54.5805 106.652 52.8476 122.167 49.7786L125.092 49.161L125.438 49.0865L125.593 49.0545C125.692 49.0439 125.8 49.0332 125.909 49.0226C126.146 49.012 126.373 49.0332 126.599 49.0652C127.485 49.2036 128.321 49.7253 128.854 50.4786C129.118 50.8513 129.315 51.2772 129.443 51.7323L130.26 54.7402L131.895 60.7639L138.442 84.8506L141.722 96.89L142.134 98.3966C142.262 98.8651 142.45 99.5332 142.45 99.6184C142.479 100.012 142.489 100.428 142.43 100.84Z" fill="#6095BF"/>
</g>
<path d="M75.4896 79.5803C68.9334 79.5803 60.732 87.9118 61.9925 94.6036C63.8917 104.665 71.5208 101.074 75.4896 101.074C80.4129 101.074 86.3302 105.432 88.9892 94.6036C90.6023 88.0076 80.7187 79.5803 75.4896 79.5803Z" fill="#6095BF"/>
<path d="M62.7496 81.2917C62.7496 81.7255 62.7176 82.1541 62.651 82.58C62.5868 83.0059 62.4906 83.4185 62.3624 83.8204C62.2341 84.2223 62.0763 84.603 61.8913 84.9623C61.7063 85.3243 61.4941 85.657 61.2598 85.9632C61.023 86.2719 60.764 86.5461 60.4878 86.7857C60.2091 87.0279 59.9155 87.2302 59.6072 87.3979C59.2989 87.5629 58.9807 87.688 58.6526 87.7732C58.3246 87.8584 57.9941 87.901 57.6586 87.901C57.3256 87.901 56.9951 87.8584 56.6671 87.7732C56.339 87.688 56.0208 87.5629 55.7125 87.3979C55.4017 87.2302 55.1082 87.0279 54.8319 86.7857C54.5532 86.5461 54.2967 86.2719 54.0599 85.9632C53.8231 85.657 53.6134 85.3243 53.426 84.9623C53.241 84.603 53.0856 84.2223 52.9573 83.8204C52.8291 83.4185 52.7329 83.0059 52.6663 82.58C52.6021 82.1541 52.5701 81.7255 52.5701 81.2917C52.5701 80.8578 52.6021 80.4266 52.6663 80.0007C52.7329 79.5775 52.8291 79.1622 52.9573 78.7629C53.0856 78.361 53.241 77.9804 53.426 77.6184C53.6134 77.259 53.8231 76.9263 54.0599 76.6175C54.2967 76.3114 54.5532 76.0372 54.8319 75.795C55.1082 75.5554 55.4017 75.3505 55.7125 75.1855C56.0208 75.0204 56.339 74.8953 56.6671 74.8101C56.9951 74.725 57.3256 74.6824 57.6586 74.6824C57.9941 74.6824 58.3246 74.725 58.6526 74.8101C58.9807 74.8953 59.2989 75.0204 59.6072 75.1855C59.9155 75.3505 60.2091 75.5554 60.4878 75.795C60.764 76.0372 61.023 76.3114 61.2598 76.6175C61.4941 76.9263 61.7063 77.259 61.8913 77.6184C62.0763 77.9804 62.2341 78.361 62.3624 78.7629C62.4906 79.1622 62.5868 79.5775 62.651 80.0007C62.7176 80.4266 62.7496 80.8578 62.7496 81.2917Z" fill="#6095BF"/>
<path d="M72.9193 70.6659C72.9193 71.0998 72.8872 71.531 72.8231 71.9569C72.7565 72.3801 72.6603 72.7954 72.5321 73.1947C72.4038 73.5966 72.2484 73.9772 72.0634 74.3392C71.876 74.6986 71.6663 75.034 71.4295 75.3401C71.1927 75.6462 70.9362 75.9204 70.6575 76.1626C70.3787 76.4021 70.0877 76.6071 69.7769 76.7721C69.4686 76.9372 69.1504 77.0623 68.8223 77.1475C68.4943 77.2326 68.1638 77.2752 67.8308 77.2752C67.4953 77.2752 67.1648 77.2326 66.8367 77.1475C66.5087 77.0623 66.1905 76.9372 65.8822 76.7721C65.5738 76.6071 65.2803 76.4021 65.0016 76.1626C64.7229 75.9204 64.4664 75.6462 64.2296 75.3401C63.9952 75.034 63.7831 74.6986 63.5981 74.3392C63.4107 73.9772 63.2553 73.5966 63.127 73.1947C62.9987 72.7954 62.9025 72.3801 62.8384 71.9569C62.7718 71.531 62.7397 71.0998 62.7397 70.6659C62.7397 70.2321 62.7718 69.8035 62.8384 69.3776C62.9025 68.9517 62.9987 68.5391 63.127 68.1372C63.2553 67.7353 63.4107 67.3546 63.5981 66.9953C63.7831 66.6333 63.9952 66.3006 64.2296 65.9944C64.4664 65.6857 64.7229 65.4115 65.0016 65.1719C65.2803 64.9297 65.5738 64.7274 65.8822 64.5597C66.1905 64.3947 66.5087 64.2696 66.8367 64.1844C67.1648 64.0992 67.4953 64.0566 67.8308 64.0566C68.1638 64.0566 68.4943 64.0992 68.8223 64.1844C69.1504 64.2696 69.4686 64.3947 69.7769 64.5597C70.0877 64.7274 70.3787 64.9297 70.6575 65.1719C70.9362 65.4115 71.1927 65.6857 71.4295 65.9944C71.6663 66.3006 71.876 66.6333 72.0634 66.9953C72.2484 67.3546 72.4038 67.7353 72.5321 68.1372C72.6603 68.5391 72.7565 68.9517 72.8231 69.3776C72.8872 69.8035 72.9193 70.2321 72.9193 70.6659Z" fill="#6095BF"/>
<path d="M97.642 81.2917C97.642 81.7255 97.6099 82.1541 97.5458 82.58C97.4792 83.0059 97.383 83.4185 97.2547 83.8204C97.1265 84.2223 96.9711 84.603 96.7836 84.9623C96.5986 85.3243 96.3889 85.657 96.1522 85.9632C95.9154 86.2719 95.6588 86.5461 95.3801 86.7857C95.1014 87.0279 94.8079 87.2302 94.4995 87.3979C94.1912 87.5629 93.873 87.688 93.545 87.7732C93.2169 87.8584 92.8864 87.901 92.5534 87.901C92.218 87.901 91.8874 87.8584 91.5594 87.7732C91.2313 87.688 90.9131 87.5629 90.6048 87.3979C90.2965 87.2302 90.003 87.0279 89.7243 86.7857C89.4455 86.5461 89.189 86.2719 88.9522 85.9632C88.7179 85.657 88.5058 85.3243 88.3208 84.9623C88.1333 84.603 87.9779 84.2223 87.8497 83.8204C87.7214 83.4185 87.6252 83.0059 87.5611 82.58C87.4945 82.1541 87.4624 81.7255 87.4624 81.2917C87.4624 80.8578 87.4945 80.4266 87.5611 80.0007C87.6252 79.5775 87.7214 79.1622 87.8497 78.7629C87.9779 78.361 88.1333 77.9804 88.3208 77.6184C88.5058 77.259 88.7179 76.9263 88.9522 76.6175C89.189 76.3114 89.4455 76.0372 89.7243 75.795C90.003 75.5554 90.2965 75.3505 90.6048 75.1855C90.9131 75.0204 91.2313 74.8953 91.5594 74.8101C91.8874 74.725 92.218 74.6824 92.5534 74.6824C92.8864 74.6824 93.2169 74.725 93.545 74.8101C93.873 74.8953 94.1912 75.0204 94.4995 75.1855C94.8079 75.3505 95.1014 75.5554 95.3801 75.795C95.6588 76.0372 95.9154 76.3114 96.1522 76.6175C96.3889 76.9263 96.5986 77.259 96.7836 77.6184C96.9711 77.9804 97.1265 78.361 97.2547 78.7629C97.383 79.1622 97.4792 79.5775 97.5458 80.0007C97.6099 80.4266 97.642 80.8578 97.642 81.2917Z" fill="#6095BF"/>
<path d="M87.4723 70.6659C87.4723 71.0998 87.4402 71.531 87.3736 71.9569C87.3095 72.3801 87.2133 72.7954 87.085 73.1947C86.9568 73.5966 86.7989 73.9772 86.6139 74.3392C86.4289 74.6986 86.2168 75.034 85.98 75.3401C85.7457 75.6462 85.4867 75.9204 85.2104 76.1626C84.9317 76.4021 84.6382 76.6071 84.3299 76.7721C84.0215 76.9372 83.7034 77.0623 83.3753 77.1475C83.0473 77.2326 82.7167 77.2752 82.3813 77.2752C82.0483 77.2752 81.7178 77.2326 81.3897 77.1475C81.0617 77.0623 80.7435 76.9372 80.4351 76.7721C80.1244 76.6071 79.8308 76.4021 79.5546 76.1626C79.2759 75.9204 79.0193 75.6462 78.7825 75.3401C78.5457 75.034 78.3361 74.6986 78.1486 74.3392C77.9636 73.9772 77.8082 73.5966 77.68 73.1947C77.5517 72.7954 77.4555 72.3801 77.3889 71.9569C77.3248 71.531 77.2927 71.0998 77.2927 70.6659C77.2927 70.2321 77.3248 69.8035 77.3889 69.3776C77.4555 68.9517 77.5517 68.5391 77.68 68.1372C77.8082 67.7353 77.9636 67.3546 78.1486 66.9953C78.3361 66.6333 78.5457 66.3006 78.7825 65.9944C79.0193 65.6857 79.2759 65.4115 79.5546 65.1719C79.8308 64.9297 80.1244 64.7274 80.4351 64.5597C80.7435 64.3947 81.0617 64.2696 81.3897 64.1844C81.7178 64.0992 82.0483 64.0566 82.3813 64.0566C82.7167 64.0566 83.0473 64.0992 83.3753 64.1844C83.7034 64.2696 84.0215 64.3947 84.3299 64.5597C84.6382 64.7274 84.9317 64.9297 85.2104 65.1719C85.4867 65.4115 85.7457 65.6857 85.98 65.9944C86.2168 66.3006 86.4289 66.6333 86.6139 66.9953C86.7989 67.3546 86.9568 67.7353 87.085 68.1372C87.2133 68.5391 87.3095 68.9517 87.3736 69.3776C87.4402 69.8035 87.4723 70.2321 87.4723 70.6659Z" fill="#6095BF"/>
</svg>
