<svg width="150" height="150" viewBox="0 0 150 150" fill="none" xmlns="http://www.w3.org/2000/svg">
<path d="M40.5675 142.3L38.864 144.525C38.4152 145.112 38.2491 145.819 38.3979 146.516C38.5442 147.214 38.9905 147.819 39.6476 148.218C40.3072 148.618 41.1031 148.766 41.8867 148.636C42.6702 148.503 43.3497 148.106 43.7985 147.521L45.5788 145.196C44.9019 144.805 44.2126 144.408 43.5232 144.008L40.5675 142.3Z" fill="#6095BF"/>
<path d="M13.0587 123.369C13.9688 124.135 15.3821 124.17 16.3442 123.452L26.4536 115.904C27.0487 115.461 27.371 114.807 27.3314 114.114C27.2942 113.421 26.9024 112.796 26.2552 112.401C20.1182 108.661 12.2653 102.813 9.71128 96.183C7.07297 89.3325 8.38717 82.8595 9.5749 79.272C8.67728 79.7113 7.79206 80.2014 6.92172 80.7423C3.02625 83.1619 0.603678 87.8312 0.097838 93.887C-0.779943 104.429 4.30573 116.001 13.0587 123.369Z" fill="#6095BF"/>
<path d="M42.1991 125.843C42.0999 125.419 41.8173 125.053 41.4081 124.817L38.6087 123.198C36.8506 125.671 34.4132 128.115 31.3707 130.334C29.3076 131.835 27.1553 133.093 24.9956 134.082L31.7848 138.008C32.6328 138.498 33.7685 138.282 34.3165 137.529L41.9462 127.071C42.2115 126.704 42.3008 126.269 42.1991 125.843Z" fill="#6095BF"/>
<path d="M37.5944 110.429C36.2033 108.915 33.9989 108.113 31.2218 108.113C29.5034 108.113 27.6065 108.422 25.6501 109.007C26.4213 109.515 27.1527 109.974 27.8098 110.376C28.3132 110.683 28.7422 111.056 29.0893 111.478C29.8456 111.352 30.5622 111.284 31.2218 111.284C32.9005 111.284 34.1552 111.681 34.847 112.432C36.6695 114.416 35.0602 120.388 27.3734 125.987C22.325 129.667 17.4624 130.978 14.596 130.978C12.9148 130.978 11.6626 130.581 10.9708 129.828C10.0583 128.835 10.0509 127.044 10.9212 124.938C9.98642 124.137 9.09128 123.291 8.2383 122.404C6.2075 126.157 6.17279 129.603 8.22094 131.833C9.61448 133.347 11.8189 134.146 14.596 134.146C19.1659 134.146 24.6434 132.065 29.6249 128.435C37.8597 122.435 41.3609 114.524 37.5944 110.429Z" fill="#6095BF"/>
<mask id="mask0_187_2208" style="mask-type:luminance" maskUnits="userSpaceOnUse" x="37" y="127" width="40" height="23">
<path d="M37.2944 127.729H76.016V150H37.2944V127.729Z" fill="white"/>
</mask>
<g mask="url(#mask0_187_2208)">
<path d="M68.8449 127.87C67.9349 129.067 67.4985 130.453 67.5208 132.071C69.5913 133.442 70.9352 135.637 70.9352 138.105C70.9352 142.249 67.1489 145.62 62.4946 145.62C57.8404 145.62 54.0541 142.249 54.0541 138.105C54.0541 137.869 54.0665 137.637 54.0913 137.407C51.3116 136.493 49.4693 134.91 48.5989 132.687L43.3471 129.652L37.5349 137.622L54.3095 147.32C54.6963 147.543 54.979 147.706 55.1872 147.843L55.1947 147.832C57.3569 149.121 59.8811 149.801 62.4946 149.801C69.7376 149.801 75.6316 144.556 75.6316 138.105C75.6316 133.705 72.8892 129.868 68.8449 127.87Z" fill="#6095BF"/>
</g>
<path d="M127.331 14.4669C117.455 18.3635 107.083 27.9758 102.697 32.3405C109.996 31.7863 127.619 30.0158 137.166 25.3972C144.014 22.0835 147.205 17.7696 148.676 14.7341C149.075 13.9106 149.39 13.0827 149.626 12.2658C146.491 11.6344 137.55 10.4357 127.331 14.4669Z" fill="#6095BF"/>
<mask id="mask1_187_2208" style="mask-type:luminance" maskUnits="userSpaceOnUse" x="91" y="0" width="59" height="33">
<path d="M91.8854 0H150V32.2148H91.8854V0Z" fill="white"/>
</mask>
<g mask="url(#mask1_187_2208)">
<path d="M149.35 5.38016C147.166 1.37981 137.58 -2.79937 121.16 3.01351C107.108 7.98746 95.2427 22.0638 92.4333 25.5917L99.3985 31.9587C102.853 28.3822 114.613 16.8028 126.213 12.2262C137.093 7.93447 146.461 9.10235 150.094 9.83531C150.248 8.13538 150.007 6.58336 149.35 5.38016Z" fill="#6095BF"/>
</g>
<path d="M118.526 67.0899C113.22 63.0056 106.012 61.2859 99.654 59.767C92.5425 58.0692 86.4005 56.6033 85.0194 52.1725C83.9408 48.7152 85.9592 44.3704 91.02 39.2618C93.4575 36.798 95.9991 34.7736 97.4398 33.683L90.5216 27.3601C86.1774 30.4023 68.5325 43.5403 71.6965 54.1197C73.6281 60.575 83.0927 63.7563 92.245 66.8338C100.51 69.6111 108.315 72.236 111.457 77.2696C114.051 81.4245 114.016 85.926 111.36 89.9418C107.103 96.3883 97.0033 100.391 85.0045 100.391C69.5987 100.391 60.6498 93.5337 52.7523 87.4846C50.0222 85.3939 47.4434 83.4181 44.6687 81.7247C36.3695 76.6603 24.0979 73.9868 13.0513 77.8215C12.419 79.2367 10.5097 84.0848 11.0428 89.8866C14.2117 88.7364 18.2287 87.7032 22.4316 87.7032C23.602 87.7032 24.7848 87.7849 25.97 87.9637C30.5027 88.6525 36.1959 92.0347 43.4017 96.3177C55.0062 103.21 69.4475 111.789 85.3541 112.608C105.295 113.633 118.43 108.131 124.388 96.2426C128.499 88.0388 129.432 75.4814 118.526 67.0899Z" fill="#6095BF"/>
<path d="M51.2668 132.038C51.862 133.402 53.0249 134.387 54.8003 135.021C56.1244 132.411 59.0727 130.59 62.4945 130.59C63.3029 130.59 64.0839 130.694 64.8229 130.883C64.9816 129.424 65.4651 128.095 66.271 126.903C65.0733 126.583 63.8062 126.408 62.4945 126.408C57.8924 126.408 53.6473 128.554 51.2668 132.038Z" fill="#6095BF"/>
</svg>
