<svg width="169" height="135" viewBox="0 0 169 135" fill="none" xmlns="http://www.w3.org/2000/svg">
<path d="M4.92477 108.899C5.17671 109.116 5.42138 109.315 5.65394 109.501C5.42138 109.684 5.17671 109.885 4.92477 110.103C-1.88726 116.004 -0.746266 124.084 3.19754 129.092C5.81383 132.418 10.1695 135 15.121 135C16.4655 134.988 17.7833 134.803 19.0769 134.446C20.3681 134.091 21.5866 133.576 22.7276 132.901C26.4776 130.77 29.358 127.178 31.3032 122.22H60.7825C62.7326 123.983 64.8183 125.581 67.047 127.014C69.2733 128.449 71.611 129.701 74.0553 130.767C76.502 131.836 79.0238 132.706 81.6207 133.379C84.2176 134.052 86.8581 134.517 89.5374 134.775C89.7675 134.798 89.9928 134.778 90.2157 134.714C90.4385 134.652 90.6396 134.549 90.8189 134.411C90.9981 134.272 91.1435 134.105 91.2525 133.912C91.3615 133.718 91.4269 133.512 91.4511 133.292C91.4754 133.075 91.4511 132.86 91.3857 132.649C91.3179 132.438 91.2113 132.248 91.0635 132.079C90.9158 131.91 90.7413 131.772 90.5354 131.669C90.3319 131.564 90.1139 131.502 89.8838 131.479C87.7157 131.271 85.5766 130.916 83.4642 130.413C81.3518 129.911 79.2878 129.268 77.2747 128.485C75.2592 127.7 73.314 126.785 71.439 125.736C69.564 124.686 67.7786 123.514 66.0829 122.22H89.7239C91.6667 127.178 94.5495 130.77 98.2971 132.901C106.144 137.364 113.922 134.054 117.827 129.092C121.771 124.084 122.912 116.004 116.1 110.103C115.848 109.885 115.603 109.684 115.371 109.501C115.603 109.315 115.848 109.116 116.1 108.896C122.912 102.995 121.771 94.9153 117.827 89.9071C113.922 84.9446 106.144 81.637 98.2971 86.0982C94.5495 88.2316 91.6667 91.8207 89.7239 96.7786H31.3008C29.3555 91.8207 26.4752 88.2316 22.7276 86.0982C21.3638 85.2948 19.9006 84.718 18.3357 84.3724C16.7732 84.0244 15.1913 83.9237 13.5924 84.0702C13.3647 84.0954 13.1491 84.1595 12.9456 84.2648C12.7446 84.3724 12.5701 84.5097 12.4248 84.6814C12.2819 84.8508 12.1777 85.043 12.1123 85.2536C12.0493 85.4619 12.0275 85.6771 12.0542 85.8945C12.0784 86.112 12.1462 86.318 12.2576 86.5103C12.3691 86.7002 12.512 86.865 12.6937 87.0047C12.873 87.142 13.074 87.2404 13.2945 87.3022C13.5173 87.3663 13.7426 87.3846 13.9728 87.3618C16.3226 87.1191 18.6627 87.6502 20.9277 88.9389C24.2199 90.8112 26.7344 94.1806 28.4035 98.9554C28.4617 99.1202 28.544 99.2735 28.653 99.4132C28.762 99.5551 28.8904 99.6764 29.0406 99.7771C29.1884 99.8801 29.3507 99.9579 29.5251 100.011C29.6995 100.063 29.8788 100.091 30.0629 100.091H90.9618C91.1435 100.091 91.3227 100.063 91.4996 100.011C91.674 99.9579 91.8363 99.8801 91.9841 99.7771C92.1343 99.6764 92.2627 99.5551 92.3717 99.4132C92.4783 99.2735 92.5631 99.1202 92.6212 98.9554C94.2879 94.1806 96.8048 90.8112 100.097 88.9389C106.112 85.5168 111.928 87.9546 115.022 91.887C118.157 95.8676 118.973 101.917 113.738 106.454C113.052 107.056 112.314 107.594 111.521 108.065C111.388 108.139 111.269 108.226 111.16 108.329C111.051 108.432 110.959 108.546 110.882 108.672C110.807 108.798 110.749 108.931 110.707 109.07C110.669 109.21 110.649 109.352 110.649 109.498C110.649 109.643 110.669 109.784 110.707 109.926C110.746 110.066 110.804 110.199 110.879 110.325C110.957 110.451 111.049 110.565 111.156 110.668C111.265 110.771 111.386 110.86 111.517 110.931C112.311 111.403 113.052 111.943 113.738 112.547C118.975 117.084 118.157 123.131 115.022 127.112C111.926 131.044 106.11 133.484 100.097 130.062C96.8048 128.19 94.2879 124.818 92.6212 120.044C92.5631 119.879 92.4783 119.725 92.3717 119.586C92.2627 119.446 92.1343 119.325 91.9841 119.222C91.8363 119.121 91.674 119.043 91.4996 118.988C91.3227 118.936 91.1435 118.908 90.9594 118.908H30.0629C29.8788 118.908 29.6995 118.936 29.5251 118.988C29.3507 119.043 29.1884 119.121 29.0382 119.222C28.8904 119.325 28.762 119.446 28.653 119.586C28.544 119.725 28.4617 119.879 28.4035 120.044C26.7344 124.818 24.2199 128.19 20.9277 130.062C14.9127 133.484 9.09387 131.047 6.00036 127.112C2.86566 123.131 2.04928 117.084 7.28428 112.547C7.96984 111.943 8.7087 111.405 9.50327 110.934C9.63409 110.863 9.75521 110.773 9.86422 110.67C9.97081 110.57 10.0629 110.455 10.1404 110.329C10.2179 110.203 10.276 110.071 10.3148 109.931C10.3536 109.789 10.3754 109.647 10.3754 109.503C10.3754 109.356 10.356 109.215 10.3148 109.075C10.276 108.935 10.2179 108.8 10.1428 108.674C10.0653 108.548 9.97324 108.434 9.86665 108.331C9.75763 108.228 9.63893 108.141 9.5057 108.068C8.71112 107.596 7.97226 107.058 7.28428 106.454C3.37438 103.064 2.41992 98.3534 4.73582 93.8533C4.83756 93.6564 4.8957 93.4481 4.91024 93.2284C4.92235 93.0086 4.89328 92.7958 4.81819 92.5875C4.74309 92.3792 4.62681 92.1938 4.47419 92.029C4.31915 91.8642 4.13747 91.7337 3.92913 91.6375C3.7208 91.5414 3.50035 91.4865 3.27022 91.4727C3.03766 91.459 2.81237 91.4888 2.59434 91.5597C2.3739 91.633 2.17768 91.7405 2.00326 91.887C1.83126 92.0312 1.69318 92.2029 1.59143 92.4021C-1.39549 98.2069 -0.118841 104.527 4.92477 108.899Z" fill="#6095BF"/>
<mask id="mask0_187_2087" style="mask-type:luminance" maskUnits="userSpaceOnUse" x="0" y="0" width="169" height="135">
<path d="M0 0H168.146V134.64H0V0Z" fill="white"/>
</mask>
<g mask="url(#mask0_187_2087)">
<path d="M140.919 61.2371C139.447 58.9371 137.778 56.7773 135.913 54.7553C135.831 54.6358 135.737 54.5278 135.626 54.4313C135.614 54.4222 135.599 54.4153 135.587 54.4038C135.02 53.8018 134.439 53.2113 133.84 52.6368C133.242 52.0624 132.629 51.5041 131.999 50.9595C131.372 50.4173 130.728 49.8888 130.069 49.3787C129.411 48.8663 128.74 48.3723 128.055 47.8944C127.37 47.4165 126.672 46.9569 125.961 46.5135C125.249 46.07 124.527 45.6472 123.794 45.2405C123.061 44.8339 122.315 44.4455 121.56 44.0756C120.805 43.708 120.04 43.3587 119.266 43.0279C118.491 42.697 117.707 42.3845 116.916 42.095C116.124 41.8032 115.323 41.5321 114.517 41.2793C113.712 41.0289 112.899 40.7991 112.078 40.5877C111.26 40.3763 110.435 40.1879 109.605 40.0179C108.775 39.8501 107.941 39.7008 107.103 39.5744C106.266 39.4481 105.424 39.3401 104.58 39.255C103.738 39.17 102.891 39.108 102.044 39.0643C101.197 39.023 100.348 39 99.5012 39C98.652 39 97.8051 39.023 96.9583 39.0643C96.1091 39.108 95.2646 39.17 94.4202 39.255C93.5758 39.3401 92.7362 39.4481 91.899 39.5744C91.0594 39.7008 90.2271 39.8501 89.3971 40.0179C88.5672 40.1879 87.742 40.3763 86.9217 40.5877C86.1039 40.7991 85.2908 41.0289 84.4826 41.2793C83.6768 41.5321 82.8782 41.8032 82.0868 42.095C81.2955 42.3845 80.5114 42.697 79.7369 43.0279C78.9625 43.3587 78.1977 43.708 77.4425 44.0756C76.6873 44.4455 75.9418 44.8339 75.2084 45.2405C74.475 45.6472 73.7512 46.07 73.0419 46.5135C72.3301 46.9569 71.6329 47.4165 70.9477 47.8944C70.2625 48.3723 69.5894 48.8663 68.9331 49.3787C68.2745 49.8888 67.6303 50.4173 67.0006 50.9595C66.3733 51.5041 65.7581 52.0624 65.1598 52.6368C64.5614 53.2113 63.98 53.8018 63.4154 54.4038C63.4034 54.4153 63.3889 54.4222 63.3768 54.4313C63.2659 54.5278 63.1718 54.6335 63.0897 54.753C61.2248 56.7773 59.5552 58.9371 58.0835 61.2371C57.987 61.352 57.9074 61.4807 57.8447 61.6162C55.6009 65.1961 53.8976 68.9988 52.7347 73.0197C51.5742 77.043 50.9952 81.1398 51 85.3147C51 85.8708 51.0097 86.4314 51.029 86.9828C51.0435 87.1988 51.0989 87.4056 51.1979 87.6009C51.2968 87.7939 51.4295 87.964 51.5984 88.111C51.7672 88.2558 51.9578 88.3661 52.1702 88.4396C52.3825 88.5131 52.602 88.5476 52.8288 88.5384C53.0556 88.5315 53.2727 88.4832 53.4802 88.3959C53.6853 88.3063 53.8687 88.1845 54.0255 88.0283C54.1823 87.872 54.3005 87.6928 54.385 87.4906C54.4694 87.2907 54.5104 87.0816 54.508 86.8657C54.4887 86.3533 54.479 85.8317 54.479 85.3147C54.4742 81.8337 54.9085 78.4055 55.7819 75.0279C56.6552 71.648 57.9412 68.4197 59.6421 65.3431C60.7109 66.7953 61.6566 68.3186 62.4793 69.9109C63.3021 71.5032 63.9921 73.1484 64.5494 74.8418C65.1067 76.5352 65.5241 78.2608 65.8015 80.0162C66.0814 81.7717 66.2165 83.5386 66.2093 85.3147C66.2093 85.7972 66.1996 86.2866 66.1803 86.7692C66.1707 86.9897 66.2069 87.2034 66.2865 87.4102C66.3661 87.617 66.4819 87.8031 66.6387 87.964C66.7955 88.1271 66.9789 88.2535 67.1888 88.3454C67.3987 88.4396 67.6183 88.4901 67.8475 88.4993C67.874 88.4993 67.8981 88.4993 67.9222 88.4993C68.1466 88.4993 68.3613 88.458 68.5712 88.3775C68.7787 88.2994 68.9645 88.1845 69.1262 88.0352C69.2878 87.8881 69.4157 87.7158 69.5073 87.5205C69.599 87.3229 69.6497 87.1184 69.6593 86.9047C69.6811 86.3762 69.6931 85.8409 69.6931 85.3124C69.6907 83.2399 69.5122 81.1811 69.1623 79.1362C68.8101 77.0935 68.2866 75.0877 67.5965 73.1231C66.9041 71.1609 66.0525 69.2607 65.0367 67.4294C64.0234 65.5982 62.863 63.8542 61.5529 62.2022C62.4721 60.8327 63.4685 59.5184 64.5421 58.2547C66.1562 60.1549 67.5893 62.17 68.8415 64.3023C70.0936 66.4345 71.1479 68.6541 72.002 70.9587C72.8585 73.2633 73.5027 75.6207 73.9369 78.031C74.3688 80.439 74.5859 82.8677 74.5835 85.3124C74.5835 85.9029 74.5715 86.498 74.5473 87.0816C74.5377 87.3022 74.5739 87.5159 74.6535 87.7227C74.7331 87.9295 74.8489 88.1133 75.0057 88.2764C75.1626 88.4396 75.3459 88.566 75.5558 88.6579C75.7657 88.7498 75.9853 88.8026 76.2169 88.8095C76.241 88.8095 76.2627 88.8095 76.2869 88.8095C76.5136 88.8095 76.7284 88.7704 76.9383 88.69C77.1457 88.6096 77.3315 88.4947 77.4932 88.3477C77.6548 88.1983 77.7827 88.026 77.8744 87.8307C77.966 87.6354 78.0167 87.4309 78.0264 87.2149C78.0529 86.5876 78.0674 85.9466 78.0674 85.3124C78.0674 82.631 77.8261 79.968 77.3412 77.3279C76.8586 74.6856 76.1397 72.1052 75.1843 69.5824C74.2313 67.0595 73.0539 64.6354 71.6594 62.3102C70.2625 59.9826 68.6678 57.7883 66.8703 55.7272C67.3939 55.1988 67.9319 54.6864 68.482 54.1832C69.0321 53.6823 69.5966 53.1952 70.1732 52.7219C70.7499 52.2462 71.3385 51.7867 71.9393 51.3409C72.54 50.8952 73.1528 50.4655 73.7777 50.0496C74.4002 49.6337 75.0371 49.2339 75.6813 48.8479C76.3255 48.4642 76.9817 48.0943 77.6476 47.7404C78.3111 47.3866 78.9842 47.0511 79.6694 46.7295C80.3521 46.4101 81.0422 46.1045 81.7418 45.8196C82.4391 45.5324 83.146 45.2612 83.8601 45.0085C84.5718 44.7557 85.2932 44.5214 86.0194 44.3031C86.7432 44.0848 87.4767 43.8849 88.2125 43.7011C88.9484 43.5196 89.689 43.3541 90.4345 43.2071C91.18 43.0623 91.928 42.9337 92.6807 42.8234C93.4334 42.7131 94.1886 42.6212 94.9438 42.5476C95.7013 42.4741 96.4589 42.419 97.2189 42.3822C97.9788 42.3454 98.7412 42.3271 99.5012 42.3271C100.261 42.3271 101.024 42.3454 101.784 42.3822C102.544 42.419 103.301 42.4741 104.059 42.5476C104.814 42.6212 105.569 42.7131 106.322 42.8234C107.074 42.9337 107.822 43.0623 108.568 43.2071C109.313 43.3541 110.054 43.5196 110.79 43.7011C111.526 43.8849 112.259 44.0848 112.983 44.3031C113.709 44.5214 114.431 44.7557 115.142 45.0085C115.856 45.2612 116.563 45.5324 117.261 45.8196C117.96 46.1045 118.65 46.4101 119.333 46.7295C120.018 47.0511 120.691 47.3866 121.355 47.7404C122.021 48.0943 122.677 48.4642 123.321 48.8479C123.965 49.2339 124.602 49.6337 125.225 50.0496C125.85 50.4655 126.462 50.8952 127.063 51.3409C127.664 51.7867 128.253 52.2462 128.829 52.7219C129.406 53.1952 129.97 53.6823 130.52 54.1832C131.071 54.6864 131.609 55.1988 132.132 55.7272C130.656 57.4161 129.312 59.1968 128.103 61.0694C126.894 62.942 125.83 64.8882 124.916 66.9055C123.999 68.9229 123.237 70.9932 122.634 73.1162C122.028 75.2393 121.584 77.3922 121.302 79.5751C121.275 79.7956 121.29 80.0093 121.352 80.223C121.413 80.4344 121.514 80.6274 121.656 80.802C121.799 80.9767 121.97 81.1168 122.17 81.2271C122.371 81.3351 122.588 81.404 122.815 81.4316C122.887 81.4385 122.959 81.4431 123.032 81.4431C123.244 81.4431 123.449 81.4063 123.647 81.3351C123.845 81.2616 124.023 81.1605 124.182 81.0249C124.342 80.8916 124.47 80.7331 124.568 80.5539C124.667 80.3747 124.73 80.1862 124.757 79.984C125.271 75.9998 126.351 72.1604 127.999 68.468C129.649 64.7756 131.802 61.3727 134.458 58.2593C135.532 59.5207 136.526 60.835 137.445 62.2045C136.791 63.0293 136.171 63.8772 135.589 64.748C135.006 65.6211 134.46 66.5149 133.954 67.4294C133.447 68.3439 132.981 69.2768 132.554 70.228C132.125 71.177 131.739 72.1443 131.394 73.1231C131.049 74.1042 130.745 75.0968 130.484 76.1009C130.224 77.105 130.007 78.1183 129.83 79.1385C129.654 80.1587 129.524 81.1857 129.437 82.2174C129.348 83.2491 129.304 84.2807 129.304 85.3147C129.304 86.351 129.348 87.3826 129.437 88.4143C129.524 89.446 129.657 90.4707 129.83 91.4932C130.007 92.5134 130.224 93.5267 130.484 94.5308C130.747 95.5349 131.049 96.5275 131.396 97.5063C131.741 98.4874 132.127 99.4524 132.554 100.404C132.981 101.355 133.449 102.288 133.956 103.202C134.463 104.117 135.008 105.008 135.589 105.881C136.173 106.755 136.791 107.602 137.447 108.427C136.533 109.797 135.539 111.116 134.468 112.379C132.34 109.879 130.53 107.189 129.037 104.301C128.931 104.108 128.791 103.94 128.619 103.8C128.446 103.657 128.25 103.554 128.033 103.485C127.816 103.418 127.594 103.391 127.367 103.407C127.138 103.423 126.923 103.478 126.718 103.575C126.513 103.671 126.337 103.8 126.185 103.963C126.033 104.126 125.92 104.312 125.845 104.517C125.77 104.723 125.739 104.935 125.751 105.151C125.763 105.369 125.816 105.576 125.915 105.773C127.611 109.055 129.686 112.104 132.139 114.916C131.389 115.67 130.61 116.4 129.799 117.108C129.628 117.257 129.495 117.43 129.396 117.63C129.297 117.829 129.242 118.039 129.232 118.259C129.222 118.48 129.254 118.693 129.333 118.9C129.411 119.109 129.529 119.293 129.683 119.456C129.84 119.619 130.021 119.748 130.231 119.842C130.438 119.936 130.66 119.987 130.89 119.998C131.121 120.008 131.346 119.975 131.563 119.902C131.78 119.826 131.973 119.716 132.144 119.567C135.599 116.561 138.535 113.151 140.958 109.335C141.035 109.236 141.1 109.13 141.153 109.018C142.268 107.235 143.252 105.387 144.106 103.478C144.962 101.569 145.679 99.6133 146.256 97.6097C146.835 95.6084 147.271 93.5772 147.563 91.5208C147.855 89.4621 148 87.3941 148 85.317C148 83.2399 147.855 81.172 147.563 79.1155C147.271 77.0568 146.837 75.0256 146.258 73.0243C145.679 71.023 144.962 69.0654 144.108 67.156C143.254 65.2466 142.27 63.3993 141.155 61.6162C141.095 61.4807 141.015 61.3543 140.919 61.2371ZM139.356 105.282C138.825 104.553 138.323 103.809 137.852 103.046C137.382 102.281 136.94 101.502 136.533 100.707C136.123 99.912 135.746 99.1032 135.401 98.2783C135.059 97.4557 134.747 96.6217 134.468 95.7761C134.19 94.9306 133.946 94.0781 133.737 93.2142C133.527 92.3503 133.35 91.4817 133.211 90.6063C133.071 89.7286 132.964 88.8509 132.894 87.9663C132.825 87.0816 132.788 86.197 132.788 85.3124C132.788 84.4255 132.825 83.5409 132.894 82.6563C132.964 81.774 133.071 80.8939 133.213 80.0185C133.353 79.1431 133.529 78.2723 133.739 77.4083C133.949 76.5467 134.192 75.6919 134.47 74.8464C134.747 74.0008 135.059 73.1668 135.404 72.3442C135.749 71.5216 136.125 70.7128 136.535 69.9178C136.943 69.1205 137.384 68.3416 137.855 67.5788C138.325 66.8159 138.827 66.0692 139.358 65.3431C140.202 66.878 140.948 68.4542 141.592 70.0741C142.236 71.694 142.777 73.346 143.211 75.0279C143.645 76.7098 143.973 78.4124 144.193 80.1334C144.41 81.8521 144.521 83.5799 144.521 85.3124C144.521 87.0449 144.41 88.7727 144.19 90.4914C143.973 92.2124 143.645 93.915 143.209 95.5969C142.774 97.2788 142.234 98.9309 141.59 100.551C140.945 102.171 140.2 103.747 139.356 105.282Z" fill="#6095BF"/>
</g>
</svg>
