<svg width="150" height="150" viewBox="0 0 150 150" fill="none" xmlns="http://www.w3.org/2000/svg">
<mask id="mask0_187_2121" style="mask-type:luminance" maskUnits="userSpaceOnUse" x="0" y="0" width="80" height="61">
<path d="M0 0H79.5619V60.3127H0V0Z" fill="white"/>
</mask>
<g mask="url(#mask0_187_2121)">
<path d="M61.4967 60.0168C60.5076 60.0168 59.5284 59.8398 58.5072 59.47L5.22914 40.3819C2.00779 39.2355 0 36.2954 0 32.7081C0 31.7333 0.143061 30.7956 0.429185 29.9186L8.45049 5.49445C9.52345 2.22417 12.4167 0.0263672 15.6504 0.0263672C16.4644 0.0263672 17.2759 0.169013 18.0578 0.443738L71.5011 19.6719C76.1531 21.344 78.9329 26.7883 78.9329 34.2402C78.9329 45.9134 71.1583 60.0168 61.4992 60.0168H61.4967ZM15.6504 5.48389C14.5725 5.48389 13.6106 6.21561 13.2529 7.30394L5.23654 31.7175C5.14035 32.0134 5.09595 32.3409 5.09595 32.7081C5.09595 33.9523 5.68299 34.7949 6.83982 35.2097L60.1327 54.3031C60.6334 54.4853 61.065 54.5672 61.4992 54.5672C67.3844 54.5672 73.8395 43.9322 73.8395 34.2455C73.8395 30.5631 72.801 25.8954 69.8806 24.8467L16.4471 5.62125C16.1931 5.53144 15.9218 5.48389 15.6529 5.48389H15.6504Z" fill="#6095BF"/>
</g>
<path d="M83.3506 57.296C82.8079 57.296 82.2653 57.1983 81.735 57.0107L70.5984 53.0351L72.2091 47.8629L83.3457 51.8385L86.5695 41.494L75.5636 37.5633L77.1743 32.3911L88.1777 36.3192C90.8416 37.2675 92.287 40.3661 91.3966 43.219L88.1728 53.5634C87.7436 54.945 86.8359 56.065 85.6198 56.7175C84.907 57.1005 84.13 57.296 83.3506 57.296Z" fill="#6095BF"/>
<path d="M49.6498 38.2027H36.9198C32.0064 38.2027 28.0081 33.9206 28.0081 28.6612C28.0081 23.4018 32.0064 19.1172 36.9198 19.1172C39.2088 19.1172 41.3892 20.0576 43.0591 21.7641L52.2792 31.1575C53.034 31.9262 53.4681 33.0067 53.4681 34.1135C53.4681 36.3694 51.7563 38.2027 49.6498 38.2027ZM36.9223 24.5694C34.8158 24.5694 33.104 26.4027 33.104 28.6586C33.104 30.9119 34.8158 32.7478 36.9223 32.7478H46.4605L39.5516 25.7079C38.8314 24.9709 37.899 24.5668 36.9223 24.5668V24.5694Z" fill="#6095BF"/>
<path d="M58.5615 109.1C45.7106 109.1 35.6445 102.515 35.6445 94.104C35.6445 85.6958 45.7106 79.1077 58.5615 79.1077C71.4124 79.1077 81.476 85.6958 81.476 94.104C81.476 102.515 71.4124 109.1 58.5615 109.1ZM58.5615 84.5599C48.0588 84.5599 40.738 89.5895 40.738 94.1013C40.738 98.6131 48.0563 103.645 58.5615 103.645C69.0667 103.645 76.385 98.6131 76.385 94.1013C76.385 89.5895 69.0667 84.5599 58.5615 84.5599Z" fill="#6095BF"/>
<path d="M112.032 109.1C99.1811 109.1 89.115 102.515 89.115 94.1039C89.115 89.2433 92.4424 84.8477 98.2413 82.0477L100.335 87.0165C96.4999 88.8709 94.2085 91.5204 94.2085 94.1039C94.2085 98.621 101.527 103.648 112.032 103.648C122.537 103.648 129.855 98.6157 129.855 94.1039C129.855 90.3026 125.097 86.6414 118.287 85.1991L119.271 79.8499C128.795 81.8654 134.949 87.4603 134.949 94.1039C134.949 102.515 124.883 109.1 112.032 109.1Z" fill="#6095BF"/>
<mask id="mask1_187_2121" style="mask-type:luminance" maskUnits="userSpaceOnUse" x="20" y="67" width="130" height="83">
<path d="M20.2063 67.7515H150V150H20.2063V67.7515Z" fill="white"/>
</mask>
<g mask="url(#mask1_187_2121)">
<path d="M85.2968 150.003C53.034 150.003 20.3716 142.979 20.3716 129.551C20.3716 129.171 20.411 128.793 20.4678 128.416L25.6945 91.0001C27.574 77.5756 41.0884 68.1953 58.5665 68.1953C66.6988 68.1953 70.9389 69.8727 74.6782 71.3494C77.8034 72.5856 80.5018 73.6502 85.2993 73.6502C90.0992 73.6502 92.8174 72.5698 95.9993 71.315L97.3288 70.7973L99.0431 75.9299L97.7555 76.4318C94.4232 77.7447 90.9749 79.0998 85.3042 79.0998C79.6311 79.0998 76.2001 77.7579 72.9195 76.4635C69.4145 75.0793 65.7911 73.6475 58.569 73.6475C43.9151 73.6475 32.2087 81.2844 30.7361 91.8058L25.5045 129.237C25.4873 129.351 25.4675 129.448 25.4675 129.549C25.4675 135.812 48.234 144.545 85.3042 144.545C122.372 144.545 145.138 135.809 145.138 129.549C145.138 129.448 145.116 129.353 145.104 129.25L139.87 91.8085C138.506 82.0584 128.632 74.8125 115.298 73.7743L115.665 68.338C131.432 69.5637 143.185 78.6718 144.909 91.0001L150.141 128.431C150.192 128.796 150.232 129.171 150.232 129.551C150.232 142.976 117.57 150.003 85.3067 150.003H85.2968Z" fill="#6095BF"/>
</g>
<path d="M36.7693 132.016C35.0772 131.353 33.5035 130.545 31.9619 129.546L34.5962 124.881C35.8517 125.695 37.1368 126.352 38.5205 126.894L36.7693 132.019V132.016Z" fill="#6095BF"/>
<path d="M55.4611 136.832C50.7203 136.047 46.3841 135.096 42.5757 133.995L43.8978 128.727C47.531 129.779 51.6823 130.69 56.2356 131.443L55.4611 136.834V136.832Z" fill="#6095BF"/>
<path d="M116.287 27.0314L126.989 15.5696L130.591 19.4263L119.888 30.8881L116.287 27.0314Z" fill="#6095BF"/>
<path d="M93.7275 18.0157L97.3756 2.55981L102.316 3.89646L98.6656 19.3524L93.7275 18.0157Z" fill="#6095BF"/>
<path d="M127.053 52.4935L141.658 48.5391L142.909 53.8302L128.302 57.7846L127.053 52.4935Z" fill="#6095BF"/>
<path d="M122.217 92.7408H117.123C117.123 71.6741 105.306 52.9849 87.719 46.2356L89.4333 41.103C109.043 48.6263 122.217 69.3759 122.217 92.7408Z" fill="#6095BF"/>
<path d="M101.848 92.741H96.7565V84.56C96.7565 70.9637 91.8061 59.3909 84.4434 55.7535L86.5769 50.7979C95.8537 55.381 101.848 68.6312 101.848 84.56V92.741Z" fill="#6095BF"/>
<path d="M112.032 98.1959H106.941V92.741C106.941 89.0322 106.714 85.5533 106.268 82.3992L111.302 81.5803C111.788 85.0038 112.034 88.7602 112.034 92.741V98.1959H112.032Z" fill="#6095BF"/>
<path d="M105.143 76.7724C104.733 75.1636 104.299 73.7979 103.737 72.3398L108.441 70.2529C109.089 71.933 109.59 73.5021 110.056 75.3406L105.145 76.7724H105.143Z" fill="#6095BF"/>
</svg>
