<svg width="64" height="64" viewBox="0 0 64 64" fill="none" xmlns="http://www.w3.org/2000/svg">
<mask id="mask0_187_2056" style="mask-type:luminance" maskUnits="userSpaceOnUse" x="26" y="0" width="14" height="26">
<path d="M26.1694 0H39.1453V25.374H26.1694V0Z" fill="white"/>
</mask>
<g mask="url(#mask0_187_2056)">
<path fill-rule="evenodd" clip-rule="evenodd" d="M33.989 2.71946L35.5539 5.40349C33.3554 7.06872 32.2508 9.56049 31.9319 11.8235C31.8474 12.4257 32.2878 12.9628 32.8686 12.9683H35.4019C36.3544 12.9683 37.0988 13.7407 37.0988 14.7385V21.3983C37.0988 22.395 36.3554 23.1663 35.4019 23.1663H29.9794C29.0311 23.1663 28.2983 22.395 28.2983 21.3983V13.5484C28.2983 9.28313 30.6235 5.06978 33.989 2.71946ZM33.764 0.277416C29.1842 2.69957 26.3996 8.20797 26.3996 13.5495C26.3996 16.1684 26.3996 21.3994 26.3996 21.3994C26.3996 23.458 28.011 25.1564 29.9804 25.1564H35.4029C37.3765 25.1564 38.9933 23.4635 38.9933 21.3994V14.7396C38.9933 12.6733 37.3765 10.9815 35.4029 10.9815H34.0259C34.5032 9.32623 35.5328 7.61901 37.329 6.58805C37.8063 6.31511 37.9668 5.67974 37.6849 5.19686L34.9995 0.639855C34.6373 0.0298973 34.2508 0.0210573 33.764 0.277416Z" fill="#6095BF"/>
</g>
<mask id="mask1_187_2056" style="mask-type:luminance" maskUnits="userSpaceOnUse" x="11" y="0" width="13" height="26">
<path d="M11.0308 0H23.7364V25.374H11.0308V0Z" fill="white"/>
</mask>
<g mask="url(#mask1_187_2056)">
<path fill-rule="evenodd" clip-rule="evenodd" d="M18.6476 2.71946L20.2115 5.40349C18.0193 7.06872 16.9084 9.56049 16.5937 11.8235C16.505 12.4257 16.9507 12.9628 17.5262 12.9683H20.0647C21.012 12.9683 21.7564 13.7407 21.7564 14.7385V21.3983C21.7564 22.395 21.013 23.1663 20.0647 23.1663H14.6423C13.6887 23.1663 12.9559 22.395 12.9559 21.3983V13.5484C12.9569 9.28313 15.2864 5.06978 18.6476 2.71946ZM18.4206 0.277416C13.845 2.69957 11.0562 8.20797 11.0562 13.5495C11.0562 16.1684 11.0562 21.3994 11.0562 21.3994C11.0562 23.458 12.6676 25.1564 14.6423 25.1564H20.0647C22.0331 25.1564 23.6561 23.4635 23.6561 21.3994V14.7396C23.6561 12.6733 22.0331 10.9815 20.0647 10.9815H18.6888C19.1598 9.32623 20.1957 7.61901 21.9856 6.58805C22.4629 6.31511 22.6245 5.67974 22.3414 5.19686L19.6561 0.639855C19.2939 0.0298973 18.9074 0.0210573 18.4206 0.277416Z" fill="#6095BF"/>
</g>
<path fill-rule="evenodd" clip-rule="evenodd" d="M7.92093 10.9804C3.54916 10.9804 0 14.6932 0 19.2623V47.2961C0 51.8653 3.54916 55.5792 7.92093 55.5792H25.8494L31.2202 62.6776C33.1146 65.1794 36.8169 63.8556 36.8169 61.008V55.5792H56.0896C60.4614 55.5792 64 51.8642 64 47.2961V19.2623C64 14.6932 60.4614 10.9804 56.0896 10.9804H42.1337C40.8528 10.9583 40.8528 12.986 42.1337 12.9694H56.0896C59.4403 12.9694 62.0992 15.7573 62.0992 19.2623V47.2961C62.0992 50.8011 59.4403 53.5913 56.0896 53.5913H35.8675C35.3438 53.5913 34.9161 54.0388 34.9161 54.588V60.7782C34.9161 62.5086 33.3142 62.2467 32.6742 61.4025L27.0522 53.9636C26.8758 53.7283 26.5971 53.5924 26.3109 53.5924H7.92093C4.5703 53.5924 1.90077 50.8034 1.90077 47.2972V19.2623C1.90077 15.7628 4.5703 12.9694 7.92093 12.9694C9.2029 12.986 9.2029 10.9583 7.92093 10.9804Z" fill="#6095BF"/>
<path d="M13.8766 33.6957L15.318 36.7643C15.4596 37.0538 15.7267 37.2615 16.0414 37.3046L19.2453 37.7919L16.9675 39.9124C16.7204 40.1367 16.6063 40.476 16.6528 40.8152L17.2188 44.4352L14.3233 42.8484C14.0466 42.6948 13.7161 42.6948 13.4437 42.8484L10.5482 44.4307L11.1047 40.8152C11.1575 40.476 11.0413 40.1356 10.7995 39.9124L8.52174 37.7919L11.7266 37.3046C12.0371 37.2549 12.3032 37.0538 12.4384 36.7643L13.8766 33.6957ZM13.8766 31.2957C13.1396 31.2957 12.6263 31.8614 12.3497 32.4526L10.9558 35.4107L7.77305 35.898C7.45414 35.9477 7.17008 36.0129 6.88391 36.172C6.58929 36.33 6.25982 36.6593 6.16162 37.1024C6.0613 37.5455 6.19224 37.9356 6.33797 38.214C6.49108 38.4881 6.66743 38.729 6.89975 38.9422L9.14583 41.0406L8.63051 44.3744C8.57348 44.7247 8.54814 45.0385 8.57982 45.3623C8.61044 45.6904 8.70865 46.0794 9.02228 46.3855C9.33696 46.6982 9.8037 46.7855 10.1279 46.7413C10.4584 46.7037 10.7192 46.5888 10.9822 46.4407L13.8756 44.8517L16.7721 46.4407C17.0393 46.5888 17.2949 46.7037 17.6264 46.7413C17.9559 46.7855 18.4152 46.6982 18.7299 46.3855C19.0436 46.0783 19.1439 45.6893 19.1745 45.3623C19.2062 45.0385 19.1808 44.7258 19.1217 44.3744L18.6085 41.0406L20.8641 38.9378C21.0953 38.7179 21.2685 38.487 21.4142 38.214C21.5663 37.9356 21.7025 37.5455 21.6033 37.1024C21.4987 36.6593 21.1693 36.33 20.8799 36.172C20.5937 36.014 20.2991 35.9477 19.9844 35.898L16.8028 35.4107L15.4152 32.4526C15.1385 31.8614 14.6211 31.2957 13.8766 31.2957Z" fill="#6095BF"/>
<path d="M31.9953 33.6957L33.4346 36.7643C33.5761 37.0538 33.8422 37.2615 34.1569 37.3046L37.3607 37.7919L35.084 39.9124C34.839 40.1367 34.7229 40.476 34.7693 40.8152L35.3353 44.4352L32.4398 42.8484C32.1684 42.6948 31.839 42.6948 31.5602 42.8484L28.6668 44.4307L29.2201 40.8152C29.274 40.476 29.1568 40.1356 28.9181 39.9124L26.6404 37.7919L29.8442 37.3046C30.1526 37.2549 30.4197 37.0538 30.5549 36.7643L31.9953 33.6957ZM31.9953 31.2957C31.2571 31.2957 30.7429 31.8614 30.4662 32.4526L29.0744 35.4107L25.8906 35.898C25.5728 35.9477 25.2898 36.0129 25.0015 36.172C24.7121 36.33 24.3827 36.6593 24.2781 37.1024C24.1778 37.5455 24.3098 37.9356 24.4576 38.214C24.6076 38.4881 24.7871 38.729 25.0173 38.9422L27.2623 41.0406L26.7502 44.3744C26.691 44.7247 26.6657 45.0385 26.6963 45.3623C26.7333 45.6904 26.8283 46.0794 27.142 46.3855C27.4566 46.6982 27.9213 46.7855 28.2518 46.7413C28.5749 46.7037 28.8379 46.5888 29.1061 46.4407L31.9953 44.8517L34.8887 46.4407C35.1558 46.5888 35.4124 46.7037 35.7429 46.7413C36.0724 46.7855 36.5339 46.6982 36.8486 46.3855C37.1632 46.0783 37.2604 45.6893 37.2921 45.3623C37.329 45.0385 37.2984 44.7258 37.2403 44.3744L36.7324 41.0406L38.9869 38.9378C39.214 38.7179 39.385 38.487 39.5329 38.214C39.6839 37.9356 39.8201 37.5455 39.7219 37.1024C39.6216 36.6593 39.2921 36.33 38.9996 36.172C38.7113 36.014 38.4188 35.9477 38.1041 35.898L34.9203 35.4107L33.5338 32.4526C33.2561 31.8614 32.7366 31.2957 31.9953 31.2957Z" fill="#6095BF"/>
<path d="M50.1212 33.6957L51.5626 36.7643C51.6978 37.0538 51.9702 37.2615 52.2796 37.3046L55.4888 37.7919L53.2057 39.9124C52.965 40.1367 52.8446 40.476 52.8974 40.8152L53.4634 44.4352L50.5679 42.8484C50.2912 42.6948 49.9607 42.6948 49.6819 42.8484L46.7885 44.4307L47.3482 40.8152C47.402 40.476 47.2848 40.1356 47.0441 39.9124L44.7663 37.7919L47.9702 37.3046C48.2806 37.2549 48.5478 37.0538 48.6829 36.7643L50.1212 33.6957ZM50.1212 31.2957C49.3799 31.2957 48.8709 31.8614 48.5932 32.4526L47.1961 35.4107L44.0113 35.898C43.6966 35.9477 43.4146 36.0129 43.1221 36.172C42.8339 36.33 42.5044 36.6593 42.4051 37.1024C42.3048 37.5455 42.4305 37.9356 42.5825 38.214C42.7293 38.4881 42.9078 38.729 43.138 38.9422L45.3893 41.0406L44.8751 44.3744C44.818 44.7247 44.7927 45.0385 44.8233 45.3623C44.855 45.6904 44.9532 46.0794 45.2668 46.3855C45.5815 46.6982 46.0419 46.7855 46.3725 46.7413C46.7019 46.7037 46.9596 46.5888 47.2267 46.4407L50.1201 44.8517L53.0157 46.4407C53.2775 46.5888 53.5394 46.7037 53.8699 46.7413C54.1941 46.7855 54.6588 46.6982 54.9734 46.3855C55.2881 46.0783 55.3874 45.6893 55.4191 45.3623C55.4497 45.0385 55.4191 44.7258 55.3663 44.3744L54.8531 41.0406L57.1086 38.9378C57.3399 38.7179 57.5067 38.487 57.6578 38.214C57.8045 37.9356 57.9408 37.5455 57.8436 37.1024C57.7422 36.6593 57.4128 36.33 57.1245 36.172C56.832 36.014 56.5437 35.9477 56.2248 35.898L53.041 35.4107L51.6555 32.4526C51.3778 31.8614 50.8593 31.2957 50.1212 31.2957Z" fill="#6095BF"/>
</svg>
