<svg width="200" height="150" viewBox="0 0 200 150" fill="none" xmlns="http://www.w3.org/2000/svg">
<path d="M136.943 149.628L139.883 132.766H177.952L180.895 149.628L186.049 148.881L176.255 92.7445H178.073C179.658 92.7445 180.958 91.5594 180.958 90.1132C180.958 88.6671 179.658 87.4819 178.073 87.4819H139.765C138.177 87.4819 136.881 88.6671 136.881 90.1132C136.881 91.5594 138.177 92.7445 139.765 92.7445H141.584L131.79 148.881L136.943 149.628ZM170.969 92.7445L177.034 127.506H140.801L146.869 92.7445H170.969Z" fill="#6095BF"/>
<path d="M131.731 50.0078C131.234 48.7477 131.063 47.5235 131.204 46.4794L119.384 43.2331C117.888 42.822 116.309 43.5721 115.816 44.9252C115.326 46.2784 116.105 47.7426 117.572 48.2256L134.644 53.8602C133.401 52.9691 132.369 51.637 131.731 50.0078Z" fill="#6095BF"/>
<mask id="mask0_187_2187" style="mask-type:luminance" maskUnits="userSpaceOnUse" x="132" y="29" width="68" height="63">
<path d="M132.803 29.0383H200V91.2533H132.803V29.0383Z" fill="white"/>
</mask>
<g mask="url(#mask0_187_2187)">
<path d="M189.048 90.9113C189.574 90.9113 190.11 90.8183 190.627 90.6232C193.774 89.4321 200.322 86.9478 199.293 82.2403C198.947 80.6591 197.918 79.537 196.346 78.7179C197.599 78.6639 198.997 78.6609 198.997 78.6609C195.363 77.6588 191.534 77.1397 190.166 76.9717C191.13 76.7767 191.988 76.6237 191.988 76.6237C188.811 76.3206 185.565 76.3776 183.796 76.4466C183.793 76.4466 183.789 76.4466 183.783 76.4436C186.578 70.827 188.298 62.3361 179.261 55.1443C174.587 51.4269 171.16 49.3206 168.46 47.9645C169.559 47.8985 170.483 47.8715 170.483 47.8715C168.263 46.8304 165.776 46.1433 163.912 45.7232C165.441 45.3932 167.22 45.1232 167.22 45.1232C164.428 44.2201 161.33 43.851 159.393 43.701C160.659 43.1339 162.178 42.8819 164.112 43.0619C158.751 40.4336 154.693 32.9838 145.162 33.2388L141.383 29.4344C141.143 29.1944 140.706 29.3534 140.716 29.6804L140.808 32.8968L138.357 30.5265C138.111 30.2895 137.677 30.4515 137.683 30.7786L137.775 34.454C136.266 35.1321 135.447 36.1312 135.065 37.5683C134.658 39.0955 134.746 41.1177 135.036 43.785C134.825 43.656 134.572 43.581 134.299 43.581C133.566 43.581 132.97 44.1241 132.97 44.7931C132.97 45.0722 133.082 45.3272 133.257 45.5342V45.5372C131.888 47.3704 133.747 52.501 137.167 53.4191C140.587 54.3342 144.567 56.9895 146.806 59.0387C148.944 57.1275 150.497 55.0783 151.786 53.1041C151.322 57.2985 149.852 60.2238 148.875 61.754L149.711 83.1224C149.766 84.5356 151.039 85.6577 152.588 85.6607C152.588 85.6607 152.592 85.6607 152.595 85.6607C154.141 85.6607 155.413 84.5446 155.476 83.1344L155.877 73.9534C158.265 76.5457 162.132 78.4059 166.069 79.72H162.481C160.659 79.72 159.186 81.0642 159.186 82.7263C159.186 84.3855 160.659 85.7327 162.481 85.7327H172.209C173.13 85.7327 174.012 85.3786 174.637 84.7576L176.123 83.2814C176.725 83.5964 177.412 83.7915 178.159 83.7915C181.037 83.7915 184.026 83.9415 186.522 84.1815C185.085 85.1956 184.513 86.9928 185.24 88.595C185.901 90.0412 187.433 90.9113 189.048 90.9113ZM138.532 39.9236C139.423 39.9236 140.147 40.5837 140.147 41.3997C140.147 42.2128 139.423 42.8759 138.532 42.8759C137.637 42.8759 136.914 42.2128 136.914 41.3997C136.914 40.5837 137.637 39.9236 138.532 39.9236Z" fill="#6095BF"/>
</g>
<mask id="mask1_187_2187" style="mask-type:luminance" maskUnits="userSpaceOnUse" x="41" y="102" width="20" height="48">
<path d="M41.8732 102.007H60.3958V150H41.8732V102.007Z" fill="white"/>
</mask>
<g mask="url(#mask1_187_2187)">
<path d="M43.8039 106.303L43.6954 142.673C43.6823 146.826 47.3592 150.201 51.9109 150.213C51.9175 150.213 51.924 150.213 51.9339 150.213C56.4725 150.213 60.1593 146.862 60.1724 142.718L60.2908 103.978C60.2908 103.54 60.2448 103.102 60.1626 102.673C54.098 103.555 48.2077 104.242 42.6068 104.731L43.8039 106.303Z" fill="#6095BF"/>
</g>
<mask id="mask2_187_2187" style="mask-type:luminance" maskUnits="userSpaceOnUse" x="0" y="20" width="73" height="84">
<path d="M0 20.5894H72.1831V103.543H0V20.5894Z" fill="white"/>
</mask>
<g mask="url(#mask2_187_2187)">
<path d="M53.292 33.233C54.6305 32.1079 56.3703 31.4898 58.189 31.4898C60.215 31.4898 62.1652 32.2729 63.5334 33.635L68.858 38.9276C68.7166 36.4284 69.0389 33.314 71.4167 29.1465C69.4927 27.4934 67.9174 25.4681 66.8386 23.1429C62.208 19.9265 55.7652 19.3805 49.3191 23.7609C40.2354 29.9356 46.4644 40.5748 18.8843 53.8933C18.3318 54.1603 17.8286 54.4424 17.3484 54.7274H17.3287C17.2465 54.7784 17.1708 54.8294 17.0919 54.8804C17.0097 54.9314 16.9308 54.9824 16.8518 55.0364C16.7203 55.1234 16.5887 55.2104 16.4605 55.3005C16.3223 55.3995 16.1809 55.4955 16.0493 55.5975C16.0165 55.6215 15.9869 55.6455 15.954 55.6695C15.7369 55.8375 15.5264 56.0055 15.3291 56.1765C8.95207 61.6252 10.9615 69.7681 10.284 78.6881C9.78743 85.2528 7.83716 92.2376 0.00646973 98.8833C3.36107 103.567 27.1294 105.502 62.8657 99.9874C63.0664 95.6819 58.4028 87.242 54.624 78.652C52.0488 72.7924 49.8881 66.8607 49.9637 62.1202C52.7822 58.3608 56.4821 54.5984 61.445 51.124L52.848 42.576C50.1479 39.8877 50.3452 35.6963 53.292 33.233Z" fill="#6095BF"/>
</g>
<path d="M51.9271 9.16427C41.5706 17.5082 36.8906 15.546 34.6082 12.8397C32.329 10.1304 32.7632 20.6855 45.3133 21.4206C53.0355 21.8737 60.1459 14.1478 66.0033 11.3965C66.8156 8.73522 68.2923 6.26894 70.3182 4.20771C65.6218 2.63554 59.5276 3.04658 51.9271 9.16427Z" fill="#6095BF"/>
<path d="M67.9834 20.9796C70.9006 29.5006 80.8328 34.2501 90.1731 31.5888C99.5101 28.9275 104.716 19.8665 101.799 11.3456C98.8852 2.82762 88.9496 -1.92191 79.6127 0.739391C70.2724 3.40069 65.0695 12.4617 67.9834 20.9796ZM98.5925 18.5914C98.5925 18.5914 90.6401 33.146 79.0306 20.6136C79.0306 20.6136 91.0216 22.8459 98.5925 18.5914Z" fill="#6095BF"/>
<path d="M111.682 49.3809L113.317 44.1903C114.132 41.595 112.488 38.8917 109.643 38.1476C106.798 37.4005 103.835 38.9037 103.019 41.496L102.118 44.3673L79.7903 52.3572L62.1392 34.8022C60.1396 32.816 56.7488 32.681 54.5716 34.5052C52.3911 36.3294 52.2464 39.4197 54.246 41.409L74.3802 61.4332C75.4162 62.4623 76.8567 63.0144 78.3301 63.0144C78.9845 63.0144 79.6489 62.9064 80.2836 62.6783L108.492 52.5822C110.044 52.0271 111.225 50.845 111.682 49.3809Z" fill="#6095BF"/>
</svg>
