<svg width="65" height="65" viewBox="0 0 65 65" fill="none" xmlns="http://www.w3.org/2000/svg">
<path fill-rule="evenodd" clip-rule="evenodd" d="M4.92866 0H46.1005C48.8152 0 51.0333 2.00039 51.0333 4.44235V37.452C41.9094 37.452 34.5143 44.1156 34.5143 52.3322C34.5143 56.1349 36.099 59.606 38.7085 62.2365H4.93287C2.21811 62.2365 0 60.2361 0 57.7951V4.44235C0 2.00039 2.21811 0 4.93287 0H4.92866ZM51.0291 40.6C58.2222 40.6 64.0537 45.8516 64.0537 52.3284C64.0537 58.8062 58.2222 64.0578 51.0291 64.0578C43.8371 64.0578 38.0056 58.8062 38.0056 52.3284C38.0056 45.8516 43.8371 40.6 51.0291 40.6ZM41.9831 52.2213C41.3812 51.5447 41.5001 50.5554 42.2493 50.0134C43.0006 49.4714 44.0959 49.5756 44.701 50.2522L48.6784 54.6946L57.4593 46.5007C58.1275 45.8762 59.2334 45.8582 59.9258 46.4561C60.6181 47.0579 60.6434 48.0538 59.9752 48.6773L49.8401 58.1315C49.7843 58.1855 49.7212 58.2386 49.6549 58.2898C48.9026 58.8308 47.804 58.7276 47.2021 58.05L41.9831 52.2213ZM22.9902 15.4468H28.0389C30.3338 15.4468 32.212 17.1383 32.212 19.205V25.0148H18.8139V19.205C18.8139 17.1383 20.6922 15.4468 22.9902 15.4468ZM25.5125 5.00902C27.8884 5.00902 29.8119 6.74218 29.8119 8.88091C29.8119 11.0206 27.8884 12.7528 25.5125 12.7528C23.1376 12.7528 21.213 11.0206 21.213 8.88091C21.213 6.74218 23.1376 5.00902 25.5125 5.00902ZM10.2782 32.6922C9.31227 32.6922 8.52835 31.9863 8.52835 31.1173C8.52835 30.2474 9.31227 29.5415 10.2782 29.5415H40.7477C41.7137 29.5415 42.4976 30.2474 42.4976 31.1173C42.4976 31.9863 41.7137 32.6922 40.7477 32.6922H10.2782ZM10.2782 53.9043C9.31227 53.9043 8.52835 53.1983 8.52835 52.3284C8.52835 51.4595 9.31227 50.7535 10.2782 50.7535H26.1954C27.1603 50.7535 27.9442 51.4595 27.9442 52.3284C27.9442 53.1983 27.1603 53.9043 26.1954 53.9043H10.2782ZM10.2782 46.8342C9.31227 46.8342 8.52835 46.1283 8.52835 45.2593C8.52835 44.3894 9.31227 43.6844 10.2782 43.6844H29.7319C30.6979 43.6844 31.4807 44.3894 31.4807 45.2593C31.4807 46.1283 30.6979 46.8342 29.7319 46.8342H10.2782ZM10.2782 39.7651C9.31227 39.7651 8.52835 39.0592 8.52835 38.1893C8.52835 37.3203 9.31227 36.6143 10.2782 36.6143H34.4512C35.4171 36.6143 36.2 37.3203 36.2 38.1893C36.2 39.0592 35.4171 39.7651 34.4512 39.7651H10.2782Z" fill="#6095BF"/>
</svg>
