<svg width="26" height="24" viewBox="0 0 26 24" class="text-blue-500"  fill="currentColor" xmlns="http://www.w3.org/2000/svg">
<path d="M19.9585 20.1327C19.399 19.4664 18.4918 19.1208 17.8695 18.5081C17.0868 17.7371 17.0603 16.7502 16.5628 15.8438C16.1941 15.1727 15.7241 14.5596 15.0483 14.144C14.8973 14.0524 14.7403 13.9714 14.5774 13.9011C14.4148 13.8307 14.2476 13.7714 14.0757 13.7236C13.9042 13.6761 13.7301 13.6401 13.553 13.616C13.3759 13.5919 13.198 13.5796 13.0192 13.5796C12.8404 13.5796 12.6625 13.5919 12.4858 13.616C12.3088 13.6401 12.1343 13.6761 11.9628 13.7236C11.7912 13.7714 11.624 13.8307 11.461 13.9011C11.2981 13.9714 11.1411 14.0524 10.9906 14.144C10.3148 14.5596 9.84427 15.1727 9.47601 15.8438C8.97858 16.7502 8.95206 17.7371 8.16891 18.5081C7.54701 19.1208 6.63983 19.4664 6.08037 20.1327C5.15394 21.2366 5.82631 22.7863 6.97772 23.4575C7.65394 23.8517 8.46532 23.9965 9.25745 23.9855C9.88448 23.9712 10.5038 23.8951 11.1146 23.7581V20.5969C11.1146 20.52 11.1227 20.4435 11.1381 20.3678C11.1539 20.2922 11.1775 20.2186 11.2083 20.1474C11.2391 20.0762 11.2767 20.0087 11.3216 19.9445C11.3665 19.8803 11.4174 19.821 11.4743 19.7666C11.5316 19.7118 11.5936 19.6631 11.6608 19.6202C11.7275 19.5776 11.7985 19.5412 11.8729 19.5118C11.9474 19.4823 12.0243 19.4599 12.1035 19.4451C12.1826 19.43 12.2626 19.4222 12.343 19.4222H13.6954C13.7763 19.4222 13.8562 19.43 13.9354 19.4451C14.0145 19.4599 14.0911 19.4823 14.1655 19.5118C14.2403 19.5412 14.3109 19.5776 14.3781 19.6202C14.4452 19.6631 14.5072 19.7118 14.5641 19.7666C14.6214 19.821 14.6723 19.8803 14.7168 19.9445C14.7617 20.0083 14.7998 20.0762 14.8306 20.1474C14.8614 20.2186 14.8845 20.2922 14.9003 20.3678C14.9161 20.4435 14.9238 20.52 14.9238 20.5969V23.7581C15.535 23.8951 16.1539 23.9712 16.7814 23.9855C17.5735 23.9965 18.3845 23.8517 19.0607 23.4575C20.2121 22.7863 20.8849 21.2366 19.9585 20.1327ZM12.831 17.7441C12.831 17.778 12.8242 17.8103 12.8109 17.8414C12.7972 17.8725 12.7784 17.8999 12.7536 17.9236C12.7288 17.9474 12.7001 17.9658 12.6676 17.9784C12.6351 17.9915 12.6013 17.9981 12.5658 17.9981H11.8319C11.7968 17.9981 11.763 17.9915 11.7301 17.9788C11.6976 17.9658 11.6689 17.9474 11.6441 17.9236C11.6193 17.8999 11.6 17.8725 11.5868 17.8414C11.5731 17.8103 11.5663 17.778 11.5663 17.7441V17.0426C11.5663 17.0091 11.5731 16.9768 11.5864 16.9457C11.6 16.9142 11.6193 16.8868 11.6441 16.8631C11.6689 16.8394 11.6976 16.821 11.7301 16.8083C11.7626 16.7952 11.7968 16.7886 11.8319 16.7891H12.5658C12.6013 16.7886 12.6351 16.7952 12.6676 16.8083C12.7001 16.821 12.7288 16.8394 12.7536 16.8631C12.7784 16.8868 12.7977 16.9146 12.8109 16.9457C12.8242 16.9768 12.831 17.0091 12.831 17.0426V17.7441ZM12.831 16.1751C12.831 16.2087 12.8242 16.241 12.8109 16.2721C12.7972 16.3032 12.7784 16.3306 12.7536 16.3547C12.7288 16.3784 12.7001 16.3968 12.6676 16.4095C12.6351 16.4226 12.6013 16.4291 12.5658 16.4291H11.8319C11.7968 16.4291 11.763 16.4226 11.7301 16.4095C11.6976 16.3968 11.6689 16.3784 11.6441 16.3547C11.6193 16.331 11.6 16.3032 11.5868 16.2721C11.5731 16.241 11.5663 16.2087 11.5663 16.1751V15.4737C11.5663 15.4402 11.5731 15.4074 11.5864 15.3763C11.6 15.3453 11.6193 15.3179 11.6441 15.2941C11.6689 15.2704 11.6976 15.252 11.7301 15.2389C11.7626 15.2262 11.7968 15.2197 11.8319 15.2197H12.5658C12.6013 15.2197 12.6351 15.2262 12.6676 15.2389C12.7001 15.252 12.7288 15.2704 12.7536 15.2941C12.7784 15.3179 12.7977 15.3453 12.8109 15.3763C12.8242 15.4074 12.831 15.4402 12.831 15.4737V16.1751ZM14.4722 17.7441C14.4722 17.778 14.4653 17.8103 14.4521 17.8414C14.4384 17.8725 14.4196 17.8999 14.3943 17.9236C14.3695 17.9474 14.3409 17.9658 14.3083 17.9788C14.2758 17.9915 14.242 17.9981 14.207 17.9981H13.4726C13.4375 17.9981 13.4037 17.9915 13.3712 17.9784C13.3387 17.9658 13.3101 17.9474 13.2852 17.9236C13.2604 17.8999 13.2412 17.8725 13.2279 17.8414C13.2142 17.8103 13.2078 17.778 13.2078 17.7441V17.0426C13.2078 17.0091 13.2142 16.9768 13.2279 16.9457C13.2412 16.9146 13.2604 16.8868 13.2852 16.8631C13.3101 16.8394 13.3387 16.821 13.3712 16.8083C13.4037 16.7952 13.4375 16.7886 13.4726 16.7891H14.207C14.242 16.7886 14.2758 16.7952 14.3083 16.8083C14.3409 16.821 14.3695 16.8394 14.3947 16.8631C14.4196 16.8868 14.4388 16.9142 14.4521 16.9457C14.4657 16.9768 14.4722 17.0091 14.4722 17.0426V17.7441ZM14.4722 16.1751C14.4722 16.2087 14.4653 16.241 14.4521 16.2721C14.4384 16.3032 14.4196 16.331 14.3943 16.3547C14.3695 16.3784 14.3409 16.3968 14.3083 16.4095C14.2758 16.4226 14.242 16.4291 14.207 16.4291H13.4726C13.4375 16.4291 13.4037 16.4226 13.3712 16.4095C13.3387 16.3968 13.3101 16.3784 13.2852 16.3547C13.2604 16.3306 13.2412 16.3032 13.2279 16.2721C13.2142 16.241 13.2078 16.2087 13.2078 16.1751V15.4737C13.2078 15.4402 13.2142 15.4074 13.2279 15.3763C13.2412 15.3453 13.2604 15.3179 13.2852 15.2941C13.3101 15.2704 13.3387 15.252 13.3712 15.2389C13.4037 15.2262 13.4375 15.2197 13.4726 15.2197H14.207C14.242 15.2197 14.2758 15.2262 14.3083 15.2389C14.3409 15.252 14.3695 15.2704 14.3947 15.2941C14.4196 15.3179 14.4388 15.3453 14.4521 15.3763C14.4657 15.4074 14.4722 15.4402 14.4722 15.4737V16.1751Z" fill="blue"/>
<path d="M21.9988 15.8849C21.3555 17.2035 20.0296 17.9135 19.0377 17.471C18.0458 17.028 17.7631 15.6006 18.4064 14.282C19.0497 12.9638 20.3752 12.2537 21.3675 12.6963C22.3593 13.1388 22.642 14.5662 21.9988 15.8849Z" fill="blue"/>
<path d="M4.04017 15.8849C4.68345 17.2035 6.00894 17.9135 7.00124 17.471C7.99312 17.028 8.27584 15.6006 7.63255 14.282C6.98927 12.9638 5.66335 12.2537 4.67147 12.6963C3.6796 13.1388 3.39688 14.5662 4.04017 15.8849Z" fill="blue"/>
<path d="M18.6989 10.7688C18.2541 12.4551 16.8251 13.5644 15.5073 13.2466C14.1891 12.9288 13.4812 11.3042 13.926 9.61787C14.3704 7.93154 15.7994 6.82191 17.1176 7.14012C18.4359 7.45792 19.1437 9.08248 18.6989 10.7688Z" fill="blue"/>
<path d="M12.1129 9.61762C12.1389 9.71782 12.1616 9.81844 12.18 9.91987C12.1988 10.0213 12.2134 10.1227 12.2241 10.2246C12.2348 10.3264 12.2412 10.4279 12.2437 10.5289C12.2463 10.6299 12.2446 10.7305 12.239 10.8299C12.2335 10.9297 12.2241 11.0279 12.2104 11.1252C12.1971 11.2221 12.1796 11.3174 12.1578 11.4111C12.1364 11.5048 12.1111 11.596 12.0821 11.6855C12.0525 11.7747 12.0196 11.8614 11.9833 11.9453C11.9465 12.0295 11.9063 12.1105 11.8626 12.1886C11.819 12.2663 11.772 12.3412 11.7215 12.4123C11.6715 12.4835 11.618 12.551 11.5615 12.6148C11.5046 12.6786 11.4456 12.7383 11.3836 12.7939C11.3212 12.8496 11.2566 12.9011 11.1894 12.9481C11.1223 12.9952 11.053 13.0377 10.9815 13.0758C10.9101 13.1138 10.8366 13.1469 10.7613 13.1755C10.6864 13.2042 10.6094 13.2279 10.5316 13.2467C10.4533 13.2655 10.3738 13.2794 10.2938 13.2884C10.2134 13.2974 10.1321 13.3011 10.0504 13.3003C9.96872 13.2991 9.88617 13.2933 9.80405 13.2823C9.7215 13.2713 9.63895 13.2553 9.55683 13.2344C9.47428 13.2136 9.39258 13.1878 9.31132 13.1576C9.23005 13.1269 9.14921 13.0917 9.06966 13.052C8.9901 13.0119 8.91183 12.9678 8.83441 12.9187C8.75742 12.87 8.68172 12.8169 8.60772 12.7592C8.53416 12.7019 8.46187 12.6406 8.39216 12.5751C8.32201 12.5101 8.25443 12.441 8.18899 12.3682C8.12355 12.2954 8.0611 12.2197 8.0008 12.1404C7.94092 12.061 7.8836 11.9788 7.82928 11.8937C7.77496 11.8082 7.72406 11.7207 7.67616 11.6303C7.62825 11.5403 7.58377 11.4479 7.54228 11.3534C7.50122 11.259 7.46401 11.1632 7.42979 11.0655C7.396 10.9677 7.36606 10.8688 7.33955 10.769C7.31303 10.6688 7.29079 10.5681 7.27197 10.4667C7.25358 10.3657 7.23903 10.2638 7.22834 10.162C7.21765 10.0606 7.21123 9.95913 7.20867 9.8577C7.2061 9.75668 7.20738 9.65606 7.21294 9.55667C7.2185 9.45688 7.22791 9.35872 7.2416 9.26178C7.25529 9.16444 7.27282 9.06914 7.29421 8.97548C7.31602 8.88182 7.34126 8.79061 7.37034 8.70144C7.39943 8.61187 7.43236 8.52557 7.46914 8.44132C7.50593 8.35747 7.54571 8.27608 7.58976 8.19837C7.63339 8.12025 7.68044 8.04581 7.73048 7.97423C7.78095 7.90307 7.83441 7.83558 7.89087 7.77178C7.94733 7.70797 8.00678 7.64826 8.0688 7.59263C8.13082 7.53701 8.19541 7.48547 8.26256 7.43844C8.32971 7.3914 8.399 7.34887 8.47086 7.31083C8.54228 7.2732 8.61542 7.23966 8.6907 7.21103C8.76598 7.1824 8.84254 7.15909 8.92081 7.13986C8.99908 7.12105 9.07821 7.10714 9.15862 7.09815C9.23903 7.08956 9.3203 7.08547 9.40199 7.08628C9.48369 7.08751 9.56581 7.09365 9.64836 7.10428C9.73091 7.11532 9.81303 7.13127 9.89558 7.15213C9.9777 7.17299 10.0594 7.19876 10.1411 7.22944C10.2224 7.2597 10.3028 7.29488 10.3823 7.33496C10.4623 7.37463 10.5406 7.41921 10.6176 7.46789C10.695 7.51697 10.7703 7.57014 10.8443 7.6274C10.9182 7.68466 10.9901 7.74601 11.0602 7.81145C11.13 7.87689 11.198 7.9456 11.263 8.01841C11.3284 8.09121 11.3913 8.16728 11.4512 8.24622C11.5115 8.32557 11.5688 8.40778 11.6227 8.49326C11.677 8.57833 11.7283 8.66586 11.7762 8.75625C11.8241 8.84623 11.8686 8.93867 11.9097 9.03315C11.9508 9.12763 11.9884 9.22374 12.0222 9.32109C12.0564 9.41884 12.0863 9.51782 12.1129 9.61762Z" fill="blue"/>
<path d="M14.6638 21.6547C14.6638 21.7009 14.6544 21.7451 14.636 21.7876C14.6176 21.8302 14.5915 21.8674 14.5573 21.9001C14.5235 21.9324 14.4842 21.9578 14.4397 21.9754C14.3952 21.9929 14.349 22.0015 14.3011 22.0015C14.2528 22.0015 14.2066 21.9929 14.1621 21.9754C14.1176 21.9578 14.0783 21.9324 14.0445 21.9001C14.0103 21.8674 13.9842 21.8302 13.9658 21.7876C13.9474 21.7451 13.938 21.7009 13.938 21.6547C13.938 21.6089 13.9474 21.5643 13.9658 21.5218C13.9842 21.4796 14.0103 21.442 14.0445 21.4093C14.0783 21.377 14.1176 21.3516 14.1621 21.334C14.2066 21.3165 14.2528 21.3079 14.3011 21.3079C14.349 21.3079 14.3952 21.3165 14.4397 21.334C14.4842 21.3516 14.5235 21.377 14.5573 21.4093C14.5915 21.442 14.6176 21.4796 14.636 21.5218C14.6544 21.5643 14.6638 21.6089 14.6638 21.6547Z" fill="blue"/>
<mask id="mask0_243_1835" style="mask-type:luminance" maskUnits="userSpaceOnUse" x="0" y="0" width="26" height="13">
<path d="M0 0H26V12.0411H0V0Z" fill="blue"/>
</mask>
<g mask="url(#mask0_243_1835)">
<path d="M25.7318 11.8228C25.6942 11.8527 25.6544 11.8793 25.6121 11.9026C25.5697 11.9259 25.5257 11.9456 25.4799 11.9611C25.4341 11.977 25.3871 11.9893 25.3392 11.9971C25.2913 12.0053 25.2429 12.0094 25.1942 12.0094C25.1454 12.0094 25.0971 12.0053 25.0488 11.9971C25.0009 11.9893 24.9542 11.977 24.908 11.9611C24.8623 11.9456 24.8182 11.9259 24.7759 11.9026C24.734 11.8793 24.6938 11.8527 24.6565 11.8228L22.6257 10.1169L21.4239 9.10747L14.8071 3.54786L13.7399 2.65132C13.6535 2.57893 13.5577 2.52085 13.4521 2.47709C13.3464 2.43373 13.2365 2.40674 13.1219 2.3961C13.0073 2.38588 12.8939 2.39283 12.7819 2.41696C12.6694 2.44069 12.5637 2.48077 12.4649 2.53639C12.4055 2.56993 12.3503 2.60797 12.2985 2.65132L11.2288 3.55032L4.62275 9.10051L3.41574 10.1144L1.37639 11.8278C1.34046 11.8588 1.30154 11.8862 1.26005 11.9108C1.21856 11.9349 1.17494 11.9554 1.1296 11.9721C1.08383 11.9889 1.03721 12.0012 0.989307 12.0098C0.941403 12.0184 0.893499 12.0224 0.844739 12.0224C0.795979 12.0224 0.747648 12.0184 0.699743 12.0098C0.651839 12.0012 0.605218 11.9889 0.55988 11.9721C0.514542 11.9554 0.470915 11.9349 0.429427 11.9108C0.387938 11.8862 0.349016 11.8588 0.31266 11.8278L0.3071 11.8228C0.258768 11.7807 0.215569 11.7341 0.177074 11.6834C0.139008 11.6327 0.106501 11.5787 0.0799828 11.5214C0.0538922 11.4642 0.0337896 11.4048 0.0201027 11.3435C0.00684346 11.2821 0 11.2204 0 11.1578C0 11.0952 0.00684346 11.0331 0.0201027 10.9717C0.0337896 10.9108 0.0538922 10.8515 0.0799828 10.7942C0.106501 10.7369 0.139008 10.6825 0.177074 10.6318C0.215569 10.5811 0.258768 10.5345 0.3071 10.4924L1.04277 9.87435L4.96364 6.58063L8.58041 3.54295L12.4816 0.265597C12.5184 0.234104 12.5577 0.206292 12.5997 0.181751C12.6416 0.15762 12.6856 0.136761 12.7318 0.119992C12.7776 0.103222 12.8246 0.0905432 12.873 0.0823631C12.9213 0.073774 12.9701 0.0692749 13.0192 0.0692749C13.0684 0.0692749 13.1172 0.073774 13.1655 0.0823631C13.2139 0.0905432 13.2613 0.103222 13.3071 0.119992C13.3529 0.136761 13.3969 0.15762 13.4388 0.181751C13.4812 0.206292 13.5205 0.234104 13.5569 0.265597L14.1779 0.787079L17.4461 3.53232L17.8944 3.90901L21.4162 6.86735L25.7318 10.4924C25.7802 10.5345 25.8234 10.5811 25.8614 10.6318C25.8999 10.6825 25.932 10.7369 25.9585 10.7942C25.985 10.8515 26.0051 10.9108 26.0184 10.9717C26.0321 11.0331 26.0389 11.0952 26.0389 11.1578C26.0389 11.2204 26.0321 11.2821 26.0184 11.3435C26.0051 11.4048 25.985 11.4642 25.9585 11.5214C25.932 11.5787 25.8999 11.6327 25.8614 11.6834C25.8234 11.7341 25.7802 11.7807 25.7318 11.8228Z" fill="blue"/>
</g>
<path d="M20.6232 1.5143V4.90741C20.6232 4.93276 20.6159 4.95649 20.6013 4.97776C20.5868 4.99943 20.5676 5.01538 20.5432 5.02602C20.5188 5.03624 20.4931 5.03992 20.467 5.03583C20.4405 5.03215 20.417 5.02193 20.3969 5.00516L17.8623 2.87547C17.8315 2.8497 17.8161 2.81698 17.8161 2.77772V1.5143C17.8152 1.43905 17.8392 1.37156 17.8883 1.31266C17.938 1.2509 18.0034 1.21941 18.0847 1.21777H20.3541C20.5025 1.21777 20.6232 1.3507 20.6232 1.5143Z" fill="blue"/>
</svg>
