<svg width="14" height="24" viewBox="0 0 14 24" fill="none" xmlns="http://www.w3.org/2000/svg">
<path d="M4.97302 10.815C4.9622 10.8096 4.95072 10.8049 4.93924 10.8002C4.45831 10.6569 3.96327 10.9648 3.70509 11.3226C3.45085 11.638 3.3544 12.1542 3.71723 12.4279C3.77037 12.4669 3.83467 12.492 3.90094 12.5056C4.48258 12.5928 5.01994 12.1666 5.21185 11.6914C5.36111 11.3965 5.31125 10.9734 4.97302 10.815ZM3.09917 9.93139C2.82229 9.8052 2.45815 9.95591 2.2728 10.1731C1.90013 10.6007 1.78531 11.3008 2.23409 11.7101C2.27838 11.7446 2.32988 11.7706 2.385 11.7881C2.78161 11.9086 3.15757 11.6108 3.32192 11.3026C3.5473 10.9007 3.59552 10.3327 3.2117 10.0029C3.17626 9.97305 3.13854 9.94941 3.09917 9.93139ZM5.35357 12.7494C4.86542 12.5467 4.28411 12.8212 3.99772 13.2015C3.76184 13.4616 3.69951 13.932 4.04824 14.1306C4.55705 14.3694 5.1961 14.0425 5.46412 13.6247C5.66358 13.359 5.68589 12.9305 5.35357 12.7494ZM1.15905 10.843C0.958938 10.744 0.695181 10.7585 0.518031 10.9137C0.0446473 11.3289 0.019059 12.1326 0.535418 12.518C0.754887 12.6728 1.06851 12.6058 1.25025 12.4305C1.63768 12.0552 1.67935 11.4216 1.35589 11.0097C1.30602 10.9382 1.23713 10.8817 1.15905 10.843ZM2.74323 12.765C2.34858 12.5753 1.83911 12.5644 1.4215 12.713C0.956314 12.8971 0.510158 13.1572 0.183087 13.515C-0.0964166 13.7512 -0.0508168 14.2009 0.285112 14.3658C0.684356 14.5724 1.18497 14.4867 1.5993 14.6628C1.97001 14.7807 2.1793 15.0916 2.42338 15.3469C2.62415 15.5762 3.00928 15.7119 3.29699 15.5189C3.55878 15.3073 3.57092 14.9521 3.58174 14.6569C3.54598 14.1516 3.50301 13.6182 3.2153 13.174C3.10147 12.9935 2.93613 12.8581 2.74323 12.765Z" fill="white"/>
<path d="M12.1804 0.929338C12.1696 0.924314 12.1581 0.91929 12.1466 0.914858C11.6657 0.771535 11.1707 1.07946 10.9125 1.43732C10.6586 1.75233 10.5618 2.26859 10.9246 2.54253C10.9774 2.58124 11.0421 2.60636 11.1083 2.62025C11.69 2.70742 12.2273 2.2813 12.4192 1.80612C12.5685 1.5112 12.5183 1.08803 12.1804 0.929338ZM10.3066 0.0460568C10.0297 -0.0801262 9.66555 0.0702887 9.4802 0.287489C9.10753 0.715388 8.99271 1.41545 9.44116 1.82473C9.48577 1.85901 9.53728 1.88531 9.59239 1.90275C9.98868 2.02332 10.365 1.72515 10.529 1.41693C10.7547 1.01504 10.8032 0.447064 10.4191 0.11757C10.3837 0.0877237 10.3463 0.0640829 10.3066 0.0460568ZM12.561 2.86404C12.0728 2.66132 11.4915 2.93556 11.2051 3.31588C10.9692 3.57623 10.9069 4.04668 11.2556 4.24526C11.7644 4.48403 12.4038 4.1572 12.6715 3.73905C12.871 3.47368 12.8933 3.0449 12.561 2.86404ZM8.36645 0.957707C8.16634 0.858711 7.90258 0.873191 7.72543 1.02833C7.25204 1.44353 7.22646 2.24702 7.74314 2.63236C7.96196 2.78721 8.27558 2.72013 8.45732 2.54519C8.84508 2.1696 8.88675 1.53632 8.56328 1.12437C8.51342 1.05257 8.44453 0.996419 8.36645 0.957707ZM9.95063 2.87971C9.55598 2.68969 9.04651 2.67876 8.62889 2.8277C8.16371 3.0115 7.71756 3.27155 7.39048 3.62942C7.11098 3.86583 7.15658 4.3153 7.49251 4.48049C7.89175 4.68705 8.39237 4.60106 8.8067 4.77748C9.1774 4.89538 9.3867 5.20626 9.63078 5.46158C9.83155 5.6906 10.217 5.82654 10.5044 5.63357C10.7662 5.42169 10.7783 5.06678 10.7891 4.77157C10.7534 4.26624 10.7104 3.73285 10.4227 3.28869C10.3089 3.10814 10.1435 2.9725 9.95063 2.87971Z" fill="white"/>
<path d="M13.3634 8.98134C13.3526 8.97602 13.3411 8.97129 13.3296 8.96656C12.849 8.82354 12.3536 9.13146 12.0955 9.48903C11.8415 9.80434 11.7448 10.3206 12.1076 10.5945C12.1607 10.6332 12.225 10.6584 12.2913 10.6723C12.8729 10.7591 13.4103 10.3333 13.6025 9.85782C13.7515 9.5632 13.7016 9.13973 13.3634 8.98134ZM11.4895 8.09806C11.2127 7.97188 10.8488 8.12229 10.6635 8.33949C10.2905 8.76739 10.1757 9.46716 10.6245 9.87674C10.6687 9.91102 10.7202 9.93732 10.7754 9.95475C11.172 10.0753 11.5479 9.77715 11.7123 9.46893C11.938 9.06704 11.9862 8.49907 11.6021 8.16957C11.5666 8.13973 11.5292 8.11608 11.4895 8.09806ZM13.7439 10.916C13.2558 10.713 12.6745 10.9876 12.3881 11.3679C12.1525 11.6282 12.0902 12.0984 12.4386 12.297C12.9474 12.536 13.5868 12.2089 13.8545 11.7911C14.0539 11.5257 14.0763 11.0969 13.7439 10.916ZM9.54942 9.00971C9.34931 8.91071 9.08588 8.92519 8.9084 9.08034C8.43501 9.49523 8.40943 10.299 8.92611 10.6844C9.14525 10.8392 9.45888 10.7721 9.64062 10.5969C10.0281 10.2216 10.0697 9.58832 9.74625 9.17638C9.69639 9.10457 9.62782 9.04812 9.54942 9.00971ZM11.1339 10.9317C10.7393 10.7417 10.2295 10.7308 9.81186 10.8797C9.34701 11.0635 8.90085 11.3236 8.57345 11.6814C8.29428 11.9178 8.33955 12.3673 8.67548 12.5325C9.07505 12.7391 9.57534 12.6531 9.98967 12.8292C10.3604 12.9471 10.5697 13.2583 10.8137 13.5136C11.0148 13.7426 11.4 13.8785 11.6874 13.6856C11.9491 13.4737 11.9613 13.1188 11.9721 12.8233C11.9367 12.3182 11.8937 11.7846 11.6057 11.3407C11.4918 11.1601 11.3265 11.0245 11.1339 10.9317Z" fill="white"/>
<path d="M7.11592 19.2036C7.10476 19.1983 7.09328 19.1936 7.0818 19.1889C6.6012 19.0455 6.10616 19.3535 5.84766 19.7113C5.59374 20.0266 5.49696 20.5429 5.85979 20.8165C5.91294 20.8555 5.97724 20.8807 6.04383 20.8942C6.62515 20.9814 7.16283 20.5556 7.35474 20.0801C7.50368 19.7855 7.45382 19.362 7.11559 19.2036H7.11592ZM5.24174 18.3201C4.96486 18.1942 4.60104 18.3446 4.41569 18.5618C4.04269 18.9894 3.92787 19.6895 4.37665 20.0987C4.42094 20.1333 4.47245 20.1593 4.52756 20.177C4.92418 20.2973 5.30046 19.9994 5.46449 19.6912C5.69019 19.289 5.73841 18.7214 5.35426 18.3916C5.31883 18.3617 5.28143 18.3381 5.24174 18.3201ZM7.49613 21.1383C7.00799 20.9353 6.42667 21.2099 6.14028 21.5902C5.90474 21.8502 5.84241 22.3207 6.1908 22.5193C6.69962 22.758 7.339 22.4312 7.60669 22.0133C7.80615 21.7477 7.82845 21.3192 7.49613 21.1383ZM3.30162 19.2317C3.1015 19.133 2.83807 19.1472 2.6606 19.3023C2.18721 19.7175 2.16162 20.5213 2.67831 20.9067C2.89745 21.0615 3.21107 20.9944 3.39282 20.8192C3.78025 20.4439 3.82191 19.8103 3.49845 19.3984C3.44859 19.3269 3.38002 19.2704 3.30162 19.2317ZM4.88612 21.154C4.49147 20.964 3.98168 20.9531 3.56406 21.1017C3.09921 21.2858 2.65305 21.5458 2.32565 21.9037C2.04648 22.1401 2.09175 22.5896 2.42768 22.7548C2.82725 22.9613 3.32753 22.8753 3.74187 23.0515C4.11257 23.1694 4.32187 23.4803 4.56594 23.7359C4.76704 23.9649 5.15218 24.1008 5.43955 23.9079C5.70134 23.696 5.71348 23.3408 5.72431 23.0456C5.68888 22.5405 5.6459 22.0068 5.35787 21.563C5.24403 21.3824 5.07869 21.2468 4.88612 21.154Z" fill="white"/>
</svg>
