<svg width="24" height="24" viewBox="0 0 24 24" fill="none" xmlns="http://www.w3.org/2000/svg">
<mask id="mask0_243_1854" style="mask-type:luminance" maskUnits="userSpaceOnUse" x="0" y="0" width="24" height="24">
<path d="M0 0H24V24H0V0Z" fill="white"/>
</mask>
<g mask="url(#mask0_243_1854)">
<path d="M22.0326 6.00869H17.6261V2.80397C17.6257 2.71238 17.6214 2.62078 17.6123 2.52918C17.6032 2.43798 17.5894 2.34717 17.5716 2.25716C17.5535 2.16714 17.5314 2.0783 17.5045 1.99026C17.4777 1.90261 17.4469 1.81615 17.4117 1.73166C17.3766 1.64677 17.3371 1.56386 17.2941 1.48292C17.2506 1.40199 17.2033 1.32342 17.1523 1.24683C17.1014 1.17063 17.0465 1.0968 16.9885 1.02612C16.9301 0.955057 16.8685 0.887149 16.8037 0.822399C16.739 0.757255 16.6707 0.695664 16.6 0.637626C16.5289 0.579193 16.4551 0.524709 16.3789 0.473383C16.3027 0.422452 16.2241 0.375469 16.1432 0.332039C16.0622 0.28861 15.9793 0.249523 15.8945 0.214384C15.8096 0.179246 15.7231 0.148056 15.6355 0.121603C15.5478 0.0947555 15.4586 0.0722511 15.3686 0.0544844C15.2785 0.0363229 15.1877 0.0228993 15.0965 0.0138185C15.0053 0.00473775 14.9137 0 14.8217 0H9.2134C9.1218 0 9.0302 0.00473775 8.93861 0.0138185C8.8474 0.0228993 8.7566 0.0363229 8.66658 0.0544844C8.57656 0.0722511 8.48773 0.0947555 8.40008 0.121603C8.31204 0.148056 8.22557 0.179246 8.14108 0.214384C8.0562 0.249523 7.97328 0.28861 7.89235 0.332039C7.81141 0.375469 7.73284 0.422452 7.65625 0.473383C7.58005 0.524709 7.50661 0.579193 7.43555 0.637626C7.36448 0.695664 7.29657 0.757255 7.23182 0.822399C7.16668 0.887149 7.10509 0.955057 7.04705 1.02612C6.98862 1.0968 6.93413 1.17063 6.88281 1.24683C6.83187 1.32342 6.78489 1.40199 6.74146 1.48292C6.69803 1.56386 6.65895 1.64677 6.62381 1.73166C6.58867 1.81615 6.55748 1.90261 6.53103 1.99026C6.50418 2.0783 6.48167 2.16714 6.46391 2.25716C6.44575 2.34717 6.43232 2.43798 6.42324 2.52918C6.41416 2.62078 6.40942 2.71238 6.40942 2.80397V6.00869H2.0029C1.93736 6.00908 1.87182 6.01224 1.80667 6.01856C1.74153 6.02527 1.67678 6.03474 1.61242 6.04777C1.54807 6.06041 1.4845 6.07659 1.42173 6.09555C1.35895 6.1145 1.29736 6.13661 1.23695 6.16187C1.17615 6.18714 1.11693 6.21517 1.05929 6.24597C1.00125 6.27716 0.945186 6.31072 0.890702 6.34704C0.836218 6.38376 0.783707 6.42245 0.732776 6.4643C0.68224 6.50576 0.633678 6.54998 0.587484 6.59617C0.540896 6.64236 0.497072 6.69093 0.455221 6.74186C0.413766 6.79239 0.374679 6.8449 0.338356 6.89939C0.301638 6.95427 0.268079 7.01033 0.237284 7.06797C0.206093 7.12601 0.178061 7.18523 0.153188 7.24564C0.12792 7.30605 0.10581 7.36803 0.0868592 7.43081C0.0675132 7.49319 0.0517207 7.55675 0.0386918 7.62111C0.0260577 7.68546 0.0161874 7.75021 0.00987034 7.81536C0.00315852 7.8809 0 7.94604 0 8.01158V20.8308C0 20.8964 0.00315852 20.9615 0.00987034 21.027C0.0161874 21.0922 0.0260577 21.1569 0.0386918 21.2213C0.0517207 21.2856 0.0675132 21.3492 0.0868592 21.412C0.10581 21.4748 0.12792 21.5364 0.153188 21.5968C0.178061 21.6576 0.206093 21.7164 0.237284 21.7744C0.268079 21.8321 0.301638 21.8885 0.338356 21.943C0.374679 21.9975 0.413766 22.05 0.455221 22.1005C0.497072 22.1515 0.540896 22.2 0.587484 22.2462C0.633678 22.2928 0.68224 22.3366 0.732776 22.3781C0.783707 22.42 0.836218 22.459 0.890702 22.4954C0.945186 22.5317 1.00125 22.5656 1.05929 22.5964C1.11693 22.6272 1.17615 22.6553 1.23695 22.6805C1.29736 22.7058 1.35895 22.7279 1.42173 22.7469C1.4845 22.7658 1.54807 22.782 1.61242 22.7946C1.67678 22.8077 1.74153 22.8171 1.80667 22.8238C1.87182 22.8302 1.93736 22.8337 2.0029 22.8337H3.20471C3.20471 22.9127 3.21221 22.9909 3.22761 23.0682C3.24301 23.1456 3.26591 23.2206 3.29631 23.2937C3.32631 23.3663 3.36343 23.4358 3.40725 23.5013C3.45108 23.5669 3.50082 23.6277 3.55649 23.6834C3.61256 23.739 3.67336 23.7892 3.7389 23.833C3.80444 23.8768 3.87353 23.9139 3.94657 23.9439C4.01961 23.9739 4.09462 23.9968 4.17201 24.0122C4.24939 24.0276 4.32756 24.0355 4.40653 24.0355H6.81016C6.88873 24.0355 6.9669 24.0276 7.04429 24.0122C7.12167 23.9968 7.19708 23.9739 7.26972 23.9439C7.34276 23.9139 7.41186 23.8768 7.47779 23.833C7.54333 23.7892 7.60413 23.739 7.6598 23.6834C7.71547 23.6277 7.76522 23.5669 7.80904 23.5013C7.85326 23.4358 7.88998 23.3663 7.92038 23.2937C7.95038 23.2206 7.97328 23.1456 7.98868 23.0682C8.00408 22.9909 8.01158 22.9127 8.01158 22.8337H16.0236C16.0236 22.9127 16.0315 22.9909 16.0469 23.0682C16.0622 23.1456 16.0848 23.2206 16.1152 23.2937C16.1452 23.3663 16.1823 23.4358 16.2261 23.5013C16.2699 23.5669 16.3197 23.6277 16.3757 23.6834C16.4314 23.739 16.4922 23.7892 16.5577 23.833C16.6233 23.8768 16.6924 23.9139 16.7654 23.9439C16.8385 23.9739 16.9135 23.9968 16.9909 24.0122C17.0682 24.0276 17.1464 24.0355 17.2254 24.0355H19.629C19.708 24.0355 19.7861 24.0276 19.8635 24.0122C19.9409 23.9968 20.0159 23.9739 20.089 23.9439C20.1616 23.9139 20.2311 23.8768 20.2966 23.833C20.3622 23.7892 20.423 23.739 20.4786 23.6834C20.5343 23.6277 20.5845 23.5669 20.6283 23.5013C20.6721 23.4358 20.7088 23.3663 20.7392 23.2937C20.7692 23.2206 20.7921 23.1456 20.8075 23.0682C20.8229 22.9909 20.8308 22.9127 20.8308 22.8337H22.0326C22.0982 22.8337 22.1633 22.8302 22.2289 22.8238C22.294 22.8171 22.3588 22.8077 22.4231 22.7946C22.4875 22.782 22.551 22.7658 22.6138 22.7469C22.6762 22.7279 22.7382 22.7058 22.7986 22.6805C22.859 22.6553 22.9182 22.6272 22.9762 22.5964C23.0339 22.5656 23.0903 22.5317 23.1448 22.4954C23.1993 22.459 23.2518 22.42 23.3024 22.3781C23.3533 22.3366 23.4019 22.2928 23.448 22.2462C23.4942 22.2 23.5385 22.1515 23.5799 22.1005C23.6218 22.05 23.6609 21.9975 23.6972 21.943C23.7335 21.8885 23.7671 21.8321 23.7982 21.7744C23.829 21.7164 23.8571 21.6576 23.8823 21.5968C23.9076 21.5364 23.9297 21.4748 23.9487 21.412C23.9676 21.3492 23.9838 21.2856 23.9964 21.2213C24.0095 21.1569 24.019 21.0922 24.0257 21.027C24.032 20.9615 24.0351 20.8964 24.0355 20.8308V19.6172C24.0355 19.5911 24.0328 19.565 24.0276 19.539C24.0225 19.5133 24.015 19.4885 24.0047 19.464C23.9949 19.4399 23.9826 19.4166 23.968 19.3949C23.9534 19.3728 23.9368 19.3526 23.9179 19.3341C23.8993 19.3155 23.8792 19.2989 23.8575 19.2843C23.8354 19.2697 23.8125 19.2571 23.788 19.2472C23.7639 19.237 23.7386 19.2295 23.713 19.2243C23.6873 19.2192 23.6612 19.2168 23.6348 19.2168C23.6083 19.2168 23.5823 19.2192 23.5566 19.2243C23.531 19.2295 23.5057 19.237 23.4816 19.2472C23.4571 19.2571 23.4342 19.2697 23.4121 19.2843C23.3904 19.2989 23.3703 19.3155 23.3517 19.3341C23.3328 19.3526 23.3162 19.3728 23.3016 19.3949C23.287 19.4166 23.2747 19.4399 23.2649 19.464C23.2546 19.4885 23.2471 19.5133 23.242 19.539C23.2368 19.565 23.2341 19.5911 23.2341 19.6172V20.8308C23.2341 20.9098 23.2266 20.9876 23.2112 21.0649C23.1958 21.1427 23.1729 21.2177 23.1429 21.2904C23.1125 21.3634 23.0753 21.4329 23.0315 21.4985C22.9877 21.564 22.9379 21.6248 22.8823 21.6805C22.8266 21.7361 22.7658 21.7863 22.7003 21.8301C22.6343 21.8739 22.5652 21.9106 22.4922 21.941C22.4196 21.971 22.3441 21.9939 22.2668 22.0093C22.1894 22.0247 22.1112 22.0326 22.0326 22.0326H2.0029C1.92393 22.0326 1.84576 22.0247 1.76838 22.0093C1.69099 21.9939 1.61598 21.971 1.54294 21.941C1.47029 21.9106 1.4008 21.8739 1.33526 21.8301C1.26972 21.7863 1.20892 21.7361 1.15325 21.6805C1.09719 21.6248 1.04744 21.564 1.00362 21.4985C0.959795 21.4329 0.922682 21.3634 0.892676 21.2904C0.862275 21.2177 0.839771 21.1427 0.824373 21.0649C0.808975 20.9876 0.801079 20.9098 0.801079 20.8308V8.01158C0.801079 7.93301 0.808975 7.85484 0.824373 7.77746C0.839771 7.70007 0.862275 7.62466 0.892676 7.55202C0.922682 7.47898 0.959795 7.40988 1.00362 7.34395C1.04744 7.27841 1.09719 7.21761 1.15325 7.16194C1.20892 7.10627 1.26972 7.05652 1.33526 7.0127C1.4008 6.96888 1.47029 6.93176 1.54294 6.90136C1.61598 6.87136 1.69099 6.84846 1.76838 6.83306C1.84576 6.81766 1.92393 6.81016 2.0029 6.81016H22.0326C22.1112 6.81016 22.1894 6.81766 22.2668 6.83306C22.3441 6.84846 22.4196 6.87136 22.4922 6.90136C22.5652 6.93176 22.6343 6.96888 22.7003 7.0127C22.7658 7.05652 22.8266 7.10627 22.8823 7.16194C22.9379 7.21761 22.9877 7.27841 23.0315 7.34395C23.0753 7.40988 23.1125 7.47898 23.1429 7.55202C23.1729 7.62466 23.1958 7.70007 23.2112 7.77746C23.2266 7.85484 23.2341 7.93301 23.2341 8.01158V16.8246C23.2341 16.8511 23.2368 16.8771 23.242 16.9028C23.2471 16.9289 23.2546 16.9537 23.2649 16.9782C23.2747 17.0023 23.287 17.0256 23.3016 17.0473C23.3162 17.069 23.3328 17.0896 23.3517 17.1081C23.3703 17.1267 23.3904 17.1433 23.4121 17.1579C23.4342 17.1725 23.4571 17.1847 23.4816 17.195C23.5057 17.2048 23.531 17.2123 23.5566 17.2175C23.5823 17.2226 23.6083 17.2254 23.6348 17.2254C23.6612 17.2254 23.6873 17.2226 23.713 17.2175C23.7386 17.2123 23.7639 17.2048 23.788 17.195C23.8125 17.1847 23.8354 17.1725 23.8575 17.1579C23.8792 17.1433 23.8993 17.1267 23.9179 17.1081C23.9368 17.0896 23.9534 17.069 23.968 17.0473C23.9826 17.0256 23.9949 17.0023 24.0047 16.9782C24.015 16.9537 24.0225 16.9289 24.0276 16.9028C24.0328 16.8771 24.0355 16.8511 24.0355 16.8246V8.01158C24.0351 7.94604 24.032 7.8809 24.0257 7.81536C24.019 7.75021 24.0095 7.68546 23.9964 7.62111C23.9838 7.55675 23.9676 7.49319 23.9487 7.43081C23.9297 7.36803 23.9076 7.30605 23.8823 7.24564C23.8571 7.18523 23.829 7.12601 23.7982 7.06797C23.7671 7.01033 23.7335 6.95427 23.6972 6.89939C23.6609 6.8449 23.6218 6.79239 23.5799 6.74186C23.5385 6.69093 23.4942 6.64236 23.448 6.59617C23.4019 6.54998 23.3533 6.50576 23.3024 6.4643C23.2518 6.42245 23.1993 6.38376 23.1448 6.34704C23.0903 6.31072 23.0339 6.27716 22.9762 6.24597C22.9182 6.21517 22.859 6.18714 22.7986 6.16187C22.7382 6.13661 22.6762 6.1145 22.6138 6.09555C22.551 6.07659 22.4875 6.06041 22.4231 6.04777C22.3588 6.03474 22.294 6.02527 22.2289 6.01856C22.1633 6.01224 22.0982 6.00908 22.0326 6.00869ZM20.0293 22.8337C20.0293 22.8598 20.027 22.8858 20.0218 22.9119C20.0167 22.9376 20.0092 22.9628 19.9989 22.9869C19.9891 23.0114 19.9764 23.0343 19.9618 23.0564C19.9472 23.0781 19.9306 23.0982 19.9121 23.1168C19.8935 23.1354 19.8734 23.1519 19.8513 23.1665C19.8296 23.1812 19.8067 23.1938 19.7822 23.2037C19.7577 23.2139 19.7328 23.2214 19.7072 23.2266C19.6811 23.2317 19.6551 23.2341 19.629 23.2341H17.2254C17.1989 23.2341 17.1729 23.2317 17.1472 23.2266C17.1215 23.2214 17.0963 23.2139 17.0722 23.2037C17.0477 23.1938 17.0248 23.1812 17.0027 23.1665C16.981 23.1519 16.9608 23.1354 16.9423 23.1168C16.9233 23.0982 16.9068 23.0781 16.8921 23.0564C16.8775 23.0343 16.8653 23.0114 16.8554 22.9869C16.8452 22.9628 16.8377 22.9376 16.8325 22.9119C16.8274 22.8858 16.8246 22.8598 16.8246 22.8337H20.0293ZM7.2105 22.8337C7.2105 22.8598 7.20813 22.8858 7.203 22.9119C7.19787 22.9376 7.18997 22.9628 7.1801 22.9869C7.16984 23.0114 7.1576 23.0343 7.14299 23.0564C7.12838 23.0781 7.1118 23.0982 7.09324 23.1168C7.07469 23.1354 7.05455 23.1519 7.03244 23.1665C7.01073 23.1812 6.98743 23.1938 6.96335 23.2037C6.93887 23.2139 6.914 23.2214 6.88833 23.2266C6.86228 23.2317 6.83622 23.2341 6.81016 23.2341H4.40653C4.38007 23.2341 4.35402 23.2317 4.32835 23.2266C4.30269 23.2214 4.27742 23.2139 4.25334 23.2037C4.22886 23.1938 4.20596 23.1812 4.18385 23.1665C4.16214 23.1519 4.14161 23.1354 4.12305 23.1168C4.10449 23.0982 4.08791 23.0781 4.0733 23.0564C4.0587 23.0343 4.04646 23.0114 4.03619 22.9869C4.02632 22.9628 4.01882 22.9376 4.01369 22.9119C4.00855 22.8858 4.00579 22.8598 4.00579 22.8337H7.2105ZM8.81306 6.00869V2.80397C8.81306 2.77792 8.81542 2.75186 8.82056 2.7258C8.82569 2.70014 8.83319 2.67526 8.84346 2.65079C8.85333 2.62631 8.86596 2.60341 8.88057 2.58169C8.89518 2.55958 8.91176 2.53945 8.93032 2.52089C8.94887 2.50234 8.96901 2.48575 8.99112 2.47115C9.01283 2.45654 9.03613 2.4439 9.06021 2.43403C9.08469 2.42377 9.10956 2.41627 9.13522 2.41113C9.16128 2.406 9.18734 2.40363 9.2134 2.40363H14.8217C14.8482 2.40363 14.8743 2.406 14.8999 2.41113C14.9256 2.41627 14.9508 2.42377 14.9749 2.43403C14.9994 2.4439 15.0223 2.45654 15.0444 2.47115C15.0661 2.48575 15.0867 2.50234 15.1052 2.52089C15.1238 2.53945 15.1404 2.55958 15.155 2.58169C15.1696 2.60341 15.1818 2.62631 15.1921 2.65079C15.2019 2.67526 15.2094 2.70014 15.2146 2.7258C15.2197 2.75186 15.2225 2.77792 15.2225 2.80397V6.00869H8.81306ZM16.0236 6.00869V2.80397C16.0236 2.72501 16.0161 2.64684 16.0007 2.56945C15.9853 2.49207 15.9624 2.41706 15.932 2.34402C15.902 2.27137 15.8648 2.20188 15.821 2.13634C15.7772 2.0708 15.7274 2.01 15.6718 1.95433C15.6157 1.89866 15.5549 1.84852 15.4894 1.8047C15.4238 1.76087 15.3547 1.72416 15.2817 1.69376C15.2087 1.66375 15.1336 1.64085 15.0563 1.62545C14.9789 1.61005 14.9007 1.60216 14.8217 1.60216H9.2134C9.13483 1.60216 9.05666 1.61005 8.97927 1.62545C8.90189 1.64085 8.82648 1.66375 8.75383 1.69376C8.68079 1.72416 8.6113 1.76087 8.54577 1.8047C8.48023 1.84852 8.41942 1.89866 8.36376 1.95433C8.30809 2.01 8.25834 2.0708 8.21412 2.13634C8.1703 2.20188 8.13358 2.27137 8.10318 2.34402C8.07317 2.41706 8.05027 2.49207 8.03488 2.56945C8.01948 2.64684 8.01158 2.72501 8.01158 2.80397V6.00869H7.2105V2.80397C7.2105 2.73844 7.21406 2.67329 7.22037 2.60775C7.22708 2.54261 7.23656 2.47786 7.24959 2.4135C7.26222 2.34915 7.27841 2.28558 7.29736 2.22281C7.31631 2.16003 7.33842 2.09844 7.36369 2.03803C7.38896 1.97723 7.41699 1.91801 7.44779 1.86037C7.47858 1.80272 7.51254 1.74627 7.54886 1.69178C7.58518 1.6373 7.62427 1.58479 7.66612 1.53425C7.70757 1.48332 7.7514 1.43476 7.79799 1.38856C7.84418 1.34198 7.89274 1.29815 7.94367 1.2567C7.99421 1.21485 8.04672 1.17576 8.1012 1.13944C8.15569 1.10311 8.21215 1.06916 8.26979 1.03836C8.32783 1.00757 8.38666 0.979535 8.44746 0.954267C8.50786 0.928999 8.56945 0.90689 8.63223 0.887938C8.69501 0.868987 8.75857 0.8528 8.82293 0.840166C8.88728 0.827137 8.95203 0.817661 9.01717 0.81095C9.08271 0.804632 9.14786 0.801079 9.2134 0.801079H14.8217C14.8873 0.801079 14.9528 0.804632 15.018 0.81095C15.0835 0.817661 15.1483 0.827137 15.2122 0.840166C15.2766 0.8528 15.3401 0.868987 15.4029 0.887938C15.4657 0.90689 15.5273 0.928999 15.5881 0.954267C15.6485 0.979535 15.7077 1.00757 15.7653 1.03836C15.8234 1.06916 15.8794 1.10311 15.9339 1.13944C15.9884 1.17576 16.0413 1.21485 16.0919 1.2567C16.1424 1.29815 16.191 1.34198 16.2375 1.38856C16.2837 1.43476 16.328 1.48332 16.3694 1.53425C16.4109 1.58479 16.45 1.6373 16.4863 1.69178C16.523 1.74627 16.5566 1.80272 16.5877 1.86037C16.6185 1.91801 16.6466 1.97723 16.6718 2.03803C16.6967 2.09844 16.7188 2.16003 16.7382 2.22281C16.7571 2.28558 16.7729 2.34915 16.7859 2.4135C16.7986 2.47786 16.8084 2.54261 16.8148 2.60775C16.8215 2.67329 16.8246 2.73844 16.8246 2.80397V6.00869H16.0236Z" fill="white"/>
</g>
<path d="M8.4123 11.617C8.4123 11.5254 8.40796 11.4338 8.39888 11.3422C8.38979 11.251 8.37637 11.1602 8.3586 11.0702C8.34044 10.9798 8.31833 10.891 8.29149 10.8029C8.26503 10.7153 8.23384 10.6288 8.1987 10.5439C8.16357 10.459 8.12448 10.3761 8.08105 10.2952C8.03801 10.2142 7.99064 10.1357 7.93971 10.0591C7.88877 9.98289 7.83429 9.90906 7.77586 9.83799C7.71742 9.76732 7.65583 9.69901 7.59108 9.63426C7.52594 9.56951 7.45803 9.50753 7.38696 9.44949C7.31629 9.39106 7.24246 9.33657 7.16626 9.28564C7.08967 9.23432 7.0111 9.18733 6.93016 9.1439C6.84923 9.10087 6.76632 9.06139 6.68143 9.02625C6.59655 8.99111 6.51008 8.96032 6.42204 8.93386C6.33439 8.90702 6.24516 8.88491 6.15514 8.86674C6.06513 8.84898 5.97432 8.83555 5.88312 8.82647C5.79152 8.81739 5.69992 8.81305 5.60832 8.81305C5.51633 8.81305 5.42474 8.81739 5.33353 8.82647C5.24194 8.83555 5.15113 8.84898 5.06111 8.86674C4.97109 8.88491 4.88226 8.90702 4.79422 8.93386C4.70617 8.96032 4.6201 8.99111 4.53522 9.02625C4.45033 9.06139 4.36742 9.10087 4.28648 9.1439C4.20515 9.18733 4.12658 9.23432 4.05039 9.28564C3.97379 9.33657 3.90036 9.39106 3.82929 9.44949C3.75822 9.50753 3.69031 9.56951 3.62556 9.63426C3.56042 9.69901 3.49883 9.76732 3.4404 9.83799C3.38236 9.90906 3.32748 9.98289 3.27655 10.0591C3.22562 10.1357 3.17863 10.2142 3.1352 10.2952C3.09178 10.3761 3.05269 10.459 3.01755 10.5439C2.98241 10.6288 2.95162 10.7153 2.92477 10.8029C2.89832 10.891 2.87581 10.9798 2.85804 11.0702C2.83988 11.1602 2.82646 11.251 2.81738 11.3422C2.80869 11.4338 2.80396 11.5254 2.80396 11.617C2.80396 11.709 2.80869 11.8006 2.81738 11.8918C2.82646 11.9834 2.83988 12.0742 2.85804 12.1642C2.87581 12.2543 2.89832 12.3431 2.92477 12.4311C2.95162 12.5188 2.98241 12.6052 3.01755 12.6901C3.05269 12.775 3.09178 12.8579 3.1352 12.9389C3.17863 13.0198 3.22562 13.0988 3.27655 13.175C3.32748 13.2512 3.38236 13.325 3.4404 13.3961C3.49883 13.4671 3.56042 13.535 3.62556 13.5998C3.69031 13.6649 3.75822 13.7265 3.82929 13.7846C3.90036 13.843 3.97379 13.8975 4.05039 13.9488C4.12658 13.9997 4.20515 14.0467 4.28648 14.0901C4.36742 14.1336 4.45033 14.1727 4.53522 14.2078C4.6201 14.2429 4.70617 14.2737 4.79422 14.3006C4.88226 14.327 4.97109 14.3495 5.06111 14.3673C5.15113 14.3851 5.24194 14.3989 5.33353 14.4076C5.42474 14.4167 5.51633 14.4214 5.60832 14.4214C5.69992 14.421 5.79152 14.4167 5.88312 14.4076C5.97432 14.3985 6.06513 14.3847 6.15514 14.3669C6.24516 14.3487 6.33399 14.3266 6.42204 14.2998C6.50969 14.2729 6.59615 14.2421 6.68064 14.207C6.76553 14.1719 6.84844 14.1324 6.92937 14.0894C7.01031 14.0459 7.08888 13.9985 7.16547 13.9476C7.24167 13.8967 7.3155 13.8418 7.38618 13.7838C7.45724 13.7253 7.52515 13.6637 7.5899 13.599C7.65504 13.5342 7.71664 13.4659 7.77467 13.3953C7.83311 13.3242 7.88759 13.2504 7.93892 13.1742C7.98985 13.098 8.03683 13.0194 8.08026 12.9385C8.12369 12.8575 8.16278 12.7746 8.19791 12.6897C8.23305 12.6049 8.26424 12.5184 8.2907 12.4307C8.31754 12.3427 8.34005 12.2539 8.35781 12.1638C8.37598 12.0738 8.3894 11.983 8.39848 11.8918C8.40756 11.8006 8.4123 11.709 8.4123 11.617ZM3.60543 11.617C3.60543 11.5515 3.60859 11.4859 3.6149 11.4208C3.62122 11.3557 3.63109 11.2905 3.64373 11.2262C3.65636 11.1618 3.67255 11.0986 3.6915 11.0359C3.71045 10.9731 3.73256 10.9111 3.75783 10.8507C3.7827 10.7899 3.81073 10.7307 3.84192 10.673C3.87272 10.615 3.90628 10.5589 3.943 10.5044C3.97932 10.45 4.01841 10.397 4.05986 10.3465C4.10171 10.2956 4.14554 10.247 4.19173 10.2008C4.23832 10.1542 4.28688 10.1104 4.33742 10.069C4.38835 10.0271 4.44086 9.98802 4.49534 9.9517C4.54983 9.91537 4.60628 9.88142 4.66393 9.85062C4.72197 9.81983 4.78119 9.7918 4.84159 9.76653C4.9024 9.74165 4.96399 9.71954 5.02676 9.7002C5.08954 9.68125 5.1531 9.66545 5.21746 9.65243C5.28181 9.63979 5.34656 9.63032 5.41171 9.6236C5.47725 9.61729 5.54279 9.61413 5.60832 9.61413C5.67386 9.61413 5.7394 9.61729 5.80455 9.6236C5.86969 9.63032 5.93444 9.63979 5.9988 9.65243C6.06315 9.66545 6.12672 9.68125 6.18949 9.7002C6.25227 9.71954 6.31425 9.74165 6.37466 9.76653C6.43546 9.7918 6.49468 9.81983 6.55233 9.85062C6.61036 9.88142 6.66643 9.91537 6.72091 9.9517C6.7754 9.98802 6.8283 10.0271 6.87884 10.069C6.92977 10.1104 6.97794 10.1542 7.02452 10.2008C7.07072 10.247 7.11494 10.2956 7.15639 10.3465C7.19824 10.397 7.23733 10.45 7.27365 10.5044C7.30998 10.5589 7.34354 10.615 7.37473 10.673C7.40552 10.7307 7.43355 10.7899 7.45882 10.8507C7.48369 10.9111 7.5058 10.9731 7.52476 11.0359C7.5441 11.0986 7.55989 11.1618 7.57253 11.2262C7.58556 11.2905 7.59503 11.3557 7.60135 11.4208C7.60806 11.4859 7.61122 11.5515 7.61122 11.617C7.61122 11.6826 7.60806 11.7481 7.60135 11.8132C7.59503 11.8788 7.58556 11.9435 7.57253 12.0079C7.55989 12.0722 7.5441 12.1358 7.52476 12.1986C7.5058 12.2614 7.48369 12.323 7.45882 12.3838C7.43355 12.4442 7.40552 12.5034 7.37473 12.5614C7.34354 12.6191 7.30998 12.6755 7.27365 12.73C7.23733 12.7845 7.19824 12.837 7.15639 12.8879C7.11494 12.9385 7.07072 12.987 7.02452 13.0332C6.97794 13.0798 6.92977 13.1236 6.87884 13.1655C6.8283 13.2069 6.7754 13.246 6.72091 13.2824C6.66643 13.3191 6.61036 13.3526 6.55233 13.3834C6.49468 13.4146 6.43546 13.4426 6.37466 13.4675C6.31425 13.4928 6.25227 13.5149 6.18949 13.5338C6.12672 13.5528 6.06315 13.5686 5.9988 13.5816C5.93444 13.5943 5.86969 13.6041 5.80455 13.6104C5.7394 13.6168 5.67386 13.6199 5.60832 13.6199C5.54279 13.6199 5.47725 13.6168 5.4121 13.61C5.34656 13.6037 5.28181 13.5939 5.21746 13.5812C5.1535 13.5682 5.08993 13.5524 5.02716 13.5335C4.96438 13.5141 4.90279 13.492 4.84199 13.4671C4.78158 13.4419 4.72236 13.4138 4.66432 13.3826C4.60668 13.3518 4.55062 13.3183 4.49613 13.2816C4.44165 13.2452 4.38874 13.2062 4.33821 13.1647C4.28767 13.1232 4.23911 13.079 4.19252 13.0328C4.14633 12.9862 4.10211 12.9377 4.06065 12.8871C4.01919 12.8366 3.98011 12.7837 3.94339 12.7292C3.90707 12.6747 3.87351 12.6187 3.84232 12.5606C3.81152 12.503 3.78349 12.4438 3.75822 12.3834C3.73335 12.3226 3.71124 12.261 3.69189 12.1982C3.67294 12.1354 3.65715 12.0719 3.64412 12.0075C3.63109 11.9435 3.62162 11.8788 3.6153 11.8132C3.60859 11.7481 3.60543 11.6826 3.60543 11.617Z" fill="white"/>
<path d="M18.9329 11.4587C18.9708 11.4954 19.0142 11.5235 19.0628 11.5428C19.1117 11.5622 19.1623 11.5716 19.2148 11.5712C19.2673 11.5708 19.3178 11.5606 19.3664 11.54C19.4146 11.5199 19.4576 11.4911 19.4947 11.454C19.5318 11.4169 19.5603 11.3742 19.5808 11.3257C19.6009 11.2771 19.6116 11.2266 19.612 11.1741C19.6124 11.1215 19.6029 11.071 19.5835 11.0224C19.5638 10.9735 19.5358 10.9301 19.4995 10.8925L19.1496 10.5431C19.1121 10.5068 19.0687 10.4788 19.0198 10.459C18.9712 10.4397 18.9207 10.4302 18.8681 10.4306C18.8156 10.431 18.7651 10.4417 18.7165 10.4618C18.668 10.4819 18.6253 10.5108 18.5882 10.5479C18.5511 10.585 18.5223 10.628 18.5021 10.6762C18.4816 10.7248 18.4714 10.7753 18.471 10.8278C18.4706 10.8803 18.48 10.9308 18.4994 10.9798C18.5187 11.0284 18.5468 11.0718 18.5835 11.1097L18.9329 11.4587Z" fill="white"/>
<path d="M18.3581 15.9837L21.1913 13.1505C21.2099 13.132 21.2264 13.1118 21.241 13.0897C21.2557 13.068 21.2679 13.0451 21.2782 13.0206C21.288 12.9966 21.2955 12.9713 21.3007 12.9456C21.3058 12.9196 21.3086 12.8935 21.3086 12.8674C21.3086 12.841 21.3058 12.8149 21.3007 12.7893C21.2955 12.7636 21.288 12.7383 21.2782 12.7143C21.2679 12.6898 21.2557 12.6669 21.241 12.6448C21.2264 12.6231 21.2099 12.6029 21.1913 12.584L20.3417 11.7343C20.3038 11.698 20.2603 11.67 20.2118 11.6506C20.1628 11.6313 20.1123 11.6214 20.0598 11.6222C20.0073 11.6226 19.9567 11.6329 19.9085 11.6534C19.86 11.6735 19.817 11.7023 19.7798 11.7395C19.7427 11.7766 19.7143 11.8192 19.6938 11.8678C19.6736 11.9163 19.663 11.9665 19.6626 12.019C19.6622 12.0715 19.6717 12.1224 19.6914 12.171C19.7107 12.22 19.7388 12.263 19.7751 12.3009L20.3417 12.8674L18.0754 15.1337L14.1095 11.1678L16.3757 8.90153L17.7833 10.3087C17.8212 10.3454 17.8646 10.3734 17.9132 10.3927C17.9621 10.4121 18.0126 10.4216 18.0652 10.4212C18.1177 10.4208 18.1682 10.4105 18.2168 10.39C18.2649 10.3698 18.308 10.341 18.3451 10.3039C18.3822 10.2668 18.411 10.2242 18.4312 10.1756C18.4513 10.127 18.4619 10.0765 18.4623 10.024C18.4627 9.97148 18.4533 9.92094 18.4339 9.87238C18.4142 9.82343 18.3861 9.78 18.3498 9.74249L16.6588 8.05189C16.6403 8.03334 16.6201 8.01675 16.5984 8.00214C16.5763 7.98754 16.5534 7.9753 16.5289 7.96503C16.5048 7.95516 16.4796 7.94727 16.4539 7.94213C16.4283 7.937 16.4022 7.93463 16.3757 7.93463C16.3493 7.93463 16.3232 7.937 16.2976 7.94213C16.2719 7.94727 16.2466 7.95516 16.2226 7.96503C16.1981 7.9753 16.1752 7.98754 16.1531 8.00214C16.1314 8.01675 16.1112 8.03334 16.0927 8.05189L13.2595 10.8847C13.2409 10.9036 13.2243 10.9238 13.2097 10.9455C13.1951 10.9676 13.1829 10.9905 13.1726 11.015C13.1627 11.0391 13.1552 11.0643 13.1501 11.09C13.145 11.1157 13.1422 11.1417 13.1422 11.1682C13.1422 11.1942 13.145 11.2203 13.1501 11.2463C13.1552 11.272 13.1627 11.2969 13.1726 11.3214C13.1829 11.3458 13.1951 11.3687 13.2097 11.3904C13.2243 11.4126 13.2409 11.4327 13.2595 11.4512L17.7919 15.9837C17.8105 16.0023 17.8306 16.0189 17.8524 16.0335C17.8745 16.0481 17.8974 16.0603 17.9218 16.0706C17.9459 16.0804 17.9712 16.088 17.9969 16.0931C18.0225 16.0982 18.0486 16.101 18.075 16.101C18.1015 16.101 18.1275 16.0982 18.1532 16.0931C18.1789 16.088 18.2041 16.0804 18.2282 16.0706C18.2527 16.0603 18.2756 16.0481 18.2977 16.0335C18.3194 16.0189 18.3396 16.0023 18.3581 15.9837Z" fill="white"/>
<path d="M4.98255 20.47C4.99558 20.4929 5.01097 20.5142 5.02835 20.534C5.04572 20.5537 5.06467 20.5719 5.08559 20.5877C5.10652 20.6038 5.12863 20.6177 5.15232 20.6291C5.17601 20.641 5.20049 20.65 5.22575 20.6567C5.25102 20.6635 5.27708 20.6678 5.30314 20.6698C5.32959 20.6714 5.35565 20.6706 5.38171 20.667C5.40776 20.6635 5.43343 20.6575 5.4583 20.6492C5.48317 20.641 5.50686 20.6299 5.52976 20.6169L9.69269 18.2132C9.71559 18.2002 9.73651 18.1848 9.75665 18.1674C9.77639 18.1501 9.79416 18.1311 9.80995 18.1102C9.82614 18.0893 9.83995 18.0672 9.8518 18.0435C9.86325 18.0198 9.87233 17.9953 9.87944 17.97C9.88615 17.9448 9.89049 17.9187 9.89207 17.8926C9.89365 17.8662 9.89286 17.8401 9.88931 17.8141C9.88615 17.788 9.88023 17.7624 9.87154 17.7375C9.86325 17.7126 9.85259 17.6889 9.83916 17.666L8.63735 15.583C8.62432 15.5601 8.60892 15.5388 8.59155 15.519C8.57457 15.4993 8.55523 15.4815 8.5343 15.4653C8.51338 15.4495 8.49127 15.4357 8.46758 15.4239C8.44428 15.4124 8.41981 15.4033 8.39414 15.3962C8.36887 15.3895 8.34282 15.3852 8.31676 15.3836C8.2907 15.382 8.26425 15.3828 8.23819 15.386C8.21213 15.3895 8.18686 15.3954 8.16199 15.4041C8.13672 15.4124 8.11303 15.4231 8.09013 15.4365L3.92721 17.8397C3.9047 17.8532 3.88338 17.8682 3.86364 17.8855C3.8439 17.9029 3.82574 17.9223 3.80995 17.9428C3.79376 17.9637 3.77994 17.9862 3.76849 18.0095C3.75665 18.0332 3.74757 18.0577 3.74086 18.0833C3.73375 18.1086 3.7298 18.1343 3.72783 18.1607C3.72625 18.1868 3.72704 18.2128 3.73059 18.2393C3.73375 18.2654 3.73967 18.2906 3.74836 18.3155C3.75665 18.3404 3.7677 18.3645 3.78073 18.387L4.98255 20.47ZM8.14383 16.3316L8.9453 17.7185L5.47607 19.7214L4.67499 18.3348L8.14383 16.3316Z" fill="white"/>
<path d="M15.6651 17.0461L14.0625 20.2508C14.0475 20.2816 14.036 20.3136 14.0293 20.3468C14.0222 20.3803 14.0195 20.4143 14.0207 20.4482C14.0222 20.4822 14.0282 20.5158 14.0384 20.5481C14.0483 20.5809 14.0625 20.6117 14.0803 20.6409C14.0984 20.6697 14.1197 20.6962 14.1442 20.7199C14.1691 20.7432 14.1963 20.7633 14.226 20.7799C14.256 20.7969 14.2875 20.8091 14.3203 20.8178C14.3535 20.8265 14.387 20.8308 14.4214 20.8308H17.6261C17.6601 20.8308 17.694 20.8269 17.7272 20.8182C17.7603 20.8099 17.7919 20.7973 17.8219 20.7807C17.8515 20.7641 17.8792 20.7444 17.904 20.7207C17.9289 20.697 17.9502 20.6709 17.9684 20.6417C17.9866 20.6125 18.0004 20.5817 18.0106 20.5489C18.0209 20.5165 18.0268 20.483 18.0284 20.4486C18.03 20.4147 18.0272 20.3807 18.0201 20.3472C18.013 20.3136 18.002 20.2816 17.9866 20.2508L16.384 17.0461C16.3749 17.0307 16.3647 17.0157 16.3536 17.0015C16.3426 16.9873 16.3307 16.9739 16.3177 16.9612C16.3047 16.9486 16.2912 16.9368 16.2766 16.9257C16.2624 16.9147 16.2474 16.9048 16.2316 16.8961C16.2158 16.887 16.1996 16.8791 16.1831 16.872C16.1661 16.8653 16.1491 16.8594 16.1317 16.855C16.1144 16.8503 16.0966 16.8467 16.0784 16.8444C16.0607 16.842 16.0425 16.8408 16.0247 16.8408C16.0066 16.8408 15.9884 16.842 15.9706 16.8444C15.9525 16.8467 15.9351 16.8503 15.9173 16.855C15.9 16.8594 15.883 16.8653 15.866 16.872C15.8494 16.8791 15.8332 16.887 15.8175 16.8961C15.8021 16.9048 15.7867 16.9147 15.7724 16.9257C15.7578 16.9368 15.7444 16.9486 15.7314 16.9612C15.7187 16.9739 15.7065 16.9873 15.6955 17.0015C15.6844 17.0157 15.6741 17.0307 15.6651 17.0461ZM15.0693 20.0293L16.0235 18.1212L16.9778 20.0293H15.0693Z" fill="white"/>
<mask id="mask1_243_1854" style="mask-type:luminance" maskUnits="userSpaceOnUse" x="23" y="17" width="1" height="2">
<path d="M23.2218 17.5262H24V18.8402H23.2218V17.5262Z" fill="white"/>
</mask>
<g mask="url(#mask1_243_1854)">
<path d="M23.6347 17.6262C23.6083 17.6262 23.5822 17.6286 23.5566 17.6337C23.5309 17.6389 23.5056 17.6464 23.4816 17.6566C23.4571 17.6665 23.4342 17.6791 23.4121 17.6937C23.3904 17.7083 23.3702 17.7249 23.3517 17.7435C23.3327 17.762 23.3161 17.7822 23.3015 17.8043C23.2869 17.826 23.2747 17.8489 23.2648 17.8734C23.2545 17.8979 23.247 17.9227 23.2419 17.9484C23.2368 17.9744 23.234 18.0005 23.234 18.0266V18.4273C23.234 18.4534 23.2368 18.4794 23.2419 18.5055C23.247 18.5311 23.2545 18.5564 23.2648 18.5805C23.2747 18.605 23.2869 18.6279 23.3015 18.65C23.3161 18.6717 23.3327 18.6918 23.3517 18.7104C23.3702 18.7289 23.3904 18.7455 23.4121 18.7605C23.4342 18.7751 23.4571 18.7874 23.4816 18.7972C23.5056 18.8075 23.5309 18.815 23.5566 18.8201C23.5822 18.8253 23.6083 18.828 23.6347 18.828C23.6612 18.828 23.6873 18.8253 23.7129 18.8201C23.7386 18.815 23.7639 18.8075 23.7879 18.7972C23.8124 18.7874 23.8353 18.7751 23.8574 18.7605C23.8791 18.7455 23.8993 18.7289 23.9178 18.7104C23.9368 18.6918 23.9534 18.6717 23.968 18.65C23.9826 18.6279 23.9948 18.605 24.0047 18.5805C24.015 18.5564 24.0225 18.5311 24.0276 18.5055C24.0327 18.4794 24.0355 18.4534 24.0355 18.4273V18.0266C24.0355 18.0005 24.0327 17.9744 24.0276 17.9484C24.0225 17.9227 24.015 17.8979 24.0047 17.8734C23.9948 17.8489 23.9826 17.826 23.968 17.8043C23.9534 17.7822 23.9368 17.762 23.9178 17.7435C23.8993 17.7249 23.8791 17.7083 23.8574 17.6937C23.8353 17.6791 23.8124 17.6665 23.7879 17.6566C23.7639 17.6464 23.7386 17.6389 23.7129 17.6337C23.6873 17.6286 23.6612 17.6262 23.6347 17.6262Z" fill="white"/>
</g>
</svg>
