<svg width="64" height="64" viewBox="0 0 64 64" fill="none" xmlns="http://www.w3.org/2000/svg">
<mask id="mask0_187_2032" style="mask-type:luminance" maskUnits="userSpaceOnUse" x="0" y="39" width="25" height="25">
<path d="M0 39.7239H24.2372V64.0001H0V39.7239Z" fill="white"/>
</mask>
<g mask="url(#mask0_187_2032)">
<path d="M19.4429 40.8844C18.2103 39.6541 16.2275 39.6541 15.0689 40.8844L0.921222 55.0689C-0.305935 56.3047 -0.305935 58.2873 0.921222 59.4554L4.68218 63.2207C5.2963 63.8419 6.04545 64.1148 6.86972 64.1148C7.68746 64.1148 8.51174 63.7731 9.05726 63.2207L23.205 49.0416C24.4321 47.8058 24.4321 45.8178 23.205 44.6552L19.4429 40.8844Z" fill="#6095BF"/>
</g>
<path d="M53.8185 36.2303C50.3298 39.7216 45.7554 41.6419 40.8348 41.6419C35.9153 41.6419 31.3355 39.7216 27.8468 36.2303C20.6711 29.0349 20.6711 17.3854 27.8468 10.2598C35.0224 3.06441 46.7104 3.06441 53.8185 10.191C60.9942 17.3854 60.9942 29.0349 53.8185 36.2238V36.2303ZM57.2332 6.83515C48.2163 -2.27838 33.5176 -2.27838 24.5007 6.83515C16.4376 14.9192 15.4772 27.7991 22.1759 36.9814L21.4268 37.7336C20.7386 38.417 20.7386 39.5852 21.4268 40.2686L23.8866 42.7358C24.5682 43.4192 25.7333 43.4192 26.4149 42.7358L27.1652 41.9836C31.1994 44.9967 36.046 46.4378 40.8348 46.4378C46.779 46.4378 52.7895 44.1769 57.2332 39.6539C66.2556 30.5393 66.2556 15.8766 57.2332 6.83515Z" fill="#6095BF"/>
</svg>
