<?xml version="1.0" standalone="no"?>
<!DOCTYPE svg PUBLIC "-//W3C//DTD SVG 20010904//EN"
 "http://www.w3.org/TR/2001/REC-SVG-20010904/DTD/svg10.dtd">
<svg version="1.0" xmlns="http://www.w3.org/2000/svg"
 width="360.000000pt" height="360.000000pt" viewBox="0 0 360.000000 360.000000"
 preserveAspectRatio="xMidYMid meet">

<g transform="translate(0.000000,360.000000) scale(0.100000,-0.100000)"
fill="#000000" stroke="none">
<path d="M2559 3374 c-34 -41 -173 -119 -276 -155 -130 -45 -300 -60 -455 -39
-136 18 -332 27 -425 18 -171 -15 -280 -79 -341 -199 -55 -109 -62 -165 -60
-524 0 -176 3 -309 5 -295 13 78 48 152 113 240 39 52 87 129 107 170 l36 76
67 -17 c115 -30 258 -42 470 -42 214 0 355 12 473 42 l69 18 15 -36 c22 -53
80 -147 137 -221 61 -80 85 -133 101 -224 12 -66 13 -50 14 213 l1 284 34 37
c18 21 44 64 57 96 20 51 23 77 24 189 0 169 -28 267 -100 354 -30 35 -46 39
-66 15z"/>
<path d="M1204 2260 c-33 -4 -66 -10 -72 -14 -15 -9 -16 -78 -1 -93 5 -5 15
-44 20 -84 31 -230 79 -274 294 -274 83 1 107 4 142 23 63 33 106 97 148 222
26 78 60 106 93 77 11 -10 34 -58 51 -107 22 -61 45 -103 73 -135 64 -72 85
-80 218 -80 104 0 121 3 165 25 64 33 89 81 110 215 9 55 20 108 26 117 5 10
9 35 9 57 0 49 -2 49 -210 57 -120 5 -179 2 -260 -11 -175 -28 -224 -29 -372
-6 -138 21 -308 26 -434 11z m396 -41 c24 -5 60 -19 78 -31 34 -21 34 -21 27
-77 -17 -134 -65 -225 -138 -263 -56 -28 -233 -24 -287 8 -44 25 -71 81 -78
160 -11 139 18 199 103 214 59 11 230 4 295 -11z m750 -7 c44 -33 51 -59 48
-167 -3 -78 -8 -108 -23 -134 -35 -60 -63 -73 -168 -79 -128 -6 -160 1 -213
50 -49 45 -80 115 -93 210 -10 78 5 100 91 122 96 24 105 25 223 20 87 -3 115
-8 135 -22z"/>
<path d="M1692 1253 c47 -101 104 -212 108 -212 3 0 27 46 55 102 27 56 51
105 53 110 2 4 -47 7 -108 7 -61 0 -110 -3 -108 -7z"/>
<path d="M1215 623 c-116 -77 -267 -240 -320 -344 l-15 -27 110 -56 c503 -258
1117 -257 1623 1 59 30 106 58 105 62 -59 116 -206 278 -329 362 l-56 38 -24
-26 c-68 -73 -237 -166 -349 -194 -69 -17 -260 -17 -320 0 -130 36 -217 83
-320 171 l-55 47 -50 -34z"/>
</g>
</svg>
