<?xml version="1.0" standalone="no"?>
<!DOCTYPE svg PUBLIC "-//W3C//DTD SVG 20010904//EN"
 "http://www.w3.org/TR/2001/REC-SVG-20010904/DTD/svg10.dtd">
<svg version="1.0" xmlns="http://www.w3.org/2000/svg"
 width="360.000000pt" height="437.000000pt" viewBox="0 0 360.000000 437.000000"
 preserveAspectRatio="xMidYMid meet">

<g transform="translate(0.000000,437.000000) scale(0.100000,-0.100000)"
fill="#000000" stroke="none">
<path d="M2675 4351 c-217 -78 -548 -320 -811 -592 -104 -109 -142 -191 -161
-348 l-6 -54 -146 6 c-118 5 -277 -2 -331 -16 -6 -1 -23 34 -38 78 -64 183
-194 323 -378 406 -160 73 -517 159 -688 167 l-118 5 6 -29 c3 -16 10 -132 16
-257 17 -394 45 -500 188 -717 67 -101 184 -227 253 -271 58 -37 155 -69 209
-69 l38 0 4 -97 c4 -80 1 -106 -14 -138 -47 -105 0 -222 99 -246 l42 -11 -28
-24 c-47 -39 -46 -109 1 -170 13 -16 21 -39 20 -54 -5 -42 39 -76 137 -108 80
-25 98 -27 258 -27 l171 1 -32 -38 c-49 -57 -84 -128 -106 -214 -54 -210 8
-428 167 -593 39 -41 70 -77 68 -81 -2 -3 -13 -104 -25 -224 -23 -235 -41
-313 -90 -386 -61 -91 -29 -160 74 -160 132 0 237 34 300 97 46 47 57 79 112
328 25 115 47 212 49 214 2 2 21 -1 42 -6 32 -7 38 -13 41 -38 1 -17 14 -86
29 -155 30 -141 34 -248 11 -300 -8 -19 -32 -55 -52 -78 -26 -31 -36 -53 -36
-77 0 -59 42 -82 133 -72 155 16 297 132 336 272 17 61 41 307 41 428 l0 107
105 52 c57 29 107 49 111 45 12 -11 -16 -204 -41 -292 -31 -106 -66 -184 -116
-262 -33 -49 -40 -69 -37 -100 3 -32 9 -41 38 -56 29 -15 53 -18 137 -14 87 3
109 8 160 33 71 36 107 81 157 200 32 76 79 234 102 339 6 27 7 28 14 10 12
-30 12 -119 -1 -173 -6 -26 -42 -112 -79 -192 -87 -186 -97 -218 -81 -270 23
-76 95 -96 228 -65 137 32 263 116 308 205 33 66 101 321 121 453 46 313 -66
676 -256 826 l-48 38 28 50 c60 104 72 164 68 313 -3 113 -7 142 -25 176 -45
85 -136 134 -248 134 -66 0 -150 -25 -177 -52 l-22 -22 72 -17 c83 -21 118
-37 155 -74 65 -65 53 -167 -35 -314 -29 -47 -53 -87 -53 -88 -4 -10 -777 91
-838 109 -77 23 -134 94 -150 188 -6 33 -4 37 34 60 70 43 178 165 215 244 33
70 64 217 64 307 0 22 6 39 14 42 25 10 404 424 425 465 42 82 56 205 56 492
0 209 -4 288 -18 371 -31 182 -94 401 -116 398 -3 0 -28 -8 -56 -18z m67 -36
c18 -70 58 -332 69 -455 21 -246 -4 -635 -47 -726 -9 -19 -49 -71 -88 -117
-85 -96 -259 -306 -299 -359 -20 -26 -38 -76 -62 -166 -47 -183 -78 -239 -212
-384 -69 -74 -71 -77 -67 -120 14 -127 65 -200 160 -231 113 -38 479 -83 732
-92 181 -7 207 -14 311 -84 80 -55 163 -149 205 -234 19 -40 50 -126 67 -192
29 -109 32 -134 33 -265 0 -161 -20 -270 -90 -491 -28 -89 -43 -119 -75 -154
-44 -47 -127 -95 -208 -119 -64 -19 -162 -21 -179 -4 -27 27 -13 88 52 226 88
190 100 231 100 332 0 134 -50 217 -159 266 -133 60 -279 32 -470 -91 -31 -20
-58 -35 -59 -33 -1 2 -10 29 -19 60 -19 61 -45 94 -33 42 19 -85 26 -167 21
-229 -16 -172 -48 -382 -67 -433 -41 -111 -157 -191 -285 -200 -88 -6 -90 0
-33 76 75 100 79 187 20 402 -22 80 -40 156 -40 170 0 24 -11 29 -221 99 -243
81 -284 104 -366 203 -157 190 -187 453 -77 673 52 104 55 107 120 111 54 3
73 9 63 18 -15 15 -151 25 -264 19 -112 -5 -146 -3 -248 17 -118 23 -177 48
-177 73 0 12 8 12 53 0 97 -26 190 -4 215 53 45 98 -35 201 -161 205 -26 1
-47 3 -47 4 0 1 17 14 38 27 54 36 93 114 93 184 0 65 -21 108 -72 142 -48 33
-130 28 -190 -12 l-42 -28 6 118 c13 241 73 366 254 525 165 145 219 166 487
184 111 7 203 12 204 10 2 -2 -3 -37 -11 -77 -33 -165 20 -43 62 142 43 186
64 225 180 340 127 124 341 308 465 400 108 80 325 212 340 207 6 -2 13 -16
18 -32z m-2426 -396 c164 -31 423 -107 509 -149 147 -72 252 -178 321 -325 50
-108 50 -107 -4 -132 -26 -13 -71 -41 -100 -63 -46 -35 -53 -38 -58 -23 -4 10
-24 54 -45 98 -80 165 -189 265 -404 369 -176 86 -284 124 -296 105 -14 -22
-11 -159 6 -244 70 -369 202 -598 418 -729 l52 -31 -5 -57 c-3 -31 -8 -59 -12
-63 -11 -11 -129 24 -178 52 -129 76 -308 308 -376 489 -48 127 -58 212 -77
643 l-5 93 77 -7 c42 -4 121 -15 177 -26z m245 -294 c180 -90 299 -208 388
-382 l21 -43 -74 -75 c-41 -41 -83 -75 -93 -75 -24 0 -162 -61 -200 -88 l-30
-21 -30 32 c-40 43 -83 108 -122 184 -57 113 -131 406 -131 520 l0 61 99 -38
c54 -21 132 -55 172 -75z m374 -1139 c32 -32 40 -69 25 -107 -17 -40 -47 -59
-93 -59 -53 0 -97 43 -97 95 0 82 108 128 165 71z m-135 -211 c17 -20 5 -45
-20 -45 -23 0 -35 22 -26 45 7 19 30 19 46 0z m2419 -92 c46 -23 60 -36 80
-77 23 -45 25 -62 25 -185 1 -124 -2 -144 -28 -223 -15 -49 -34 -88 -40 -88
-6 0 -20 6 -31 14 -11 7 -48 24 -83 36 -42 15 -59 26 -53 34 100 128 132 191
139 272 8 108 -42 182 -151 218 -26 9 -67 17 -90 17 l-42 2 35 8 c68 15 178 3
239 -28z m-268 -1266 c48 -20 109 -75 109 -98 0 -36 -90 -293 -138 -393 -62
-129 -100 -165 -175 -168 -29 0 -59 -1 -67 -2 -31 -1 -96 15 -113 28 -17 13
-16 16 11 63 79 133 115 269 116 438 l1 130 40 12 c50 15 170 10 216 -10z
m-1220 -137 c78 -22 144 -42 146 -44 5 -5 -116 -446 -131 -475 -25 -48 -79
-82 -157 -101 -34 -7 -59 -6 -111 7 -38 10 -68 21 -68 25 0 3 13 28 30 55 47
77 60 153 67 395 l6 217 38 -19 c21 -11 102 -38 180 -60z"/>
<path d="M2562 4025 c-373 -178 -644 -479 -716 -792 -19 -84 -20 -96 -6 -88 5
3 25 -5 42 -18 18 -14 62 -39 98 -57 76 -38 202 -132 249 -185 32 -37 34 -37
71 -26 54 16 178 101 229 156 54 59 125 168 152 236 85 211 90 491 13 716 -15
43 -27 84 -27 91 -1 17 -1 17 -105 -33z m103 -75 c85 -468 -22 -819 -314
-1028 l-64 -46 -15 24 c-25 40 -137 147 -186 179 -25 16 -86 43 -136 61 l-89
32 23 62 c33 86 80 179 134 261 54 81 196 232 297 315 69 57 314 229 326 230
4 0 14 -41 24 -90z"/>
<path d="M1592 2589 c-25 -12 -55 -39 -70 -62 -23 -34 -27 -51 -27 -111 0 -82
20 -131 75 -186 49 -49 104 -73 176 -78 130 -9 215 81 201 213 -7 67 -35 122
-86 168 -57 51 -97 69 -166 74 -48 3 -69 0 -103 -18z m162 -90 c24 -27 27 -38
23 -73 -8 -54 -44 -86 -98 -86 -56 0 -99 42 -99 97 1 96 108 134 174 62z m70
-182 c38 -27 -2 -95 -41 -71 -25 16 -29 55 -7 71 10 7 21 13 24 13 3 0 14 -6
24 -13z"/>
</g>
</svg>
