<?xml version="1.0" standalone="no"?>
<!DOCTYPE svg PUBLIC "-//W3C//DTD SVG 20010904//EN"
 "http://www.w3.org/TR/2001/REC-SVG-20010904/DTD/svg10.dtd">
<svg version="1.0" xmlns="http://www.w3.org/2000/svg"
 width="1200.000000pt" height="630.000000pt" viewBox="0 0 1200.000000 630.000000"
 preserveAspectRatio="xMidYMid meet">

<g transform="translate(0.000000,630.000000) scale(0.100000,-0.100000)"
fill="#000000" stroke="none">
<path d="M4432 6290 c-238 -43 -410 -175 -523 -401 -104 -208 -159 -496 -175
-909 -8 -204 3 -338 48 -580 112 -608 304 -1130 491 -1335 l62 -68 325 81
c179 44 423 103 543 132 187 44 221 55 245 79 53 54 141 389 171 656 34 295
34 680 1 917 -25 178 -114 519 -177 678 -82 207 -196 392 -317 514 -98 100
-198 167 -307 207 -70 26 -99 30 -208 34 -69 2 -150 0 -179 -5z"/>
<path d="M7280 4820 c-64 -8 -157 -44 -237 -91 -130 -77 -312 -290 -404 -470
-81 -162 -168 -421 -218 -654 -42 -196 -50 -248 -62 -451 -22 -370 26 -857
113 -1139 45 -149 64 -187 100 -208 17 -10 180 -54 362 -97 182 -44 419 -101
526 -128 l195 -49 33 25 c82 62 222 306 306 532 122 330 234 807 267 1135 29
286 -21 783 -103 1035 -100 307 -293 501 -552 554 -80 16 -226 19 -326 6z"/>
<path d="M5365 2998 c-114 -37 -396 -123 -570 -173 -95 -27 -322 -93 -349
-101 -16 -5 -17 -13 -11 -73 57 -572 265 -978 576 -1126 340 -161 697 42 785
447 20 93 20 265 -1 383 -20 118 -66 254 -130 390 -53 113 -161 296 -173 294
-4 -1 -61 -19 -127 -41z"/>
<path d="M6464 1513 c-266 -415 -346 -844 -215 -1152 35 -82 68 -132 129 -195
62 -63 111 -97 197 -132 63 -25 82 -28 180 -28 96 0 119 4 180 28 226 88 407
302 516 611 57 164 105 392 111 539 3 66 2 69 -22 77 -14 4 -119 35 -235 69
-443 129 -524 154 -658 196 -75 24 -139 44 -142 44 -2 0 -21 -26 -41 -57z"/>
</g>
</svg>
